<svg xmlns="http://www.w3.org/2000/svg" width="355.195" height="340.739" viewBox="0 0 355.195 340.739">
  <g id="Grupo_41620" data-name="Grupo 41620" transform="translate(-1.399 -0.808)">
    <path id="Trazado_13169" data-name="Trazado 13169" d="M75.133,10h0L11.615,117.491,75.133,224.983H202.574l63.518-107.491L202.574,10H75.133m0-10H202.574a10,10,0,0,1,8.609,4.913L274.7,112.4a10,10,0,0,1,0,10.175L211.183,230.07a10,10,0,0,1-8.609,4.913H75.133a10,10,0,0,1-8.609-4.913L3.006,122.579a10,10,0,0,1,0-10.175L66.524,4.913A10,10,0,0,1,75.133,0Z" transform="translate(0 138.853) rotate(-30)" fill="#00b9da"/>
    <path id="Trazado_13168" data-name="Trazado 13168" d="M31.864,10h0L11.588,44.631,31.864,79.263H72.658L92.934,44.631,72.658,10H31.864m0-10H72.658a10,10,0,0,1,8.63,4.948l20.276,34.631a10,10,0,0,1,0,10.1L81.288,84.315a10,10,0,0,1-8.63,4.948H31.864a10,10,0,0,1-8.63-4.948L2.958,49.684a10,10,0,0,1,0-10.1L23.234,4.948A10,10,0,0,1,31.864,0Z" transform="translate(113.598 155.257) rotate(-30)" fill="#00b9da"/>
    <g id="Grupo_41603" data-name="Grupo 41603" transform="translate(123.182 79.903)">
      <path id="Trazado_13153" data-name="Trazado 13153" d="M2328.863-2804.493a5,5,0,0,1-4.431-2.677,5,5,0,0,1,2.1-6.751l30.169-15.833L2288.7-2870.29l-33.381,19.019a5,5,0,0,1-6.82-1.869,5,5,0,0,1,1.869-6.82l35.913-20.461a5,5,0,0,1,5.035.05l78.18,46.6a5,5,0,0,1,2.438,4.43,5,5,0,0,1-2.675,4.292l-38.077,19.982A4.979,4.979,0,0,1,2328.863-2804.493Z" transform="translate(-2231.592 2876.077)" fill="#00b9da"/>
      <ellipse id="Elipse_63" data-name="Elipse 63" cx="15.854" cy="16.574" rx="15.854" ry="16.574" transform="translate(0 7.737)" fill="#00b9da"/>
    </g>
    <g id="Grupo_41604" data-name="Grupo 41604" transform="translate(285.565 163.275) rotate(120)">
      <path id="Trazado_13153-2" data-name="Trazado 13153" d="M76.02,71.584a5,5,0,0,1-2.328-9.428l30.169-15.833L35.855,5.787,2.475,24.805a5,5,0,0,1-6.82-1.869,5,5,0,0,1,1.869-6.82L33.437-4.344a5,5,0,0,1,5.035.049l78.18,46.6a5,5,0,0,1-.237,8.722L78.339,71.01A4.979,4.979,0,0,1,76.02,71.584Z" transform="translate(21.242 0)" fill="#00b9da"/>
      <circle id="Elipse_63-2" data-name="Elipse 63" cx="16.022" cy="16.022" r="16.022" transform="translate(0 8.451)" fill="#00b9da"/>
    </g>
    <g id="Grupo_41605" data-name="Grupo 41605" transform="translate(131.069 263.69) rotate(-120)">
      <path id="Trazado_13153-3" data-name="Trazado 13153" d="M76.02,71.584a5,5,0,0,1-2.328-9.428l30.169-15.833L35.855,5.787,2.475,24.805a5,5,0,0,1-6.82-1.869,5,5,0,0,1,1.869-6.82L33.437-4.344a5,5,0,0,1,5.035.049l78.18,46.6a5,5,0,0,1-.237,8.722L78.339,71.01A4.979,4.979,0,0,1,76.02,71.584Z" transform="translate(21.242 0)" fill="#00b9da"/>
      <circle id="Elipse_63-3" data-name="Elipse 63" cx="16.022" cy="16.022" r="16.022" transform="translate(0 8.451)" fill="#00b9da"/>
    </g>
  </g>
</svg>
