<svg xmlns="http://www.w3.org/2000/svg" width="669.555" height="200.367" viewBox="0 0 669.555 200.367">
  <g id="Grupo_41631" data-name="Grupo 41631" transform="translate(-2647.036 9459.874)">
    <g id="Grupo_41632" data-name="Grupo 41632" transform="translate(2645.437 -9526.064)">
      <path id="Trazado_13172" data-name="Trazado 13172" d="M52.14,2.31c34.32,0,51.15-17.16,51.15-37.29,0-42.57-65.505-29.37-65.505-47.025,0-5.775,4.95-10.395,18.645-10.395,10.065,0,20.955,2.97,32.01,8.91L98.5-107.745c-11.385-6.6-26.895-10.065-41.91-10.065-34.32,0-51.15,16.83-51.15,37.455,0,42.9,65.67,29.535,65.67,47.85,0,5.61-5.28,9.405-18.81,9.405A72.834,72.834,0,0,1,14.19-34.485L3.465-10.4C14.355-2.805,33.165,2.31,52.14,2.31ZM204.765,0h33.99L187.6-115.5H155.43L104.445,0h33.33l9.075-22.44h48.84ZM156.42-46.53l14.85-36.96,14.85,36.96ZM325.215-115.5v43.395h-44.55V-115.5H248V0h32.67V-45.045h44.55V0h32.67V-115.5ZM380.985,0h32.67V-115.5h-32.67Zm114.18,2.31c36.96,0,64.185-25.41,64.185-60.06s-27.225-60.06-64.185-60.06S430.98-92.4,430.98-57.75,458.2,2.31,495.165,2.31Zm0-27.06c-17.49,0-31.185-13.035-31.185-33s13.7-33,31.185-33,31.185,13.035,31.185,33S512.655-24.75,495.165-24.75ZM617.1,2.31c34.32,0,51.15-17.16,51.15-37.29,0-42.57-65.505-29.37-65.505-47.025,0-5.775,4.95-10.395,18.645-10.395,10.065,0,20.955,2.97,32.01,8.91l10.065-24.255c-11.385-6.6-26.9-10.065-41.91-10.065-34.32,0-51.15,16.83-51.15,37.455,0,42.9,65.67,29.535,65.67,47.85,0,5.61-5.28,9.405-18.81,9.405A72.834,72.834,0,0,1,579.15-34.485L568.425-10.4C579.315-2.805,598.125,2.31,617.1,2.31Z" transform="translate(2.904 184)" fill="#172843"/>
      <path id="Trazado_13173" data-name="Trazado 13173" d="M12.051.312c7.215,0,10.569-3.588,10.569-7.761,0-10.023-16.536-5.85-16.536-12.519,0-2.379,1.989-4.329,6.63-4.329A14.1,14.1,0,0,1,20.2-22.074l1.287-3.12a16.061,16.061,0,0,0-8.775-2.418c-7.176,0-10.452,3.588-10.452,7.8,0,10.14,16.536,5.928,16.536,12.6C18.8-4.836,16.77-3,12.051-3A14.051,14.051,0,0,1,3.042-6.162L1.6-3.12C3.783-1.092,7.878.312,12.051.312Zm36.387,0c8.307,0,14.469-5.928,14.469-13.962S56.745-27.612,48.438-27.612c-8.385,0-14.547,5.967-14.547,13.962S40.053.312,48.438.312Zm0-3.471A10.269,10.269,0,0,1,37.791-13.65,10.269,10.269,0,0,1,48.438-24.141,10.25,10.25,0,0,1,59.007-13.65,10.25,10.25,0,0,1,48.438-3.159Zm47.5-20.748V-27.3H76.674V0h3.9V-11.037H94.263v-3.354H80.574v-9.516ZM114.855,0h3.861V-23.907h9.36V-27.3H105.495v3.393h9.36Zm59.826-27.3L167.154-4.992,159.627-27.3h-3.588L148.356-5.109,140.985-27.3h-4.017L146.094,0h4.173l7.449-21.8L165.165,0h4.1l9.126-27.3ZM210.483,0h4.1l-12.4-27.3h-3.861L185.952,0h4.017l3-6.825H207.48ZM194.337-9.945l5.889-13.377,5.889,13.377ZM248.937,0l-6.474-9.165a8.615,8.615,0,0,0,6.006-8.619c0-5.928-4.29-9.516-11.388-9.516H226.434V0h3.9V-8.307h6.747c.585,0,1.17-.039,1.716-.078L244.686,0ZM236.964-11.622h-6.63V-23.907h6.63c4.992,0,7.6,2.223,7.6,6.123S241.956-11.622,236.964-11.622Zm29.523,8.229v-8.814h13.689v-3.315H266.487v-8.385h15.366V-27.3H262.587V0H282.4V-3.393Zm70.4,1.326-3.666-3.666a17.957,17.957,0,0,0,2.379-6.24l-3-.975a17.189,17.189,0,0,1-1.677,4.953L324.168-14.7c4.173-2.379,5.811-4.368,5.811-7.137,0-3.549-2.652-5.694-6.786-5.694-4.485,0-7.371,2.457-7.371,6.123,0,2.028.819,3.783,3.276,6.24-4.719,2.691-6.63,5.031-6.63,8.385,0,4.173,4.017,7.1,9.555,7.1a12.757,12.757,0,0,0,9.126-3.51L334.776.429ZM323.193-24.8c2.34,0,3.627,1.209,3.627,3,0,1.716-1.17,2.964-4.758,4.992-2.223-2.262-2.769-3.276-2.769-4.68C319.293-23.439,320.736-24.8,323.193-24.8Zm-.936,22c-3.666,0-6.123-1.755-6.123-4.368,0-2.184,1.209-3.783,5.031-5.928l7.761,7.722A9.274,9.274,0,0,1,322.257-2.808ZM387.231-27.3v11.739H371.553V-27.3h-3.9V0h3.9V-12.168h15.678V0h3.9V-27.3ZM427.518,0h4.1l-12.4-27.3H415.35L402.987,0H407l3-6.825h14.508ZM411.372-9.945l5.889-13.377L423.15-9.945ZM465.972,0,459.5-9.165a8.615,8.615,0,0,0,6.006-8.619c0-5.928-4.29-9.516-11.388-9.516H443.469V0h3.9V-8.307h6.747c.585,0,1.17-.039,1.716-.078L461.721,0ZM454-11.622h-6.63V-23.907H454c4.992,0,7.605,2.223,7.605,6.123S458.991-11.622,454-11.622ZM479.622,0h11.505c8.775,0,14.742-5.538,14.742-13.65S499.9-27.3,491.127-27.3H479.622Zm3.9-3.393V-23.907h7.371c6.747,0,11.076,4.134,11.076,10.257S497.64-3.393,490.893-3.393ZM553.644-27.3,546.117-4.992,538.59-27.3H535L527.319-5.109,519.948-27.3h-4.017L525.057,0h4.173l7.449-21.8L544.128,0h4.095l9.126-27.3ZM589.446,0h4.095l-12.4-27.3h-3.861L564.915,0h4.017l3-6.825h14.508ZM573.3-9.945l5.889-13.377,5.889,13.377ZM627.9,0l-6.474-9.165a8.615,8.615,0,0,0,6.006-8.619c0-5.928-4.29-9.516-11.388-9.516H605.4V0h3.9V-8.307h6.747c.585,0,1.17-.039,1.716-.078L623.649,0ZM615.927-11.622H609.3V-23.907h6.63c4.992,0,7.6,2.223,7.6,6.123S620.919-11.622,615.927-11.622ZM645.45-3.393v-8.814h13.689v-3.315H645.45v-8.385h15.366V-27.3H641.55V0h19.812V-3.393Z" transform="translate(0 266.128)" fill="#172843"/>
    </g>
  </g>
</svg>
