<svg xmlns="http://www.w3.org/2000/svg" xmlns:xlink="http://www.w3.org/1999/xlink" width="1627" height="1169" viewBox="0 0 1627 1169">
  <defs>
    <clipPath id="clip-path">
      <rect x="90" width="1627" height="1169" fill="none"/>
    </clipPath>
    <clipPath id="clip-path-2">
      <rect id="Rectángulo_2" data-name="Rectángulo 2" width="1807" height="1169" fill="none"/>
    </clipPath>
    <linearGradient id="linear-gradient" x1="0.58" y1="0.111" x2="0.421" y2="0.887" gradientUnits="objectBoundingBox">
      <stop offset="0" stop-color="#89daf4"/>
      <stop offset="1" stop-color="#008dd7"/>
    </linearGradient>
    <linearGradient id="linear-gradient-2" y1="0.5" x2="1" y2="0.5" gradientUnits="objectBoundingBox">
      <stop offset="0" stop-color="#144188"/>
      <stop offset="0.997" stop-color="#1a7cde"/>
    </linearGradient>
    <linearGradient id="linear-gradient-3" y1="0.5" x2="1" y2="0.5" gradientUnits="objectBoundingBox">
      <stop offset="0" stop-color="#144188"/>
      <stop offset="0.998" stop-color="#102465"/>
    </linearGradient>
    <linearGradient id="linear-gradient-4" x1="0.647" y1="-0.012" x2="0.186" y2="0.855" gradientUnits="objectBoundingBox">
      <stop offset="0.037" stop-color="#93fffd" stop-opacity="0"/>
      <stop offset="0.135" stop-color="#95fefd" stop-opacity="0.071"/>
      <stop offset="0.332" stop-color="#9afdfd" stop-opacity="0.251"/>
      <stop offset="0.608" stop-color="#a3fcfe" stop-opacity="0.545"/>
      <stop offset="0.951" stop-color="#b0fbfe" stop-opacity="0.941"/>
      <stop offset="1" stop-color="#b2fbff"/>
    </linearGradient>
    <linearGradient id="linear-gradient-5" x1="0.476" y1="0.85" x2="0.524" y2="0.308" gradientUnits="objectBoundingBox">
      <stop offset="0" stop-color="#0091de"/>
      <stop offset="0.094" stop-color="#0091de" stop-opacity="0.965"/>
      <stop offset="0.242" stop-color="#0093df" stop-opacity="0.863"/>
      <stop offset="0.424" stop-color="#0095e1" stop-opacity="0.698"/>
      <stop offset="0.634" stop-color="#0098e3" stop-opacity="0.475"/>
      <stop offset="0.863" stop-color="#009de6" stop-opacity="0.184"/>
      <stop offset="1" stop-color="#00a0e8" stop-opacity="0"/>
    </linearGradient>
    <linearGradient id="linear-gradient-9" x1="0.986" y1="0.501" x2="-0.233" y2="0.499" xlink:href="#linear-gradient-2"/>
    <linearGradient id="linear-gradient-10" x1="1.343" y1="0.506" x2="0.34" y2="0.489" xlink:href="#linear-gradient-2"/>
    <linearGradient id="linear-gradient-17" x1="0.642" y1="0.005" x2="0.238" y2="1.418" gradientUnits="objectBoundingBox">
      <stop offset="0" stop-color="#cdeffb"/>
      <stop offset="1" stop-color="#89daf4"/>
    </linearGradient>
    <linearGradient id="linear-gradient-18" x1="0.493" y1="0.181" x2="0.467" y2="0.901" xlink:href="#linear-gradient-4"/>
    <linearGradient id="linear-gradient-22" x1="0.521" y1="0.177" x2="0.485" y2="0.729" gradientUnits="objectBoundingBox">
      <stop offset="0" stop-color="#0276ce" stop-opacity="0"/>
      <stop offset="0.061" stop-color="#0276ce" stop-opacity="0.165"/>
      <stop offset="0.154" stop-color="#0276ce" stop-opacity="0.384"/>
      <stop offset="0.251" stop-color="#0276ce" stop-opacity="0.573"/>
      <stop offset="0.351" stop-color="#0276ce" stop-opacity="0.729"/>
      <stop offset="0.453" stop-color="#0276ce" stop-opacity="0.847"/>
      <stop offset="0.561" stop-color="#0276ce" stop-opacity="0.933"/>
      <stop offset="0.676" stop-color="#0276ce" stop-opacity="0.984"/>
      <stop offset="0.812" stop-color="#0276ce"/>
    </linearGradient>
    <linearGradient id="linear-gradient-26" x1="0.521" y1="0.177" x2="0.485" y2="0.729" gradientUnits="objectBoundingBox">
      <stop offset="0" stop-color="#006ac6" stop-opacity="0"/>
      <stop offset="0.05" stop-color="#006ac6" stop-opacity="0.133"/>
      <stop offset="0.145" stop-color="#006ac6" stop-opacity="0.361"/>
      <stop offset="0.244" stop-color="#006bc6" stop-opacity="0.561"/>
      <stop offset="0.345" stop-color="#006bc6" stop-opacity="0.718"/>
      <stop offset="0.45" stop-color="#006bc6" stop-opacity="0.843"/>
      <stop offset="0.56" stop-color="#006bc6" stop-opacity="0.929"/>
      <stop offset="0.678" stop-color="#006bc6" stop-opacity="0.984"/>
      <stop offset="0.817" stop-color="#006cc7"/>
    </linearGradient>
    <linearGradient id="linear-gradient-31" x1="0.503" y1="0.08" x2="0.496" y2="0.805" xlink:href="#linear-gradient-4"/>
    <linearGradient id="linear-gradient-35" x1="0.498" y1="0.128" x2="0.484" y2="0.887" xlink:href="#linear-gradient-4"/>
    <linearGradient id="linear-gradient-39" x1="0.55" y1="-0.018" x2="0.435" y2="1.175" xlink:href="#linear-gradient-17"/>
    <linearGradient id="linear-gradient-40" x1="0" y1="0.5" x2="1" y2="0.5" xlink:href="#linear-gradient-17"/>
    <linearGradient id="linear-gradient-41" x1="0.66" y1="0.289" x2="0.276" y2="0.794" xlink:href="#linear-gradient-2"/>
    <linearGradient id="linear-gradient-42" x1="1.004" y1="0.352" x2="-0.907" y2="0.634" gradientUnits="objectBoundingBox">
      <stop offset="0.153" stop-color="#144188"/>
      <stop offset="0.997" stop-color="#1a7cde"/>
    </linearGradient>
    <linearGradient id="linear-gradient-47" x1="0.499" y1="0.097" x2="0.501" y2="0.818" xlink:href="#linear-gradient-4"/>
    <linearGradient id="linear-gradient-51" x1="0.58" y1="0.111" x2="0.421" y2="0.887" xlink:href="#linear-gradient"/>
    <linearGradient id="linear-gradient-54" x1="0.516" y1="0.177" x2="0.489" y2="0.729" gradientUnits="objectBoundingBox">
      <stop offset="0" stop-color="#0044ae" stop-opacity="0"/>
      <stop offset="0.004" stop-color="#0044ae" stop-opacity="0.012"/>
      <stop offset="0.104" stop-color="#0044ae" stop-opacity="0.271"/>
      <stop offset="0.208" stop-color="#0044ae" stop-opacity="0.494"/>
      <stop offset="0.316" stop-color="#0044ae" stop-opacity="0.678"/>
      <stop offset="0.426" stop-color="#0044ae" stop-opacity="0.82"/>
      <stop offset="0.542" stop-color="#0044ae" stop-opacity="0.922"/>
      <stop offset="0.666" stop-color="#0044ae" stop-opacity="0.98"/>
      <stop offset="0.812" stop-color="#0044ae"/>
    </linearGradient>
  </defs>
  <g id="Grupo_de_desplazamiento_1" data-name="Grupo de desplazamiento 1" transform="translate(-90)" clip-path="url(#clip-path)" style="isolation: isolate">
    <g id="OBJECTS">
      <g id="Grupo_113" data-name="Grupo 113">
        <g id="Grupo_112" data-name="Grupo 112" clip-path="url(#clip-path-2)">
          <g id="Grupo_67" data-name="Grupo 67" transform="translate(1538.117 143.81)">
            <g id="Grupo_66" data-name="Grupo 66">
              <g id="Grupo_60" data-name="Grupo 60" transform="translate(0 114.08)">
                <g id="Grupo_59" data-name="Grupo 59" style="isolation: isolate">
                  <g id="Grupo_58" data-name="Grupo 58">
                    <path id="Trazado_115" data-name="Trazado 115" d="M776.449,168.714l-63.814,35.942-64.092-35.941,64.092-35.942Z" transform="translate(-648.542 -132.773)" fill="url(#linear-gradient)"/>
                  </g>
                  <path id="Trazado_116" data-name="Trazado 116" d="M738.951,148.144v547.6l-63.814,35.942v-547.6Z" transform="translate(-611.045 -112.202)" fill="url(#linear-gradient-2)"/>
                  <path id="Trazado_117" data-name="Trazado 117" d="M712.635,184.085v547.6l-64.092-35.941v-547.6Z" transform="translate(-648.542 -112.202)" fill="url(#linear-gradient-3)"/>
                </g>
              </g>
              <path id="Trazado_118" data-name="Trazado 118" d="M675.137,188.226l63.814-35.942v-1.494l-63.814,35.942Z" transform="translate(-611.045 5.421)" fill="#ff65eb"/>
              <path id="Trazado_119" data-name="Trazado 119" d="M648.542,152.285l64.092,35.941v-1.494l-64.092-35.941Z" transform="translate(-648.542 5.421)" fill="#ff20ce"/>
              <path id="Trazado_120" data-name="Trazado 120" d="M650.784,83.984l21.867,150.022,36.764,20.617,36.605-20.617L767.887,83.984Z" transform="translate(-645.382 -83.984)" opacity="0.561" fill="url(#linear-gradient-4)" style="mix-blend-mode: overlay;isolation: isolate"/>
              <g id="Grupo_61" data-name="Grupo 61" transform="translate(27.268 129.405)">
                <path id="Trazado_121" data-name="Trazado 121" d="M733.227,159.943,696.622,180.56l-36.764-20.617,36.764-20.617Z" transform="translate(-659.857 -139.327)" fill="#a5ffff"/>
              </g>
              <g id="Grupo_65" data-name="Grupo 65" transform="translate(21.718 16.277)">
                <path id="Trazado_122" data-name="Trazado 122" d="M741.725,105.752c-.243.143-.489.283-.735.426q-.839.488-1.7.963c-.265.147-.53.295-.8.44-.651.353-1.313.7-1.981,1.048-.171.089-.337.178-.511.264-.836.428-1.689.846-2.55,1.258-.222.105-.446.206-.67.311q-.983.459-1.986.91l-.88.386q-.976.424-1.967.835c-.265.108-.528.22-.793.327-.916.369-1.839.734-2.774,1.085l-.3.11q-1.258.47-2.542.912c-.3.105-.6.206-.906.309q-1.023.347-2.063.676c-.306.1-.607.194-.913.288-1.08.334-2.164.657-3.265.963-.113.033-.227.061-.34.091q-1.5.414-3.029.788c-.3.075-.6.147-.9.22-1.075.257-2.157.505-3.246.734-.06.014-.121.028-.178.04-1.142.239-2.294.456-3.453.664l-.853.147c-1.321.224-2.646.437-3.986.62l-.311.04q-1.923.256-3.868.449c-.263.026-.523.054-.788.079-1.084.1-2.171.192-3.266.264l-.1,0q-1.591.1-3.193.157c-.386.014-.771.023-1.157.033-.627.016-1.253.03-1.882.037-.415,0-.829,0-1.244,0q-.929,0-1.858-.019c-.429-.007-.858-.014-1.289-.028-.54-.016-1.082-.037-1.622-.061-.451-.021-.9-.04-1.35-.065-.542-.03-1.089-.07-1.634-.108-.448-.033-.9-.065-1.35-.1-.542-.044-1.084-.1-1.629-.152-.448-.044-.894-.087-1.342-.138-.554-.061-1.109-.133-1.665-.2-.436-.056-.872-.11-1.309-.171-.656-.091-1.314-.2-1.969-.3-.364-.056-.726-.11-1.087-.171-.836-.143-1.673-.3-2.511-.463-.2-.04-.391-.07-.588-.11a22.122,22.122,0,0,1-3.81-12.173l-.031,9.989a22.125,22.125,0,0,0,3.812,12.173l.08.016c.169.033.34.061.508.094.839.164,1.675.32,2.511.463.362.063.725.115,1.087.171.656.105,1.314.21,1.969.3.1.014.193.033.289.044.34.047.68.084,1.022.126.554.07,1.108.143,1.663.206.448.049.894.091,1.343.136.542.054,1.087.108,1.629.154.145.012.292.028.436.04.306.026.61.04.913.061.545.04,1.089.077,1.634.108.451.026.9.047,1.35.065.54.023,1.082.044,1.622.061.193.007.388.019.583.023.236,0,.47,0,.706.007q.929.018,1.856.016c.417,0,.831,0,1.246,0q.943-.011,1.882-.037c.27-.007.54,0,.807-.014.118,0,.231-.014.349-.019q1.612-.056,3.213-.157l.077,0c1.1-.07,2.186-.161,3.273-.264l.316-.026c.157-.014.308-.037.463-.054q1.949-.2,3.873-.449l.311-.04c1.34-.182,2.665-.393,3.986-.62.147-.026.294-.042.441-.068s.275-.054.412-.079q1.739-.309,3.451-.664c.06-.012.12-.026.181-.04,1.089-.229,2.171-.477,3.246-.734.3-.07.6-.145.9-.217q1.525-.379,3.025-.788c.116-.033.231-.061.347-.094,1.1-.306,2.183-.629,3.263-.961.116-.037.234-.068.352-.105.188-.058.371-.124.559-.182.694-.22,1.381-.447,2.066-.678.3-.1.6-.2.906-.306q1.28-.445,2.538-.912l.309-.112c.935-.351,1.858-.715,2.774-1.085.265-.108.528-.217.793-.327q.991-.41,1.967-.835c.294-.126.588-.255.88-.386.67-.3,1.33-.6,1.986-.91.222-.1.448-.206.667-.311.863-.412,1.714-.828,2.552-1.256.173-.089.342-.18.513-.269q1-.516,1.979-1.045c.267-.145.533-.292.8-.44.574-.316,1.138-.638,1.7-.961.159-.094.323-.182.48-.274.087-.051.169-.1.255-.154.79-.468,1.571-.94,2.335-1.419l.029-9.989C743.3,104.812,742.515,105.285,741.725,105.752Z" transform="translate(-657.554 -73.028)" fill="#102465"/>
                <g id="Grupo_62" data-name="Grupo 62" transform="translate(0.03)">
                  <path id="Trazado_123" data-name="Trazado 123" d="M744.042,122.25c-20.61,12.966-51.6,21.463-82.664,15.206-11.24-17.443,3.779-34.885,26.784-46.51l35.422,11.436Z" transform="translate(-657.567 -90.945)" fill="#00edf9"/>
                </g>
                <g id="Grupo_63" data-name="Grupo 63" transform="translate(5.065 3.505)">
                  <path id="Trazado_124" data-name="Trazado 124" d="M734.857,119.846a109.777,109.777,0,0,1-32.944,12.547,104.036,104.036,0,0,1-39.507.814c-4.063-7.178-3.625-14.642,1.318-22.206,4.343-6.641,11.987-13.022,22.22-18.556l31,10.012Z" transform="translate(-659.656 -92.444)" fill="#1a6cbe"/>
                </g>
                <g id="Grupo_64" data-name="Grupo 64" transform="translate(24.562 20.396)">
                  <path id="Trazado_125" data-name="Trazado 125" d="M698.674,106.817l.021,4.258H667.812l-.066-11.406h7.572l.045,7.149Z" transform="translate(-667.746 -99.668)" fill="#fdf7fb"/>
                </g>
              </g>
            </g>
            <path id="Trazado_126" data-name="Trazado 126" d="M751.249,219.813l19.8-135.829h-117.1L673.75,219.87l-25.208,14.136v547.6l64.092,35.941,63.814-35.942v-547.6Z" transform="translate(-648.542 -83.984)" fill="url(#linear-gradient-5)"/>
          </g>
          <g id="Grupo_74" data-name="Grupo 74" transform="translate(1572.219 50.768)">
            <g id="Grupo_70" data-name="Grupo 70" transform="translate(0 321.495)">
              <g id="Grupo_69" data-name="Grupo 69" style="isolation: isolate">
                <g id="Grupo_68" data-name="Grupo 68">
                  <path id="Trazado_127" data-name="Trazado 127" d="M1190.717,304.632,927.279,453.008,662.693,304.634,927.279,156.258Z" transform="translate(-662.693 -156.258)" fill="url(#linear-gradient)"/>
                </g>
                <path id="Trazado_128" data-name="Trazado 128" d="M1035.919,219.713V914.776L772.481,1063.152V368.089Z" transform="translate(-507.895 -71.339)" fill="url(#linear-gradient-2)"/>
                <path id="Trazado_129" data-name="Trazado 129" d="M927.279,368.087v695.063L662.693,914.777V219.714Z" transform="translate(-662.693 -71.338)" fill="url(#linear-gradient-3)"/>
              </g>
            </g>
            <path id="Trazado_130" data-name="Trazado 130" d="M772.481,382.844l263.438-148.376V230.64L772.481,379.015Z" transform="translate(-507.894 264.779)" fill="#ff65eb"/>
            <path id="Trazado_131" data-name="Trazado 131" d="M662.693,234.469,927.279,382.843v-3.829L662.693,230.641Z" transform="translate(-662.693 264.78)" fill="#ff20ce"/>
            <g id="Grupo_71" data-name="Grupo 71" transform="translate(57.664 574.274)">
              <path id="Trazado_132" data-name="Trazado 132" d="M720.524,283.377l-33.9-19.013v361.8l33.9,19.013Z" transform="translate(-686.62 -264.364)" fill="url(#linear-gradient-9)"/>
              <path id="Trazado_133" data-name="Trazado 133" d="M686.62,429.977l33.9,19.013V410.964Z" transform="translate(-686.62 -68.175)" fill="url(#linear-gradient-10)"/>
            </g>
            <g id="Grupo_72" data-name="Grupo 72" transform="translate(115.844 606.5)">
              <path id="Trazado_134" data-name="Trazado 134" d="M744.665,297.159l-33.9-19.013v361.8l33.9,19.013Z" transform="translate(-710.761 -278.146)" fill="url(#linear-gradient-9)"/>
              <path id="Trazado_135" data-name="Trazado 135" d="M710.761,443.759l33.9,19.013V424.746Z" transform="translate(-710.761 -81.957)" fill="url(#linear-gradient-10)"/>
            </g>
            <path id="Trazado_136" data-name="Trazado 136" d="M696.2,18.766l68.44,469.548,115.068,64.527,114.569-64.528,68.44-469.548Z" transform="translate(-615.447 -18.765)" opacity="0.561" fill="url(#linear-gradient-4)" style="mix-blend-mode: overlay;isolation: isolate"/>
            <g id="Grupo_73" data-name="Grupo 73" transform="translate(149.194 405.021)">
              <path id="Trazado_137" data-name="Trazado 137" d="M954.236,256.507,839.668,321.035,724.6,256.508l115.068-64.529Z" transform="translate(-724.6 -191.979)" fill="#a5ffff"/>
            </g>
          </g>
          <g id="Grupo_91" data-name="Grupo 91" transform="translate(1184.078 617.013)">
            <g id="Grupo_78" data-name="Grupo 78" transform="translate(0 168.458)">
              <g id="Grupo_77" data-name="Grupo 77">
                <g id="Grupo_76" data-name="Grupo 76" style="isolation: isolate">
                  <g id="Grupo_75" data-name="Grupo 75">
                    <path id="Trazado_138" data-name="Trazado 138" d="M1035.81,484.295,772.372,632.671,507.786,484.3,772.372,335.921Z" transform="translate(-507.786 -335.921)" fill="url(#linear-gradient)"/>
                  </g>
                  <path id="Trazado_139" data-name="Trazado 139" d="M881.012,399.376V766.324L617.574,914.7V547.752Z" transform="translate(-352.988 -251.002)" fill="url(#linear-gradient-2)"/>
                  <path id="Trazado_140" data-name="Trazado 140" d="M772.372,547.75V914.7L507.786,766.325V399.377Z" transform="translate(-507.786 -251.001)" fill="url(#linear-gradient-3)"/>
                </g>
              </g>
              <path id="Trazado_141" data-name="Trazado 141" d="M617.574,562.508,881.012,414.131V410.3L617.574,558.678Z" transform="translate(-352.988 -236.379)" fill="#ff65eb"/>
              <path id="Trazado_142" data-name="Trazado 142" d="M507.786,414.133,772.372,562.506v-3.829L507.786,410.3Z" transform="translate(-507.786 -236.378)" fill="#ff20ce"/>
            </g>
            <g id="Grupo_83" data-name="Grupo 83" transform="translate(119.241 225.315)">
              <g id="Grupo_82" data-name="Grupo 82" style="isolation: isolate">
                <path id="Trazado_143" data-name="Trazado 143" d="M830.187,383.122c-.019.194-.031.39-.07.585-.029.157-.077.313-.12.47-.051.185-.1.369-.164.554-.055.15-.128.3-.193.447-.087.194-.174.388-.279.578-.077.138-.169.274-.256.409-.137.217-.284.433-.448.645-.1.126-.2.248-.306.372a10.608,10.608,0,0,1-.807.842c-.1.1-.2.2-.313.3-.181.159-.383.311-.581.465-.176.138-.345.276-.535.409-.212.152-.446.295-.677.44s-.468.306-.725.454l-160.8,90.666c-7.4,4.171-19.453,4.171-26.9,0l-74.1-41.509c-3.748-2.1-5.618-4.859-5.61-7.613l-.029,9.531c-.007,2.755,1.865,5.514,5.613,7.611l74.1,41.511c7.447,4.171,19.5,4.171,26.9,0l160.8-90.666c.077-.044.157-.089.231-.133.176-.1.328-.215.494-.32.231-.145.465-.29.68-.44.188-.133.359-.274.535-.409.2-.154.4-.306.581-.465.036-.033.079-.063.115-.094.075-.068.125-.14.2-.206a10.964,10.964,0,0,0,.8-.842c.053-.061.125-.119.176-.182s.084-.129.132-.189c.164-.213.308-.428.446-.643.058-.091.135-.18.188-.271.026-.047.043-.1.068-.143.106-.19.193-.381.277-.573.051-.112.118-.222.161-.334.017-.037.022-.077.036-.117.065-.182.113-.367.161-.552.034-.124.084-.246.111-.372.007-.033,0-.065.012-.1.036-.194.051-.388.07-.582.01-.126.038-.25.043-.376,0-.054,0-.11,0-.164l.029-9.528C830.233,382.762,830.2,382.942,830.187,383.122Z" transform="translate(-557.264 -330.331)" fill="#162a56"/>
                <g id="Grupo_79" data-name="Grupo 79" transform="translate(0.029)">
                  <path id="Trazado_144" data-name="Trazado 144" d="M824.605,404.877c7.447,4.171,7.488,10.948.089,15.119l-160.8,90.666c-7.4,4.171-19.453,4.171-26.9,0l-74.1-41.509c-7.447-4.172-7.485-10.948-.087-15.119l160.8-90.668c7.4-4.172,19.456-4.172,26.9,0ZM660.028,508.5l160.8-90.666c5.276-2.974,5.247-7.819-.063-10.793l-6.678-3.739-10.074.267L752.9,374.933l.444-5.661-6.678-3.741c-5.309-2.974-13.93-2.974-19.2,0L566.661,456.2c-5.273,2.974-5.244,7.819.063,10.791l74.1,41.511c5.307,2.974,13.927,2.974,19.2,0" transform="translate(-557.276 -360.237)" fill="url(#linear-gradient-17)"/>
                </g>
                <g id="Grupo_80" data-name="Grupo 80" transform="translate(5.477 3.063)">
                  <path id="Trazado_145" data-name="Trazado 145" d="M817.581,405.286c5.309,2.974,5.338,7.819.063,10.793l-160.8,90.666c-5.273,2.974-13.893,2.974-19.2,0l-74.1-41.511c-5.307-2.972-5.336-7.817-.063-10.791l160.8-90.666c5.273-2.974,13.894-2.974,19.2,0l6.678,3.741-.444,5.661,51.116,28.634,10.074-.267Z" transform="translate(-559.537 -361.547)" fill="#165da4"/>
                </g>
                <g id="Grupo_81" data-name="Grupo 81" transform="translate(5.477 3.063)">
                  <path id="Trazado_146" data-name="Trazado 146" d="M817.581,405.286c5.309,2.974,5.338,7.819.063,10.793l-160.8,90.666c-5.273,2.974-13.893,2.974-19.2,0l-74.1-41.511c-5.307-2.972-5.336-7.817-.063-10.791l160.8-90.666c5.273-2.974,13.894-2.974,19.2,0l6.678,3.741-.444,5.661,51.116,28.634,10.074-.267Z" transform="translate(-559.537 -361.547)" fill="#165da4"/>
                </g>
              </g>
            </g>
            <g id="Grupo_87" data-name="Grupo 87" transform="translate(140.055 121.22)">
              <g id="Grupo_84" data-name="Grupo 84" transform="translate(0 136.004)" opacity="0.3" style="mix-blend-mode: multiply;isolation: isolate">
                <path id="Trazado_147" data-name="Trazado 147" d="M606.411,377.8c9.3,5.212,9.353,13.644.109,18.856-9.286,5.235-24.288,5.235-33.593.023s-9.394-13.667-.111-18.9C582.06,372.569,597.106,372.592,606.411,377.8Z" transform="translate(-565.901 -373.883)" fill="#1a9bdb"/>
              </g>
              <g id="Grupo_86" data-name="Grupo 86" transform="translate(1.739)">
                <g id="Grupo_85" data-name="Grupo 85">
                  <path id="Trazado_148" data-name="Trazado 148" d="M571.109,377.275s-1.342.161-1.593.664a34.524,34.524,0,0,0-.361,5.39,34.343,34.343,0,0,0,6.837,5.013c3.3,1.646,6.16,2.362,7.435,1.279s.489-2.327-2.232-4.468-5.34-7.882-5.343-7.878Z" transform="translate(-563.055 -233.341)" fill="#103450"/>
                  <path id="Trazado_149" data-name="Trazado 149" d="M578.318,374.375s-1.34.164-1.59.664a34.791,34.791,0,0,0-.364,5.39,34.34,34.34,0,0,0,6.837,5.013c3.3,1.646,6.16,2.362,7.437,1.281s.487-2.327-2.232-4.471-5.343-7.882-5.343-7.878Z" transform="translate(-552.891 -237.222)" fill="#103450"/>
                  <path id="Trazado_150" data-name="Trazado 150" d="M582.194,367.327s-.1,1.712-.169,2.037-1.581,2.5-1.612,3.215a1.894,1.894,0,0,0,.771,1.314,9.7,9.7,0,0,0,.19,1.922c.162.323,1.67.117,1.836.2s1.133.678,1.774.416a24.354,24.354,0,0,0,2.649-1.027c.224-.22.4-5.549-.412-9.615-.27-1.366-1.521-32.93-2.273-32.694C583.462,333.562,582.194,367.327,582.194,367.327Z" transform="translate(-547.177 -292.467)" fill="#ffc6a0"/>
                  <path id="Trazado_151" data-name="Trazado 151" d="M588.383,345.39c-.668-3.124-1.487-6.746-2.191-9.245-1.482-5.259-2.557-9.341-5.721-9.43l-1.08,17.834s.338,2.691.921,5.74A59.144,59.144,0,0,0,588.383,345.39Z" transform="translate(-548.618 -301.004)" fill="#fff"/>
                  <path id="Trazado_152" data-name="Trazado 152" d="M569.267,351.777l-.246,67.169a8.729,8.729,0,0,0,8.271-.175s7.835-58.024,7.967-59.4c.123-1.27,1.106,52.976,1.106,52.976s4.856,2.7,8.553-.968l4.36-64.262Z" transform="translate(-563.24 -273.707)" fill="#103450"/>
                  <path id="Trazado_153" data-name="Trazado 153" d="M577.687,329.128a38.786,38.786,0,0,0-9.748,5.49l2.853,44.7s5.96,4.23,18.14,1.139c9.924-2.521,12.532-6.575,12.532-6.575s.906-21.966-.027-31.256a40.6,40.6,0,0,0-4.82-15.669c-2.164-.638-6.941-.369-6.941-.369Z" transform="translate(-564.765 -301.248)" fill="#fff"/>
                  <path id="Trazado_154" data-name="Trazado 154" d="M586.131,316.355a13.291,13.291,0,0,0-6.213-.493c-4.352.449-8.013,2.5-8.744,7.029-.549,3.409.764,6.9,2.155,9.97,1.844,4.076,3.123,2.6,3.123,2.6l10.669-4.174a12.1,12.1,0,0,0,3.282-1.366c1.3-1.108.877-3,1.114-4.489.318-1.985.634-3.666-.494-5.516a8.474,8.474,0,0,0-3.984-3.2C586.729,316.575,586.428,316.458,586.131,316.355Z" transform="translate(-560.383 -315.719)" fill="#103450"/>
                  <path id="Trazado_155" data-name="Trazado 155" d="M574.129,338.909l-.275-8.951a2.113,2.113,0,0,1-1.923-2.638c.4-2.465,2.776-.844,3.2-.119,0,0,.535-8.49,5.172-9.306s9.131.15,9.25,2.341.268,9.846,0,12.692-2.564,4.01-6.8,3.9l.289,4.6s-2.123,1.513-8.057.108Z" transform="translate(-559.201 -313.191)" fill="#ffc6a0"/>
                  <path id="Trazado_156" data-name="Trazado 156" d="M582.667,326.232a3.277,3.277,0,0,1,1.128.161,5.456,5.456,0,0,1,2.053,3.634,12.63,12.63,0,0,1-.716,3.891l-3.844-3.36-2.415,4.527a9.977,9.977,0,0,1-3.576-1.8,13.172,13.172,0,0,1-3.314-3.758c.665-1.637,1.116-2.612,1.116-2.612.157-.374.889-.549.889-.549s4.09,3.6,7.3,3.776C581.289,330.144,582.434,329.627,582.667,326.232Z" transform="translate(-559.062 -301.65)" fill="#fff"/>
                  <path id="Trazado_157" data-name="Trazado 157" d="M572.178,369.35s.456,1.656.591,1.96,2.065,2.137,2.246,2.834a1.868,1.868,0,0,1-.482,1.44,9.639,9.639,0,0,1,.212,1.917c-.089.348-1.61.442-1.754.554s-.969.886-1.651.755a24.233,24.233,0,0,1-2.81-.486c-.265-.171-1.542-5.357-1.6-9.5-.019-1.555.533-32.565.533-32.565.443.1,6.97,2.53,6.97,2.53Z" transform="translate(-566.182 -288.228)" fill="#ffc6a0"/>
                  <path id="Trazado_158" data-name="Trazado 158" d="M575.267,349.791c.087-3.928.248-8.2.2-9.234-.178-3.514-.174-13.405-5.668-10.209-2.217,1.291-2.716,10.875-3.174,17.336C569.112,349.345,573.013,349.791,575.267,349.791Z" transform="translate(-566.622 -296.979)" fill="#fff"/>
                </g>
              </g>
              <path id="Trazado_159" data-name="Trazado 159" d="M586.752,322.855a3.09,3.09,0,0,0-.251-3.138,6.138,6.138,0,0,0-2.6-2.062c-2.535-1.19-9.635-2.49-9.833,1.784-.1,2.133,1.8,5.675,4.425,5.233,1.126-.192,1.791-1.214,3.029-.874.622.171,2.3,1.7,2.376.065A2.344,2.344,0,0,0,586.752,322.855Z" transform="translate(-554.39 -314.682)" fill="#103450"/>
              <path id="Trazado_160" data-name="Trazado 160" d="M572.659,325.446a6.49,6.49,0,0,1,2.369,4.256l.882.021c-.043-1.134.043-2.142,0-3.276a7.665,7.665,0,0,0,1.88-6.711c-.214-.963-.807-2.03-1.819-2.116s-1.8.87-2.229,1.772A11,11,0,0,0,572.659,325.446Z" transform="translate(-556.475 -313.182)" fill="#103450"/>
            </g>
            <path id="Trazado_161" data-name="Trazado 161" d="M539.709,263.877c.723,43.466,47.872,327.569,47.872,327.569l.067-.014c.349,1.648,1.593,3.25,3.844,4.51l74.1,41.511c5.309,2.974,13.927,2.974,19.2,0l160.8-90.666c2.612-1.475,3.916-3.407,3.928-5.343l0,0S876.817,367.2,890.127,263.877Z" transform="translate(-462.775 -263.877)" opacity="0.561" fill="url(#linear-gradient-18)" style="mix-blend-mode: overlay;isolation: isolate"/>
            <g id="Grupo_90" data-name="Grupo 90" transform="translate(234.252 110.509)">
              <g id="Grupo_89" data-name="Grupo 89" style="isolation: isolate">
                <g id="Grupo_88" data-name="Grupo 88">
                  <path id="Trazado_162" data-name="Trazado 162" d="M668.574,486.458c-1.046.587-1.882.122-1.887-1.041a3.968,3.968,0,0,1,1.873-3.15l9.189-5.147c1.044-.585,1.882-.122,1.885,1.043a3.958,3.958,0,0,1-1.873,3.147l-9.187,5.147m-46.267,17.083c-1.044.585-1.882.122-1.887-1.043a3.96,3.96,0,0,1,1.875-3.122l15.313-8.579c1.019-.571,1.858-.108,1.86,1.031a3.952,3.952,0,0,1-1.848,3.133l-15.313,8.579m-.027-8.794c-1.044.585-1.882.119-1.885-1.043a3.965,3.965,0,0,1,1.873-3.15l36.819-20.626c1.022-.571,1.861-.108,1.863,1.057a3.955,3.955,0,0,1-1.848,3.136l-36.822,20.626m44.107-24.708c-1.046.585-1.882.122-1.887-1.043a3.961,3.961,0,0,1,1.875-3.147l11.32-6.341c1.046-.585,1.882-.122,1.887,1.043a3.967,3.967,0,0,1-1.872,3.147l-11.322,6.341m20.745,6.023-.089-30.549,22.181-12.426.089,30.549-22.182,12.426m-64.879,9.863c-1.044.585-1.88.122-1.885-1.017a3.968,3.968,0,0,1,1.873-3.147l11.324-6.341c1.044-.585,1.882-.122,1.885,1.043a3.961,3.961,0,0,1-1.872,3.122l-11.325,6.341m18.61-10.424c-1.046.587-1.882.122-1.887-1.015a3.968,3.968,0,0,1,1.873-3.15l36.822-20.626c1.044-.585,1.882-.119,1.885,1.043a3.959,3.959,0,0,1-1.873,3.124L640.864,475.5m-18.661-7.19c-1.044.585-1.882.122-1.885-1.017a3.958,3.958,0,0,1,1.872-3.147l17.564-9.839c1.043-.585,1.882-.122,1.884,1.043a3.952,3.952,0,0,1-1.872,3.122L622.2,468.311m-.026-8.8c-1.044.587-1.88.122-1.885-1.041a3.965,3.965,0,0,1,1.872-3.124L690.8,416.906c1.043-.585,1.882-.122,1.884,1.017a3.964,3.964,0,0,1-1.872,3.147l-68.631,38.443m75.917-42.524c-1.022.571-1.882.122-1.887-1.043a3.994,3.994,0,0,1,1.875-3.122l9.187-5.147c1.044-.585,1.882-.122,1.885,1.017a3.961,3.961,0,0,1-1.873,3.147l-9.187,5.146M622.153,450.72c-1.044.585-1.882.1-1.887-1.043a3.964,3.964,0,0,1,1.875-3.147L675.922,416.4c1.044-.585,1.882-.122,1.885,1.043a4,4,0,0,1-1.872,3.147L622.153,450.72m61.97-34.714c-1.019.573-1.858.082-1.863-1.055a3.958,3.958,0,0,1,1.851-3.136l23.131-12.959c1.046-.585,1.882-.119,1.887,1.043a4.007,4.007,0,0,1-1.875,3.15l-23.131,12.956m-62,25.894c-1.043.585-1.882.122-1.884-1.043a3.951,3.951,0,0,1,1.872-3.122l85.1-47.672c1.044-.585,1.882-.122,1.885,1.017a3.964,3.964,0,0,1-1.873,3.147l-85.1,47.672m-1.152-12.8-.133-45.318,88.094-49.349.133,45.32L620.975,429.1m98.4-117.25-109.071,61.1a11.313,11.313,0,0,0-5.319,8.939l.434,148.215c.01,3.285,2.405,4.611,5.353,2.96l109.071-61.1a11.319,11.319,0,0,0,5.319-8.939l-.434-148.215c-.01-3.285-2.408-4.611-5.352-2.96" transform="translate(-604.987 -311.138)" fill="#00edf9" opacity="0.6"/>
                  <path id="Trazado_163" data-name="Trazado 163" d="M699.661,321.1l-88.1,49.348.133,45.319,88.1-49.348-.132-45.318" transform="translate(-595.711 -297.807)" fill="#a5ffff"/>
                  <path id="Trazado_164" data-name="Trazado 164" d="M698.293,345.037l-85.1,47.672a3.951,3.951,0,0,0-1.873,3.122c0,1.165.841,1.628,1.885,1.043l85.1-47.672a3.964,3.964,0,0,0,1.873-3.147c0-1.139-.841-1.6-1.885-1.017" transform="translate(-596.062 -266.112)" fill="#a5ffff"/>
                  <path id="Trazado_165" data-name="Trazado 165" d="M666.983,356.3,613.2,386.428a3.964,3.964,0,0,0-1.875,3.147c0,1.139.843,1.628,1.887,1.043L667,360.492a4,4,0,0,0,1.872-3.147c0-1.164-.841-1.627-1.885-1.043" transform="translate(-596.048 -251.036)" fill="#a5ffff"/>
                  <path id="Trazado_166" data-name="Trazado 166" d="M662.033,348.8,638.9,361.756a3.958,3.958,0,0,0-1.851,3.136c0,1.136.843,1.627,1.863,1.055l23.131-12.956a4.007,4.007,0,0,0,1.875-3.15c0-1.162-.841-1.627-1.887-1.043" transform="translate(-559.777 -261.078)" fill="#a5ffff"/>
                  <path id="Trazado_167" data-name="Trazado 167" d="M681.842,356.517,613.21,394.96a3.965,3.965,0,0,0-1.872,3.124c0,1.162.841,1.628,1.885,1.041l68.631-38.443a3.964,3.964,0,0,0,1.872-3.147c0-1.139-.841-1.6-1.884-1.017" transform="translate(-596.032 -250.749)" fill="#a5ffff"/>
                  <path id="Trazado_168" data-name="Trazado 168" d="M653.9,352.571l-9.187,5.147a3.994,3.994,0,0,0-1.875,3.122c0,1.164.865,1.613,1.887,1.043l9.187-5.146a3.961,3.961,0,0,0,1.873-3.147c0-1.139-.841-1.6-1.885-1.017" transform="translate(-551.618 -256.03)" fill="#a5ffff"/>
                  <path id="Trazado_169" data-name="Trazado 169" d="M630.786,372.512l-17.564,9.839a3.958,3.958,0,0,0-1.872,3.147c0,1.139.841,1.6,1.885,1.017l17.564-9.839a3.952,3.952,0,0,0,1.872-3.122c0-1.164-.841-1.627-1.884-1.043" transform="translate(-596.017 -229.343)" fill="#a5ffff"/>
                  <path id="Trazado_170" data-name="Trazado 170" d="M642.877,374.736l-11.32,6.341a3.961,3.961,0,0,0-1.875,3.147c0,1.164.841,1.627,1.887,1.043l11.322-6.341a3.967,3.967,0,0,0,1.872-3.147c0-1.164-.841-1.627-1.887-1.043" transform="translate(-570.168 -226.367)" fill="#a5ffff"/>
                  <path id="Trazado_171" data-name="Trazado 171" d="M650.073,379.188l-36.819,20.626a3.965,3.965,0,0,0-1.873,3.15c0,1.162.841,1.627,1.885,1.043l36.822-20.626a3.955,3.955,0,0,0,1.848-3.136c0-1.164-.841-1.627-1.863-1.057" transform="translate(-595.972 -220.397)" fill="#a5ffff"/>
                  <path id="Trazado_172" data-name="Trazado 172" d="M641.651,382.269l-9.189,5.147a3.969,3.969,0,0,0-1.873,3.15c.005,1.162.841,1.627,1.887,1.041l9.187-5.147a3.958,3.958,0,0,0,1.873-3.147c0-1.165-.841-1.627-1.885-1.043" transform="translate(-568.889 -216.286)" fill="#a5ffff"/>
                  <path id="Trazado_173" data-name="Trazado 173" d="M628.579,388.113l-15.313,8.579a3.96,3.96,0,0,0-1.875,3.122c0,1.164.844,1.627,1.887,1.043l15.313-8.579a3.952,3.952,0,0,0,1.849-3.133c0-1.139-.841-1.6-1.86-1.031" transform="translate(-595.958 -208.453)" fill="#a5ffff"/>
                  <path id="Trazado_174" data-name="Trazado 174" d="M624.567,381.541l-11.324,6.341a3.968,3.968,0,0,0-1.873,3.147c0,1.139.841,1.6,1.885,1.017l11.325-6.341a3.961,3.961,0,0,0,1.872-3.122c0-1.164-.841-1.628-1.885-1.043" transform="translate(-595.987 -217.26)" fill="#a5ffff"/>
                  <path id="Trazado_175" data-name="Trazado 175" d="M657.786,370.973,620.964,391.6a3.968,3.968,0,0,0-1.873,3.15c0,1.136.841,1.6,1.887,1.015L657.8,375.14a3.959,3.959,0,0,0,1.873-3.124c0-1.162-.841-1.627-1.885-1.043" transform="translate(-585.101 -231.401)" fill="#a5ffff"/>
                  <path id="Trazado_176" data-name="Trazado 176" d="M661.217,363.292l-22.18,12.425.089,30.549,22.18-12.425-.089-30.549" transform="translate(-556.978 -241.343)" fill="#a5ffff"/>
                </g>
              </g>
            </g>
          </g>
          <g id="Grupo_40117" data-name="Grupo 40117" transform="translate(61.815 293.37)">
            <g id="Grupo_4" data-name="Grupo 4" transform="translate(110.368 301.772)">
              <g id="Grupo_3" data-name="Grupo 3">
                <g id="Grupo_2" data-name="Grupo 2" style="isolation: isolate">
                  <g id="Grupo_1" data-name="Grupo 1">
                    <path id="Trazado_1" data-name="Trazado 1" d="M284.173,176.431l-33.109,18.648-33.253-18.648,33.253-18.648Z" transform="translate(-217.811 -157.784)" fill="url(#linear-gradient)"/>
                  </g>
                  <path id="Trazado_2" data-name="Trazado 2" d="M264.718,165.759V795.5l-33.109,18.648V184.407Z" transform="translate(-198.356 -147.111)" fill="url(#linear-gradient-2)"/>
                  <path id="Trazado_3" data-name="Trazado 3" d="M251.064,184.407V814.149L217.811,795.5V165.759Z" transform="translate(-217.811 -147.111)" fill="url(#linear-gradient-3)"/>
                </g>
              </g>
              <path id="Trazado_4" data-name="Trazado 4" d="M251.064,157.784l-33.253,18.648V806.174l33.253,18.647,33.109-18.648V176.431Z" transform="translate(-217.811 -157.784)" fill="url(#linear-gradient-22)"/>
            </g>
            <g id="Grupo_8" data-name="Grupo 8" transform="translate(78.213 436.533)">
              <g id="Grupo_7" data-name="Grupo 7">
                <g id="Grupo_6" data-name="Grupo 6" style="isolation: isolate">
                  <g id="Grupo_5" data-name="Grupo 5">
                    <path id="Trazado_5" data-name="Trazado 5" d="M248.86,227.891l-22.147,12.474-22.244-12.474,22.244-12.474Z" transform="translate(-204.469 -215.417)" fill="url(#linear-gradient)"/>
                  </g>
                  <path id="Trazado_6" data-name="Trazado 6" d="M235.846,220.752V642.008L213.7,654.482V233.226Z" transform="translate(-191.455 -208.278)" fill="url(#linear-gradient-2)"/>
                  <path id="Trazado_7" data-name="Trazado 7" d="M226.713,233.226V654.482l-22.244-12.474V220.752Z" transform="translate(-204.469 -208.278)" fill="url(#linear-gradient-3)"/>
                </g>
              </g>
              <path id="Trazado_8" data-name="Trazado 8" d="M226.713,215.417l-22.244,12.474V649.148l22.244,12.474,22.148-12.474V227.891Z" transform="translate(-204.469 -215.417)" fill="url(#linear-gradient-26)"/>
            </g>
            <g id="Grupo_16" data-name="Grupo 16" transform="translate(201.304 417.362)">
              <g id="Grupo_15" data-name="Grupo 15">
                <g id="Grupo_14" data-name="Grupo 14" style="isolation: isolate">
                  <g id="Grupo_13" data-name="Grupo 13">
                    <path id="Trazado_13" data-name="Trazado 13" d="M297.211,218.926l-20.788,11.708-20.879-11.708,20.879-11.708Z" transform="translate(-255.544 -207.218)" fill="url(#linear-gradient)"/>
                  </g>
                  <path id="Trazado_14" data-name="Trazado 14" d="M285,212.225v395.4L264.208,619.33v-395.4Z" transform="translate(-243.329 -200.517)" fill="url(#linear-gradient-2)"/>
                  <path id="Trazado_15" data-name="Trazado 15" d="M276.423,223.934v395.4l-20.879-11.708v-395.4Z" transform="translate(-255.544 -200.517)" fill="url(#linear-gradient-3)"/>
                </g>
              </g>
              <path id="Trazado_16" data-name="Trazado 16" d="M276.423,207.218l-20.878,11.708v395.4l20.878,11.708,20.788-11.708v-395.4Z" transform="translate(-255.544 -207.218)" fill="url(#linear-gradient-22)"/>
            </g>
            <g id="Grupo_47" data-name="Grupo 47" transform="translate(252.955)">
              <g id="Grupo_20" data-name="Grupo 20" transform="translate(0 30.276)">
                <path id="Trazado_17" data-name="Trazado 17" d="M276.976,41.678V966.766l435.6,244.274,433.709-244.277V41.674Z" transform="translate(-276.976 -41.674)" opacity="0.561" fill="url(#linear-gradient-31)" style="mix-blend-mode: overlay;isolation: isolate"/>
                <g id="Grupo_19" data-name="Grupo 19" transform="translate(0 276.658)">
                  <g id="Grupo_18" data-name="Grupo 18" style="isolation: isolate">
                    <g id="Grupo_17" data-name="Grupo 17">
                      <path id="Trazado_18" data-name="Trazado 18" d="M1146.284,404.265,712.575,648.542l-435.6-244.273,435.6-244.277Z" transform="translate(-276.976 -159.992)" fill="url(#linear-gradient)"/>
                    </g>
                    <path id="Trazado_19" data-name="Trazado 19" d="M891.433,264.46V876.065L457.724,1120.342V508.737Z" transform="translate(-22.126 -20.186)" fill="url(#linear-gradient-2)"/>
                    <path id="Trazado_20" data-name="Trazado 20" d="M712.575,508.735V1120.34l-435.6-244.273V264.461Z" transform="translate(-276.976 -20.184)" fill="url(#linear-gradient-3)"/>
                  </g>
                </g>
                <path id="Trazado_21" data-name="Trazado 21" d="M457.724,530.9,891.433,286.623v-4.175L457.724,526.726Z" transform="translate(-22.125 280.546)" fill="#ff65eb"/>
                <path id="Trazado_22" data-name="Trazado 22" d="M276.976,286.625,712.575,530.9v-4.175L276.976,282.45Z" transform="translate(-276.976 280.548)" fill="#ff20ce"/>
              </g>
              <g id="Grupo_21" data-name="Grupo 21" transform="translate(27.449 224.892)">
                <path id="Trazado_23" data-name="Trazado 23" d="M443.287,124.9,460.5,243.734,478.828,254l18.208-10.266L512.143,124.9Z" transform="translate(-69.932 -124.905)" opacity="0.561" fill="url(#linear-gradient-35)" style="mix-blend-mode: overlay;isolation: isolate"/>
                <path id="Trazado_24" data-name="Trazado 24" d="M450.43,181.6l18.208-10.267L486.964,181.6l-18.208,10.266Z" transform="translate(-59.86 -62.771)" fill="#a5ffff"/>
                <path id="Trazado_25" data-name="Trazado 25" d="M288.366,214.191,305.58,333.02l18.327,10.266,18.207-10.266,15.108-118.828Z" transform="translate(-288.366 -5.417)" opacity="0.561" fill="url(#linear-gradient-35)" style="mix-blend-mode: overlay;isolation: isolate"/>
                <path id="Trazado_26" data-name="Trazado 26" d="M295.509,270.886l18.208-10.267,18.326,10.266-18.207,10.266Z" transform="translate(-278.295 56.717)" fill="#a5ffff"/>
                <path id="Trazado_27" data-name="Trazado 27" d="M600.867,214.191,618.081,333.02l18.326,10.266,18.208-10.266,15.108-118.828Z" transform="translate(152.253 -5.417)" opacity="0.561" fill="url(#linear-gradient-35)" style="mix-blend-mode: overlay;isolation: isolate"/>
                <path id="Trazado_28" data-name="Trazado 28" d="M608.01,270.886l18.207-10.267,18.327,10.266-18.208,10.266Z" transform="translate(162.325 56.717)" fill="#a5ffff"/>
                <path id="Trazado_29" data-name="Trazado 29" d="M443.287,301.691,460.5,420.52l18.327,10.266,18.208-10.266,15.108-118.829Z" transform="translate(-69.932 111.681)" opacity="0.561" fill="url(#linear-gradient-35)" style="mix-blend-mode: overlay;isolation: isolate"/>
                <path id="Trazado_30" data-name="Trazado 30" d="M450.43,358.386l18.208-10.266,18.327,10.266-18.208,10.266Z" transform="translate(-59.86 173.815)" fill="#a5ffff"/>
              </g>
              <g id="Grupo_25" data-name="Grupo 25" transform="translate(184.391 181.952)">
                <g id="Grupo_22" data-name="Grupo 22" transform="translate(6.979 4.042)">
                  <path id="Trazado_31" data-name="Trazado 31" d="M662.489,198.988a12.989,12.989,0,0,1,11.512,0L853.542,300.22c3.179,1.793,3.188,4.693-.012,6.484L550.095,476.682a13.059,13.059,0,0,1-11.541-.016L359.014,375.435c-3.179-1.793-3.162-4.679.036-6.472Z" transform="translate(-356.021 11.336)" fill="url(#linear-gradient-39)"/>
                  <path id="Trazado_32" data-name="Trazado 32" d="M651.24,221.393a3.152,3.152,0,0,1-2.75,0l-12.537-7.069c-.75-.423-.745-1.122.01-1.546l12.619-7.069a3.131,3.131,0,0,1,2.747,0l12.537,7.069c.749.423.747,1.122-.007,1.546Zm-5.516,3.089c.754-.423.759-1.122.01-1.546L633.2,215.868a3.152,3.152,0,0,0-2.75,0l-12.616,7.069c-.754.423-.759,1.122-.01,1.546l12.537,7.069a3.131,3.131,0,0,0,2.747,0Zm-18.159,10.174c.781-.437.759-1.122.01-1.546l-12.537-7.069a3.09,3.09,0,0,0-2.75,0L599.695,233.1c-.781.437-.759,1.122-.01,1.543l12.537,7.069a3.09,3.09,0,0,0,2.75,0Zm72.326-.016c.754-.421.759-1.12.01-1.543l-12.537-7.069a3.136,3.136,0,0,0-2.75,0L671.994,233.1c-.754.423-.757,1.122-.007,1.543l12.534,7.069a3.137,3.137,0,0,0,2.75,0ZM639.7,248.106l12.592-7.052c.781-.437.759-1.122.007-1.546l-12.534-7.069a3.09,3.09,0,0,0-2.75,0l-12.592,7.055c-.781.437-.786,1.136-.036,1.56l12.537,7.069A3.155,3.155,0,0,0,639.7,248.106Zm29.527-11.921a3.132,3.132,0,0,0-2.748,0l-12.619,7.069c-.754.423-.759,1.122-.01,1.546l12.537,7.069a3.152,3.152,0,0,0,2.75,0l12.616-7.069c.754-.423.759-1.122.01-1.546ZM591.3,254.971c.754-.423.759-1.122.01-1.546l-12.537-7.066a3.136,3.136,0,0,0-2.75,0L563.4,253.425c-.754.423-.757,1.122-.007,1.546l12.534,7.069a3.137,3.137,0,0,0,2.75,0Zm12.11,13.466,12.619-7.069c.754-.421.757-1.122.007-1.543L603.5,252.757a3.136,3.136,0,0,0-2.75,0l-12.619,7.069c-.754.421-.757,1.122-.007,1.543l12.534,7.069A3.136,3.136,0,0,0,603.406,268.437Zm-30.245-3.309c.754-.421.759-1.122.01-1.543l-12.537-7.069a3.131,3.131,0,0,0-2.747,0l-12.619,7.069c-.754.421-.759,1.122-.01,1.543L557.8,272.2a3.136,3.136,0,0,0,2.75,0Zm56.933,7.069a3.136,3.136,0,0,0,2.75,0l12.619-7.066c.754-.423.757-1.122.007-1.546l-12.537-7.069a3.131,3.131,0,0,0-2.747,0l-12.619,7.069c-.754.423-.759,1.122-.01,1.543ZM570,269.982c-.754.423-.759,1.122-.01,1.546l12.537,7.066a3.131,3.131,0,0,0,2.747,0l12.619-7.066c.754-.423.759-1.122.01-1.546l-12.537-7.069a3.131,3.131,0,0,0-2.747,0Zm-14.968,5.306c.754-.423.759-1.122.01-1.546L542.5,266.674a3.136,3.136,0,0,0-2.75,0l-12.619,7.069c-.754.423-.757,1.122-.007,1.546l12.534,7.069a3.152,3.152,0,0,0,2.75,0Zm56.933,7.069a3.139,3.139,0,0,0,2.747,0l12.619-7.069c.754-.423.759-1.122.01-1.546L614.8,266.674a3.136,3.136,0,0,0-2.75,0l-12.619,7.069c-.754.423-.757,1.122-.007,1.546Zm99.455-.8c-.781.437-.759,1.122-.01,1.546l3.748,2.111a3.083,3.083,0,0,0,2.75,0l15.065-8.436c.754-.423.757-1.122.007-1.546l-3.748-2.114a3.146,3.146,0,0,0-2.747,0ZM551.862,280.14c-.781.437-.759,1.122-.01,1.546l12.537,7.069a3.09,3.09,0,0,0,2.75,0l12.592-7.055c.781-.437.759-1.122.01-1.543L567.2,273.088a3.1,3.1,0,0,0-2.75,0Zm44.806-3.309a3.152,3.152,0,0,0-2.75,0L581.3,283.9c-.754.423-.759,1.122-.01,1.546l12.537,7.069a3.136,3.136,0,0,0,2.75,0l12.619-7.069c.754-.423.757-1.122.007-1.546ZM533.729,290.3c-.781.437-.759,1.122-.01,1.546l12.537,7.069a3.085,3.085,0,0,0,2.747,0l12.592-7.055c.781-.437.759-1.122.01-1.543l-12.537-7.069a3.085,3.085,0,0,0-2.747,0Zm97.2,3.222c.754-.423.783-1.108.01-1.543l-12.51-7.055a3.09,3.09,0,0,0-2.75,0l-12.619,7.069c-.754.421-.783,1.106-.01,1.543l12.51,7.054a3.09,3.09,0,0,0,2.75,0Zm-112.2,2.1c.754-.423.759-1.125.01-1.546l-12.537-7.069a3.136,3.136,0,0,0-2.75,0l-12.592,7.052c-.779.437-.783,1.139-.034,1.56l12.537,7.069a3.142,3.142,0,0,0,2.774-.014Zm-3.167,4.852c-.754.423-.757,1.122-.007,1.546l12.534,7.069a3.152,3.152,0,0,0,2.75,0l12.619-7.069c.754-.423.759-1.122.01-1.546L530.936,293.4a3.136,3.136,0,0,0-2.75,0Zm81.862,10.274a3.09,3.09,0,0,0,2.75,0l12.616-7.069c.757-.421.786-1.106.01-1.543l-12.51-7.055a3.086,3.086,0,0,0-2.747,0l-12.619,7.069c-.754.423-.786,1.108-.01,1.543ZM500.6,305.777c.754-.423.757-1.122.007-1.546l-12.537-7.069a3.132,3.132,0,0,0-2.747,0l-12.619,7.069c-.754.423-.759,1.122-.01,1.546l12.537,7.069a3.152,3.152,0,0,0,2.75,0Zm59.8-8.628a3.148,3.148,0,0,0-2.776.014l-12.592,7.055c-.781.437-.759,1.122-.01,1.546l12.537,7.069a3.1,3.1,0,0,0,2.75,0l12.592-7.054c.781-.437.783-1.136.034-1.56Zm-62.965,13.48c-.754.423-.759,1.122-.01,1.546l12.537,7.069a3.136,3.136,0,0,0,2.75,0l12.619-7.069c.754-.423.757-1.122.007-1.546L512.8,303.56a3.146,3.146,0,0,0-2.747,0Zm144.442.117c-.781.437-.757,1.122-.007,1.546L654.4,319.36a3.09,3.09,0,0,0,2.75,0l16.287-9.124c.754-.421.759-1.122.01-1.543l-12.537-7.069a3.131,3.131,0,0,0-2.747,0Zm-99.638-3.426a3.139,3.139,0,0,0-2.747,0L526.9,314.374c-.781.437-.786,1.136-.036,1.56L539.4,323a3.142,3.142,0,0,0,2.774-.014l12.592-7.054c.754-.423.759-1.122.01-1.546Zm79.676,11.53c.754-.423.759-1.122-.017-1.56l-12.51-7.054a3.1,3.1,0,0,0-2.75,0L594.02,317.3c-.754.423-.783,1.108-.007,1.546l12.51,7.055a3.142,3.142,0,0,0,2.774.014ZM479.3,320.788a.81.81,0,0,0-.007,1.543l12.537,7.069a3.132,3.132,0,0,0,2.747,0l12.619-7.069c.754-.421.759-1.122.01-1.543l-12.537-7.069a3.136,3.136,0,0,0-2.75,0Zm-14.966,5.3c.754-.421.759-1.122.007-1.543l-12.534-7.071a3.144,3.144,0,0,0-2.75,0l-12.619,7.066c-.754.423-.759,1.125-.01,1.546l12.537,7.069a3.136,3.136,0,0,0,2.75,0Zm59.772-8.612a3.136,3.136,0,0,0-2.75,0l-12.619,7.069c-.754.421-.757,1.122-.007,1.543l12.534,7.069a3.136,3.136,0,0,0,2.75,0l12.619-7.069c.754-.421.757-1.122.007-1.543Zm-47.662,22.078,12.592-7.052c.781-.437.783-1.136.034-1.56l-12.537-7.069a3.143,3.143,0,0,0-2.774.014l-12.592,7.055c-.754.423-.759,1.122-.01,1.543l12.537,7.069A3.137,3.137,0,0,0,476.444,339.557Zm-30.272-3.292c.781-.437.786-1.136.036-1.56l-12.537-7.069a3.143,3.143,0,0,0-2.774.014l-12.592,7.055c-.781.437-.759,1.122-.01,1.543l12.537,7.069a3.085,3.085,0,0,0,2.747,0Zm59.8-8.628a3.131,3.131,0,0,0-2.747,0L490.6,334.706c-.754.423-.759,1.122-.01,1.546l12.537,7.066a3.139,3.139,0,0,0,2.747,0l12.619-7.069c.754-.423.759-1.122.01-1.546Zm79.676,11.528c.754-.421.759-1.122-.017-1.56l-12.51-7.052a3.091,3.091,0,0,0-2.75,0l-12.619,7.069c-.754.421-.783,1.106-.007,1.543l12.51,7.055a3.142,3.142,0,0,0,2.774.014ZM443.032,341.1c-.778.437-.757,1.122-.007,1.545l12.537,7.069a3.092,3.092,0,0,0,2.747,0l12.592-7.055c.781-.437.759-1.122.01-1.546l-12.537-7.069a3.093,3.093,0,0,0-2.747,0ZM485,353.477a3.136,3.136,0,0,0,2.75,0l12.619-7.069c.754-.423.759-1.122.01-1.546l-12.537-7.069a3.136,3.136,0,0,0-2.75,0l-12.619,7.069c-.754.423-.757,1.122-.007,1.546ZM469.7,347.954a3.142,3.142,0,0,0-2.774.014l-12.592,7.055c-.781.435-.759,1.12-.01,1.543l12.537,7.069a3.085,3.085,0,0,0,2.747,0l12.595-7.054c.778-.437.783-1.136.034-1.557Zm79.65,11.542c.781-.437.759-1.122-.017-1.56l-12.51-7.055a3.046,3.046,0,0,0-2.75,0l-12.592,7.055c-.779.437-.81,1.122-.034,1.56l12.51,7.055a3.153,3.153,0,0,0,2.8,0ZM370.59,361.434c-.757.423-.759,1.122-.01,1.543l12.537,7.069a3.131,3.131,0,0,0,2.747,0L409.9,356.58c.754-.421.759-1.122.01-1.543l-12.537-7.069a3.132,3.132,0,0,0-2.747,0Zm78.115,12.374a3.15,3.15,0,0,0,2.774-.016l12.592-7.052c.754-.423.759-1.122.01-1.546l-12.537-7.069a3.137,3.137,0,0,0-2.75,0L436.2,365.18c-.778.437-.783,1.136-.034,1.56Zm88.246-4.286c-.781.437-.786,1.139-.034,1.56l12.534,7.069a3.147,3.147,0,0,0,2.776-.014l99.385-55.672c.754-.423.759-1.122.007-1.546l-12.534-7.069a3.136,3.136,0,0,0-2.75,0ZM388.6,371.592c-.754.423-.759,1.122-.01,1.546l12.537,7.069a3.152,3.152,0,0,0,2.75,0l12.619-7.069c.754-.423.757-1.122.007-1.546l-12.534-7.069a3.136,3.136,0,0,0-2.75,0Zm81.862,10.274a3.085,3.085,0,0,0,2.747,0l12.592-7.052c.781-.437.812-1.122.036-1.56l-12.51-7.055a3.1,3.1,0,0,0-2.776.014l-12.592,7.055c-.754.423-.783,1.108-.007,1.546Zm42.618-2.053c.754-.423.759-1.122-.017-1.56l-12.51-7.055a3.09,3.09,0,0,0-2.75,0l-12.616,7.069c-.754.423-.786,1.108-.01,1.546l12.51,7.052a3.15,3.15,0,0,0,2.774.016Zm-106.463,1.936c-.754.423-.759,1.122-.01,1.546l12.537,7.069a3.131,3.131,0,0,0,2.747,0l24.04-13.466c.757-.423.759-1.122.01-1.546l-12.534-7.069a3.152,3.152,0,0,0-2.75,0Zm108.5,0c-.781.437-.759,1.122-.01,1.543l12.537,7.069a3.085,3.085,0,0,0,2.747,0l16.287-9.124c.754-.421.759-1.12.01-1.543l-12.537-7.069a3.131,3.131,0,0,0-2.747,0ZM442.68,402.08c-.754.423-.786,1.108-.01,1.546l12.51,7.055a3.142,3.142,0,0,0,2.774.014l37-20.724c.754-.423.757-1.122-.017-1.56l-12.51-7.055a3.1,3.1,0,0,0-2.75,0Zm36.15,0c-.754.423-.759,1.122-.01,1.546l12.537,7.069a3.136,3.136,0,0,0,2.75,0l12.616-7.069c.754-.423.759-1.122.01-1.543L494.2,395.014a3.139,3.139,0,0,0-2.747,0Zm203.043-177.6c.754-.423.759-1.122.01-1.546l-12.537-7.069a3.147,3.147,0,0,0-2.747,0l-24.04,13.468c-.781.437-.759,1.122-.01,1.543l12.534,7.069a3.09,3.09,0,0,0,2.75,0Zm-72.444,20.331c.757-.423.759-1.122.01-1.546L596.9,236.2a3.131,3.131,0,0,0-2.747,0l-12.619,7.069c-.754.423-.759,1.122-.01,1.546l12.537,7.069a3.136,3.136,0,0,0,2.75,0Zm12.11,13.466,12.619-7.069c.754-.423.759-1.122.01-1.543L621.631,242.6a3.139,3.139,0,0,0-2.747,0l-12.619,7.069c-.754.423-.759,1.122-.01,1.546l12.537,7.069A3.131,3.131,0,0,0,621.539,258.279ZM717.9,244.8c.754-.423.786-1.108.01-1.546L705.4,236.2a3.106,3.106,0,0,0-2.75,0l-27.03,15.143c-.754.423-.786,1.108-.01,1.546l12.51,7.055a3.1,3.1,0,0,0,2.75,0Zm-69.651,17.226a3.09,3.09,0,0,0,2.75,0l12.592-7.055c.781-.437.759-1.122.01-1.546l-12.537-7.066a3.09,3.09,0,0,0-2.75,0l-12.592,7.052c-.781.437-.759,1.122-.007,1.546Zm37.1,1.005c.754-.423.786-1.108.01-1.546l-12.51-7.052a3.091,3.091,0,0,0-2.75,0L657.489,261.5c-.754.421-.783,1.106-.007,1.543l12.51,7.055a3.085,3.085,0,0,0,2.747,0Zm-.641,3.468c-.754.423-.786,1.108-.01,1.546l12.46,7.024a3.131,3.131,0,0,0,2.748,0l35.957-20.139c.754-.423.757-1.122.007-1.546l-12.457-7.024a3.09,3.09,0,0,0-2.75,0ZM667.2,273.2c.781-.437.783-1.108.01-1.546L654.7,264.6a3.046,3.046,0,0,0-2.75,0l-12.592,7.055c-.781.437-.786,1.108-.01,1.546l12.51,7.052a3.046,3.046,0,0,0,2.75,0Zm35.663,3.526c-.781.437-.759,1.122-.01,1.546l3.723,2.1a3.1,3.1,0,0,0,2.774.014l15.062-8.436c.757-.423.759-1.122-.015-1.56l-3.723-2.1a3.152,3.152,0,0,0-2.75,0Zm-12.228,16.408c-.781.437-.759,1.122-.01,1.546l3.721,2.1a3.109,3.109,0,0,0,2.776.014l15.062-8.439c.754-.423.759-1.122-.017-1.56l-3.721-2.1a3.152,3.152,0,0,0-2.75,0Zm41.575-23.231c-.781.435-.759,1.12-.01,1.543l3.723,2.1a3.1,3.1,0,0,0,2.774.014l15.062-8.439c.757-.423.759-1.122-.015-1.56l-3.723-2.1a3.136,3.136,0,0,0-2.75,0ZM694.4,278.159c.754-.423.757-1.122.007-1.546L681.95,269.59a3.09,3.09,0,0,0-2.75,0l-12.619,7.069c-.754.423-.783,1.106-.01,1.543l12.46,7.026a3.136,3.136,0,0,0,2.75,0Zm-45.334,5.2c.754-.423.783-1.108.007-1.546l-12.51-7.055a3.093,3.093,0,0,0-2.747,0l-12.595,7.055c-.781.437-.81,1.122-.034,1.56l12.51,7.054a3.1,3.1,0,0,0,2.774-.014Zm-112.2,2.1c.778-.437.783-1.136.034-1.56l-12.537-7.069a3.151,3.151,0,0,0-2.774.016L509,283.9c-.781.437-.759,1.122-.01,1.546l12.537,7.069a3.085,3.085,0,0,0,2.747,0Zm124.08,9.954a3.15,3.15,0,0,0,2.774.016l12.178-6.821.364-.292c.754-.423.759-1.122.01-1.546l-12.459-7.024a3.091,3.091,0,0,0-2.75,0l-12.616,7.069c-.754.423-.786,1.108-.01,1.546Zm-82.417-8.422a3.131,3.131,0,0,0-2.747,0l-12.619,7.069c-.754.421-.759,1.122-.01,1.543l12.537,7.069a3.131,3.131,0,0,0,2.747,0L591.06,295.6c.754-.421.759-1.122.01-1.543Zm64.284,18.582a3.1,3.1,0,0,0,2.774.014l12.592-7.054c.781-.437.783-1.136.01-1.574l-12.51-7.052a3.094,3.094,0,0,0-2.776.014l-12.592,7.052c-.781.437-.783,1.108-.01,1.546Zm20.89-7.055c-.781.437-.759,1.122-.01,1.546l12.537,7.069a3.1,3.1,0,0,0,2.75,0l12.486-7c.781-.437.786-1.136.036-1.56l-12.537-7.069a3.143,3.143,0,0,0-2.774.014ZM640.048,308.69c.781-.437.759-1.12-.017-1.557l-12.51-7.055a3.041,3.041,0,0,0-2.747,0l-12.592,7.055c-.781.437-.812,1.12-.036,1.557l12.51,7.055a3.153,3.153,0,0,0,2.8,0ZM579.3,320.9a3.085,3.085,0,0,0,2.747,0l12.619-7.066c.754-.423.783-1.108.01-1.546l-12.51-7.055a3.1,3.1,0,0,0-2.75,0l-12.619,7.069c-.754.423-.783,1.108-.01,1.546Zm-96.831-4.969c.754-.423.759-1.122.01-1.546l-12.537-7.069a3.152,3.152,0,0,0-2.75,0l-12.616,7.069c-.754.423-.759,1.122-.01,1.546L467.1,323a3.131,3.131,0,0,0,2.747,0Zm78.7,15.129a3.1,3.1,0,0,0,2.75,0l12.592-7.055c.779-.437.81-1.122.034-1.56l-12.51-7.052a3.1,3.1,0,0,0-2.774.014l-12.592,7.052c-.754.423-.786,1.108-.01,1.546Zm42.618-2.055c.754-.423.759-1.122-.017-1.56l-12.51-7.052a3.085,3.085,0,0,0-2.747,0l-12.619,7.069c-.754.423-.786,1.108-.01,1.546l12.51,7.055a3.147,3.147,0,0,0,2.776.014ZM543,341.234a3.1,3.1,0,0,0,2.774-.014l12.592-7.055c.781-.437.786-1.106.01-1.543l-12.51-7.055a3.046,3.046,0,0,0-2.75,0l-12.592,7.055c-.781.437-.81,1.122-.034,1.56Zm-18.135,10.16a3.1,3.1,0,0,0,2.75,0l12.619-7.069c.754-.423.783-1.108.007-1.546l-12.51-7.055a3.085,3.085,0,0,0-2.747,0l-12.619,7.069c-.754.423-.786,1.108-.01,1.546Zm-96.828-4.971c.754-.423.759-1.122.01-1.546l-12.537-7.069a3.151,3.151,0,0,0-2.75,0l-12.592,7.054c-.781.437-.783,1.136-.034,1.56l12.534,7.069a3.148,3.148,0,0,0,2.776-.014Zm139.446,2.916c.781-.437.786-1.136.01-1.574l-12.51-7.055a3.1,3.1,0,0,0-2.774.014l-12.592,7.055c-.781.437-.786,1.108-.01,1.546l12.51,7.052a3.1,3.1,0,0,0,2.776.014Zm-127.31,10.536,12.592-7.055a.811.811,0,0,0,.007-1.546l-12.534-7.066a3.136,3.136,0,0,0-2.75,0L424.9,351.26c-.781.437-.786,1.139-.034,1.56l12.534,7.069A3.147,3.147,0,0,0,440.176,359.875Zm66.559,1.677a3.085,3.085,0,0,0,2.747,0l12.619-7.069c.754-.423.786-1.108.01-1.546l-12.51-7.052a3.09,3.09,0,0,0-2.75,0l-12.619,7.066c-.754.423-.783,1.108-.007,1.546Zm-87.468,8.495a3.131,3.131,0,0,0,2.747,0l12.619-7.066c.754-.423.759-1.122.01-1.546l-12.537-7.069a3.131,3.131,0,0,0-2.747,0l-12.619,7.069c-.754.423-.759,1.122-.01,1.546Zm84.7-5.406c.754-.423.783-1.108.007-1.543l-12.51-7.054a3.085,3.085,0,0,0-2.747,0L476.1,363.111c-.754.421-.786,1.106-.01,1.543l12.51,7.055a3.09,3.09,0,0,0,2.75,0Zm11.859,12.068a3.142,3.142,0,0,0,2.774.014l12.619-7.069c.754-.421.757-1.122-.017-1.56l-12.51-7.052a3.09,3.09,0,0,0-2.75,0l-12.619,7.069c-.754.421-.783,1.106-.01,1.543Zm-91.165,15.215c-.754.423-.783,1.108-.01,1.546l12.513,7.052a3.086,3.086,0,0,0,2.747,0l27.76-15.549c.781-.437.783-1.108.01-1.546l-12.51-7.055a3.053,3.053,0,0,0-2.75,0Zm72.326-.014c-.781.437-.783,1.136-.034,1.56l12.534,7.069a3.148,3.148,0,0,0,2.776-.014l12.592-7.055c.754-.423.759-1.122.01-1.546l-12.537-7.069a3.136,3.136,0,0,0-2.75,0Zm51.342-3.832c-1.586.889-1.6,2.345-.019,3.236l37.661,21.234a6.551,6.551,0,0,0,5.757,0l67.624-37.768c1.612-.9,1.6-2.348.017-3.236l-37.658-21.236a6.5,6.5,0,0,0-5.757,0ZM460.695,412.24c-.754.421-.757,1.122-.007,1.543l12.534,7.069a3.136,3.136,0,0,0,2.75,0l12.619-7.069c.754-.421.759-1.122.01-1.543l-12.537-7.069a3.136,3.136,0,0,0-2.75,0Z" transform="translate(-337.157 21.708)" fill="#193164"/>
                  <path id="Trazado_33" data-name="Trazado 33" d="M662.68,109.424c4.786-2.682,8.676-.533,8.693,4.805l.6,204.724L356.982,495.4l-.6-204.722c-.015-5.338,3.849-11.832,8.635-14.514Z" transform="translate(-356.384 -108.269)" fill="#1a6cbe"/>
                  <path id="Trazado_34" data-name="Trazado 34" d="M855.928,242.9c0,1.176-.793,2.352-2.4,3.25L550.095,416.123a13.059,13.059,0,0,1-11.541-.016L359.015,314.876c-.188-.108-.328-.227-.494-.341a6,6,0,0,1-.588-.423,4.56,4.56,0,0,1-.648-.69c-.031-.042-.058-.084-.089-.126a3.293,3.293,0,0,1-.388-.737c-.012-.028-.017-.056-.026-.084a2.646,2.646,0,0,1-.14-.811l.039,12.891v.068a2.586,2.586,0,0,0,.053.451,2.56,2.56,0,0,0,.087.292c.01.028.015.056.024.084s.012.044.022.065a2.938,2.938,0,0,0,.215.449c.043.075.1.147.154.222.029.042.058.084.089.126a1.41,1.41,0,0,0,.084.124,4.7,4.7,0,0,0,.506.526c.017.014.041.028.055.042a6.963,6.963,0,0,0,.591.423c.135.091.241.194.393.281l.1.058L538.592,429a13.054,13.054,0,0,0,11.539.014L853.569,259.038c1.6-.9,2.4-2.076,2.4-3.253Z" transform="translate(-356.022 71.895)" fill="#1a6cbe"/>
                </g>
                <g id="Grupo_24" data-name="Grupo 24">
                  <g id="Grupo_23" data-name="Grupo 23" transform="translate(21.438 24.53)">
                    <path id="Trazado_35" data-name="Trazado 35" d="M648.493,117.031l.532,182.157L362.916,459.458,362.383,277.3Z" transform="translate(-362.383 -117.031)" fill="#102465"/>
                  </g>
                  <path id="Trazado_36" data-name="Trazado 36" d="M648.51,122.811l-.017-5.779L362.383,277.3l.017,5.779Z" transform="translate(-340.946 -92.501)" fill="#00154f"/>
                  <path id="Trazado_37" data-name="Trazado 37" d="M668.668,110.919a7.183,7.183,0,0,1,1.419-.3l.128-.014a5.345,5.345,0,0,1,1.393.07l.07.014a4.331,4.331,0,0,1,1.251.458l-6.977-4.041-.048-.026a4.309,4.309,0,0,0-.434-.206,4.389,4.389,0,0,0-.458-.157c-.1-.028-.207-.049-.313-.07l-.067-.016-.106-.023c-.171-.028-.345-.047-.523-.058a5.2,5.2,0,0,0-.574,0c-.063,0-.128.014-.193.019l-.128.012c-.109.012-.215.016-.325.033a7.251,7.251,0,0,0-.762.157c-.108.03-.222.08-.333.112s-.2.065-.3.1c-.13.044-.253.075-.385.126a10.865,10.865,0,0,0-1.215.587L362.123,274.436a13.461,13.461,0,0,0-1.629,1.1c-.171.131-.333.285-.5.426-.256.217-.518.419-.766.655-.111.105-.214.225-.325.337s-.193.2-.289.3-.224.222-.33.341c-.241.269-.477.547-.7.83-.08.1-.152.2-.231.3l-.118.157c-.075.1-.154.2-.227.3-.171.239-.34.482-.5.727s-.3.47-.448.711l-.034.061-.031.056c-.116.194-.231.391-.34.589-.13.236-.253.475-.374.716-.109.217-.212.437-.311.657l-.015.035-.019.037c-.111.248-.217.5-.316.753s-.2.528-.294.793c-.046.133-.084.267-.125.4l-.055.173c-.029.094-.063.189-.089.283-.092.323-.174.645-.243.966-.043.2-.07.391-.1.585-.019.1-.039.2-.053.3s-.039.187-.051.281a12,12,0,0,0-.111,1.646l.583,199.1A9.758,9.758,0,0,0,359.1,496.5l1.966,1.214-.6-204.722a12.322,12.322,0,0,1,.161-1.927c.015-.1.034-.2.053-.3a15.211,15.211,0,0,1,.436-1.836l.053-.168a18.831,18.831,0,0,1,.754-1.985l.017-.033a20.367,20.367,0,0,1,1.022-1.964l.034-.056a19.86,19.86,0,0,1,1.21-1.8l.118-.154a19.03,19.03,0,0,1,1.265-1.478c.1-.1.193-.2.289-.3.349-.355.718-.676,1.089-.989.169-.143.333-.3.5-.43a13.452,13.452,0,0,1,1.629-1.1L666.764,111.737a9.819,9.819,0,0,1,1.6-.716C668.465,110.984,668.566,110.952,668.668,110.919Z" transform="translate(-353.488 -106.541)" fill="url(#linear-gradient-40)"/>
                </g>
              </g>
              <g id="Grupo_30" data-name="Grupo 30" transform="translate(613.582 434.614)">
                <g id="Grupo_29" data-name="Grupo 29">
                  <g id="Grupo_28" data-name="Grupo 28" transform="translate(0 2.528)">
                    <path id="Trazado_38" data-name="Trazado 38" d="M574.533,278.386c-9.866-5.528-25.821-5.551-35.622-.026-9.845,5.553-9.751,14.518.116,20.046s25.777,5.525,35.622-.026C584.45,292.852,584.4,283.913,574.533,278.386Z" transform="translate(-531.577 -137.321)" fill="#1a9bdb"/>
                    <g id="Grupo_27" data-name="Grupo 27" transform="translate(6.904)">
                      <g id="Grupo_26" data-name="Grupo 26">
                        <path id="Trazado_39" data-name="Trazado 39" d="M543.622,288.641s-8.927-5.624-9.163-6.991,1.921-2.843,3.422-2.789,7.816.564,7.816.564l2.024,2.226S551.337,290.027,543.622,288.641Z" transform="translate(-534.441 -131.125)" fill="#103450"/>
                        <path id="Trazado_40" data-name="Trazado 40" d="M551.724,285.614s-8.927-5.626-9.165-6.991,1.921-2.843,3.422-2.79,7.815.564,7.815.564l2.025,2.226S559.438,287,551.724,285.614Z" transform="translate(-523.022 -135.175)" fill="#103450"/>
                        <path id="Trazado_41" data-name="Trazado 41" d="M537.187,252.219l-.26,71.226a9.26,9.26,0,0,0,8.77-.185s8.31-61.529,8.449-62.99c.13-1.349,1.174,56.172,1.174,56.172s5.15,2.867,9.069-1.027l4.622-68.142Z" transform="translate(-530.937 -173.393)" fill="#103450"/>
                        <path id="Trazado_42" data-name="Trazado 42" d="M548.4,247.187l.5,12.524s10.131-5.186,9.869-12.781c-.058-1.719-3.408-12.6-4.145-15.365C551.219,233.361,551.014,244.531,548.4,247.187Z" transform="translate(-514.762 -194.415)" fill="#ffc6a0"/>
                        <path id="Trazado_43" data-name="Trazado 43" d="M545.111,228.206s-3.757.8-8.618,4.66l1.306,48.559s6.319,4.487,19.237,1.207c10.522-2.67,13.289-6.968,13.289-6.968s-.239-22.506-1.227-32.357a73.849,73.849,0,0,0-3.911-17.4c-2.294-.676-7.36-.393-7.36-.393Z" transform="translate(-531.549 -202.598)" fill="#fdf7fb"/>
                        <path id="Trazado_44" data-name="Trazado 44" d="M552.969,238.32l.289-9.491a2.24,2.24,0,0,0,2.039-2.8c-.422-2.614-2.945-.9-3.388-.126,0,0-.566-9-5.483-9.87s-6.958-.175-7.083,2.149-.284,10.443,0,13.459,0,4.585,4.485,4.464l.39,3.159s2.036,1.843,8.329.353Z" transform="translate(-527.755 -215.677)" fill="#ffc6a0"/>
                      </g>
                    </g>
                  </g>
                  <path id="Trazado_45" data-name="Trazado 45" d="M540.069,229.037c.034-1.857.34-2.864,4.781-3.355s8.052-1.644,8.5,0-.446,2.668-4.892,3.035S540.069,229.037,540.069,229.037Z" transform="translate(-519.603 -200.901)" fill="#fff"/>
                  <path id="Trazado_46" data-name="Trazado 46" d="M547.631,227.751a1.413,1.413,0,0,0-.851-1.908,1.654,1.654,0,0,0-1.665.68,12.721,12.721,0,0,0-1.62,3.234c-.451-.379-.918-.739-1.393-1.092l.058-.858a6.69,6.69,0,0,0-.075-2.1c-.364-1.45-1.93-1.677-2.68-2.761-1-1.457-.586-3.533.383-4.931a8.264,8.264,0,0,1,4.35-2.97c5.854-1.864,14.626,2.313,12.922,9.227-.979,3.973-2.41,7.821-3.475,11.771-.14.519-1.357.723-1.885.564a3.86,3.86,0,0,1-1.371-.875,21.137,21.137,0,0,1-4.7-5.979C545.748,229.975,547.537,228.055,547.631,227.751Z" transform="translate(-521.354 -214.596)" fill="#103450"/>
                </g>
                <path id="Trazado_47" data-name="Trazado 47" d="M537.276,255.32a1.386,1.386,0,0,0,1.2,1.209c.718.014,1.186-.709,1.5-1.335.2-.4.4-.79.6-1.188a1.878,1.878,0,0,0,.292-1.029c-.039-.344-.265-.652-.282-1-.029-.673.713-1.136.906-1.782.232-.767-.359-1.518-.906-2.114a6.138,6.138,0,0,0-1.234-1.118c-1.89-1.169-3.591.917-3.225,2.705.164.8.716,1.525.954,2.313C537.433,253.12,537.069,254.193,537.276,255.32Z" transform="translate(-525.226 -171.732)" fill="#ffc6a0"/>
                <path id="Trazado_48" data-name="Trazado 48" d="M543.056,273.087s-10.907-16.232-11.211-19.863,9-22.672,9-22.672l7.182,7.754-8.1,14.132,4.586,15.729Z" transform="translate(-531.208 -193.243)" fill="#ffc6a0"/>
                <path id="Trazado_49" data-name="Trazado 49" d="M544.027,249.5a23.616,23.616,0,0,0,1.759-5.925c.918-8.016-4.473-14.956-4.473-14.956-2.048.9-5.321,7.515-8.24,14.839C536.636,245.631,540.294,247.627,544.027,249.5Z" transform="translate(-529.466 -195.826)" fill="#fdf7fb"/>
                <path id="Trazado_50" data-name="Trazado 50" d="M556.7,241.68c-2.767-7.777-6.4-15.416-8.3-16.036l.8,20.263C551.616,244.378,554.2,243.052,556.7,241.68Z" transform="translate(-507.858 -199.811)" fill="#fdf7fb"/>
              </g>
              <g id="Grupo_33" data-name="Grupo 33" transform="translate(233.463 316.665)">
                <g id="Grupo_32" data-name="Grupo 32" transform="translate(0 0)" style="isolation: isolate">
                  <g id="Grupo_31" data-name="Grupo 31">
                    <path id="Trazado_51" data-name="Trazado 51" d="M382.3,188.208c-4.685,2.626-8.469,8.984-8.452,14.207s3.822,7.349,8.507,4.723,8.488-9.012,8.473-14.235-3.841-7.319-8.529-4.7" transform="translate(-373.85 -133.475)" fill="#00edf9"/>
                    <path id="Trazado_52" data-name="Trazado 52" d="M469.779,164.4l-84.012,47.06a3.856,3.856,0,0,0-1.81,3.042v.325c0,1.113.824,1.567,1.822,1.008l84.012-47.062a3.831,3.831,0,0,0,1.81-3.042V165.4c0-1.113-.8-1.576-1.822-1.005" transform="translate(-359.599 -164.153)" fill="#fdf7fb"/>
                    <path id="Trazado_53" data-name="Trazado 53" d="M406.573,184.207,385.78,195.854a3.872,3.872,0,0,0-1.81,3.042v.3c0,1.134.824,1.588,1.822,1.029l20.8-11.649a3.873,3.873,0,0,0,1.81-3.061l0-.3c0-1.115-.822-1.567-1.822-1.008" transform="translate(-359.581 -137.637)" fill="#fdf7fb"/>
                    <path id="Trazado_54" data-name="Trazado 54" d="M453.06,169.1,397.7,200.112a4.165,4.165,0,0,0-1.957,3.285c0,1.193.9,1.688,1.969,1.087l55.355-31.008a4.155,4.155,0,0,0,1.935-3.276c0-1.216-.877-1.7-1.947-1.1" transform="translate(-342.974 -157.874)" fill="#fdf7fb"/>
                    <path id="Trazado_55" data-name="Trazado 55" d="M397.125,191.14l-11.187,6.267a4.169,4.169,0,0,0-1.955,3.285c0,1.216.88,1.7,1.969,1.09l11.187-6.267a4.142,4.142,0,0,0,1.938-3.276c0-1.195-.88-1.7-1.952-1.1" transform="translate(-359.563 -128.377)" fill="#fdf7fb"/>
                    <path id="Trazado_56" data-name="Trazado 56" d="M382.354,206.565c-4.685,2.626-8.469,8.984-8.452,14.207s3.822,7.33,8.507,4.7,8.488-8.993,8.473-14.217-3.841-7.319-8.529-4.7" transform="translate(-373.777 -108.908)" fill="#00edf9"/>
                    <path id="Trazado_57" data-name="Trazado 57" d="M469.831,182.755l-84.012,47.062a3.852,3.852,0,0,0-1.81,3.042v.323c0,1.113.824,1.567,1.822,1.008l84.012-47.062a3.824,3.824,0,0,0,1.81-3.042v-.323c0-1.113-.8-1.578-1.822-1.008" transform="translate(-359.526 -139.587)" fill="#fdf7fb"/>
                    <path id="Trazado_58" data-name="Trazado 58" d="M406.625,202.566l-20.793,11.649a3.837,3.837,0,0,0-1.81,3.042v.3c0,1.134.824,1.567,1.822,1.008l20.8-11.649a3.837,3.837,0,0,0,1.81-3.042v-.3c0-1.134-.824-1.567-1.824-1.008" transform="translate(-359.508 -113.072)" fill="#fdf7fb"/>
                    <path id="Trazado_59" data-name="Trazado 59" d="M453.112,187.461l-55.355,31.008a4.164,4.164,0,0,0-1.957,3.264c0,1.216.9,1.688,1.969,1.09l55.355-31.01a4.128,4.128,0,0,0,1.938-3.274c0-1.195-.88-1.679-1.95-1.078" transform="translate(-342.901 -133.307)" fill="#fdf7fb"/>
                    <path id="Trazado_60" data-name="Trazado 60" d="M397.177,209.5l-11.185,6.267a4.166,4.166,0,0,0-1.957,3.285c0,1.214.88,1.7,1.969,1.087l11.187-6.267a4.138,4.138,0,0,0,1.938-3.276c0-1.195-.88-1.7-1.952-1.1" transform="translate(-359.489 -103.81)" fill="#fdf7fb"/>
                    <path id="Trazado_61" data-name="Trazado 61" d="M382.408,224.924c-4.687,2.624-8.471,8.984-8.454,14.207s3.822,7.328,8.507,4.7,8.488-8.993,8.473-14.217-3.841-7.321-8.527-4.7" transform="translate(-373.703 -84.341)" fill="#00edf9"/>
                    <path id="Trazado_62" data-name="Trazado 62" d="M469.883,201.111l-84.012,47.062a3.856,3.856,0,0,0-1.81,3.042v.323c0,1.115.824,1.569,1.822,1.008l84.012-47.06a3.839,3.839,0,0,0,1.812-3.042l0-.325c0-1.113-.8-1.576-1.822-1.008" transform="translate(-359.453 -115.019)" fill="#fdf7fb"/>
                    <path id="Trazado_63" data-name="Trazado 63" d="M406.677,220.913l-20.793,11.649a3.87,3.87,0,0,0-1.81,3.061v.3c0,1.134.824,1.567,1.822,1.008l20.8-11.649a3.837,3.837,0,0,0,1.81-3.042v-.3c0-1.136-.824-1.588-1.824-1.029" transform="translate(-359.434 -88.514)" fill="#fdf7fb"/>
                    <path id="Trazado_64" data-name="Trazado 64" d="M453.164,205.806l-55.355,31.01a4.2,4.2,0,0,0-1.957,3.285c0,1.214.9,1.688,1.969,1.087l55.355-31.008a4.132,4.132,0,0,0,1.938-3.276c0-1.195-.88-1.7-1.95-1.1" transform="translate(-342.828 -108.75)" fill="#fdf7fb"/>
                    <path id="Trazado_65" data-name="Trazado 65" d="M397.231,227.858l-11.187,6.267a4.137,4.137,0,0,0-1.957,3.285c0,1.216.88,1.7,1.969,1.09l11.187-6.269a4.134,4.134,0,0,0,1.938-3.274c0-1.216-.88-1.7-1.95-1.1" transform="translate(-359.416 -79.245)" fill="#fdf7fb"/>
                    <path id="Trazado_69" data-name="Trazado 69" d="M474.627,219.5l-91.386,51.192a3.827,3.827,0,0,0-1.81,3.042v.323c0,1.113.8,1.578,1.822,1.008l91.386-51.192a3.874,3.874,0,0,0,1.829-3.051l0-.325c0-1.113-.822-1.567-1.839-1" transform="translate(-363.161 -90.42)" fill="#fdf7fb"/>
                    <path id="Trazado_70" data-name="Trazado 70" d="M379.316,244.835l-3.5,1.964A3.861,3.861,0,0,0,374,249.841l0,.323c0,1.113.822,1.567,1.822,1.008l3.5-1.964a3.853,3.853,0,0,0,1.81-3.042v-.323c0-1.115-.824-1.567-1.822-1.008" transform="translate(-373.638 -56.501)" fill="#ff20ce"/>
                    <path id="Trazado_71" data-name="Trazado 71" d="M525.073,190.375l-91.384,51.192a3.874,3.874,0,0,0-1.829,3.051v.325c0,1.113.824,1.567,1.841,1l91.386-51.192a3.829,3.829,0,0,0,1.81-3.042l0-.323c0-1.113-.805-1.578-1.822-1.008" transform="translate(-292.057 -129.389)" fill="#fdf7fb"/>
                    <path id="Trazado_72" data-name="Trazado 72" d="M429.734,215.723l-3.487,1.952a3.837,3.837,0,0,0-1.81,3.042l0,.323c0,1.115.8,1.578,1.822,1.008l3.485-1.952a3.833,3.833,0,0,0,1.812-3.042l0-.325c0-1.113-.8-1.576-1.822-1.005" transform="translate(-302.523 -95.467)" fill="#ff20ce"/>
                  </g>
                </g>
              </g>
              <g id="Grupo_36" data-name="Grupo 36" transform="translate(146.733 78.73)">
                <g id="Grupo_35" data-name="Grupo 35" style="isolation: isolate">
                  <g id="Grupo_34" data-name="Grupo 34">
                    <path id="Trazado_73" data-name="Trazado 73" d="M433.141,143.554l11.652-12.893a8.7,8.7,0,0,1-.07-.966c-.012-4.155,3.008-9.231,6.736-11.322s6.77-.407,6.782,3.751-3.008,9.234-6.736,11.322c-1.889,1.059-3.605,1.139-4.834.43l-11.652,12.884a7.606,7.606,0,0,1,.07.963c.012,4.157-3.01,9.234-6.738,11.322a7,7,0,0,1-2.133.811l-15.458,31.931A5.1,5.1,0,0,1,412,195.416c.012,4.155-3.01,9.234-6.738,11.322s-6.767.407-6.782-3.751a11.483,11.483,0,0,1,.771-3.947l-14.347-8.5a11.99,11.99,0,0,1-2.921,2.387,6.473,6.473,0,0,1-2.923.886l-14.243,24.519a5.66,5.66,0,0,1,.793,3.072c.012,4.157-3.01,9.234-6.738,11.322s-6.77.407-6.782-3.748,3.01-9.234,6.738-11.322a6.3,6.3,0,0,1,2.923-.889l14.243-24.528a5.594,5.594,0,0,1-.79-3.063c-.012-4.155,3.008-9.234,6.736-11.322s6.77-.407,6.782,3.751a11.431,11.431,0,0,1-.771,3.938l14.347,8.511a11.906,11.906,0,0,1,2.921-2.385,7.309,7.309,0,0,1,2.133-.811l15.458-31.92a5.1,5.1,0,0,1-1.239-3.638c-.012-4.148,3.01-9.224,6.738-11.313,1.889-1.059,3.605-1.148,4.834-.43m35.913-50.78L341,164.507a6.7,6.7,0,0,0-3.138,5.282l.253,86.778c.007,1.938,1.422,2.719,3.159,1.747l128.054-71.731a6.7,6.7,0,0,0,3.147-5.28l-.255-86.778c0-1.936-1.429-2.724-3.167-1.751" transform="translate(-337.862 -92.357)" fill="#00edf9" opacity="0.6" style="mix-blend-mode: overlay;isolation: isolate"/>
                    <path id="Trazado_74" data-name="Trazado 74" d="M443.136,104c-3.728,2.09-6.748,7.167-6.736,11.322a8.7,8.7,0,0,0,.07.966l-11.652,12.893c-1.229-.718-2.945-.629-4.834.43-3.728,2.088-6.75,7.164-6.738,11.313a5.1,5.1,0,0,0,1.239,3.638l-15.458,31.92a7.308,7.308,0,0,0-2.133.811,11.906,11.906,0,0,0-2.921,2.385l-14.347-8.511a11.431,11.431,0,0,0,.771-3.938c-.012-4.157-3.053-5.839-6.782-3.751s-6.748,7.167-6.736,11.322a5.594,5.594,0,0,0,.79,3.063l-14.243,24.528a6.3,6.3,0,0,0-2.923.889c-3.728,2.088-6.75,7.164-6.738,11.322s3.053,5.836,6.782,3.748,6.75-7.164,6.738-11.322a5.66,5.66,0,0,0-.793-3.072l14.243-24.519a6.473,6.473,0,0,0,2.923-.886,11.99,11.99,0,0,0,2.921-2.387l14.347,8.5a11.483,11.483,0,0,0-.771,3.947c.014,4.157,3.053,5.839,6.782,3.751s6.75-7.167,6.738-11.322a5.1,5.1,0,0,0-1.239-3.629l15.458-31.931a7,7,0,0,0,2.133-.811c3.728-2.088,6.75-7.164,6.738-11.322a7.606,7.606,0,0,0-.07-.963L438.347,119.5c1.229.708,2.945.629,4.834-.43,3.728-2.088,6.748-7.167,6.736-11.322s-3.053-5.839-6.782-3.751" transform="translate(-329.539 -77.98)" fill="#a5ffff"/>
                  </g>
                </g>
              </g>
              <g id="Grupo_39" data-name="Grupo 39" transform="translate(80.904 329.735)">
                <g id="Grupo_38" data-name="Grupo 38" style="isolation: isolate">
                  <g id="Grupo_37" data-name="Grupo 37">
                    <path id="Trazado_75" data-name="Trazado 75" d="M333.372,234.263c-.559.313-1.012.061-1.015-.561a2.14,2.14,0,0,1,1.007-1.693l4.261-2.387c.559-.313,1.012-.061,1.015.561a2.14,2.14,0,0,1-1.007,1.693l-4.261,2.387m8.546-4.789c-.559.313-1.012.063-1.015-.559a2.142,2.142,0,0,1,1.007-1.693l4.27-2.392c.557-.313,1.012-.063,1.012.561a2.14,2.14,0,0,1-1.007,1.693l-4.268,2.39m-8.57-3.091c-.557.313-1.012.061-1.015-.561a2.138,2.138,0,0,1,1.007-1.693l37.022-20.738c.559-.313,1.012-.07,1.015.561a2.146,2.146,0,0,1-1.007,1.693l-37.022,20.738m-.022-7.889c-.559.313-1.012.063-1.015-.559a2.14,2.14,0,0,1,1.007-1.7L354.1,204.6c.566-.316,1.019-.065,1.022.557a2.157,2.157,0,0,1-1.015,1.7l-20.781,11.64m25.11-14.065c-.557.311-1.012.061-1.015-.561a2.152,2.152,0,0,1,1.007-1.693l2.6-1.454c.559-.313,1.012-.061,1.015.561a2.146,2.146,0,0,1-1.007,1.693l-2.6,1.454m7.129-3.994c-.559.313-1.012.061-1.015-.561a2.146,2.146,0,0,1,1.007-1.693l16.957-9.5c.559-.313,1.012-.063,1.015.561a2.14,2.14,0,0,1-1.007,1.693l-16.957,9.5M333.3,210.613c-.559.313-1.012.063-1.015-.559a2.136,2.136,0,0,1,1.007-1.7L368.6,188.582c.559-.313,1.015-.07,1.015.559a2.141,2.141,0,0,1-1.007,1.7L333.3,210.613m39.721-22.251c-.557.313-1.012.063-1.015-.559a2.131,2.131,0,0,1,1.01-1.693l9.474-5.308c.557-.313,1.012-.07,1.012.561a2.14,2.14,0,0,1-1.007,1.693l-9.474,5.306m-52.807,32.572c-1.629.914-2.962.178-2.967-1.639a6.282,6.282,0,0,1,2.947-4.962c1.636-.917,2.969-.18,2.974,1.644a6.285,6.285,0,0,1-2.955,4.957m68.265-50.883-75.642,42.372a4.857,4.857,0,0,0-2.292,3.853l.1,35.708c0,1.412,1.034,1.99,2.309,1.277L388.6,210.889a4.875,4.875,0,0,0,2.292-3.856l-.1-35.705c0-1.422-1.034-1.992-2.309-1.277" transform="translate(-310.547 -169.743)" fill="#00edf9" opacity="0.6"/>
                    <path id="Trazado_76" data-name="Trazado 76" d="M355.884,177.878l-35.309,19.777a2.136,2.136,0,0,0-1.007,1.7c0,.622.455.872,1.015.559l35.309-19.777a2.141,2.141,0,0,0,1.007-1.7c0-.629-.456-.872-1.015-.559" transform="translate(-297.828 -159.039)" fill="#a5ffff"/>
                    <path id="Trazado_77" data-name="Trazado 77" d="M341.367,184.728l-20.781,11.64a2.14,2.14,0,0,0-1.007,1.7c0,.622.455.872,1.015.559l20.781-11.64a2.157,2.157,0,0,0,1.015-1.7c0-.622-.456-.872-1.022-.557" transform="translate(-297.813 -149.872)" fill="#a5ffff"/>
                    <path id="Trazado_78" data-name="Trazado 78" d="M357.617,184.211l-37.022,20.738a2.138,2.138,0,0,0-1.007,1.693c0,.622.458.875,1.015.561l37.022-20.738a2.146,2.146,0,0,0,1.007-1.693c0-.631-.456-.875-1.015-.561" transform="translate(-297.801 -150.563)" fill="#a5ffff"/>
                    <path id="Trazado_79" data-name="Trazado 79" d="M324.865,195.428l-4.261,2.387a2.14,2.14,0,0,0-1.007,1.693c0,.622.456.875,1.015.561l4.261-2.387a2.14,2.14,0,0,0,1.007-1.693c0-.622-.456-.875-1.015-.561" transform="translate(-297.787 -135.55)" fill="#a5ffff"/>
                    <path id="Trazado_80" data-name="Trazado 80" d="M333.6,183.068l-2.6,1.454A2.152,2.152,0,0,0,330,186.215c0,.622.458.872,1.015.561l2.6-1.454a2.146,2.146,0,0,0,1.007-1.693c0-.622-.455-.875-1.015-.561" transform="translate(-283.123 -152.091)" fill="#a5ffff"/>
                    <path id="Trazado_81" data-name="Trazado 81" d="M350.919,177.92l-16.957,9.5a2.146,2.146,0,0,0-1.007,1.693c0,.622.456.875,1.015.561l16.957-9.5a2.14,2.14,0,0,0,1.007-1.693c0-.624-.456-.874-1.015-.561" transform="translate(-278.952 -158.98)" fill="#a5ffff"/>
                    <path id="Trazado_82" data-name="Trazado 82" d="M346.533,174.551l-9.474,5.308a2.131,2.131,0,0,0-1.01,1.693c0,.622.458.872,1.015.559l9.474-5.306a2.14,2.14,0,0,0,1.007-1.693c0-.631-.456-.874-1.012-.561" transform="translate(-274.588 -163.491)" fill="#a5ffff"/>
                    <path id="Trazado_83" data-name="Trazado 83" d="M316.275,189.039A6.282,6.282,0,0,0,313.328,194c0,1.817,1.338,2.553,2.967,1.639a6.285,6.285,0,0,0,2.955-4.957c0-1.824-1.338-2.56-2.974-1.644" transform="translate(-306.626 -144.448)" fill="#a5ffff"/>
                    <path id="Trazado_84" data-name="Trazado 84" d="M328.421,193.379l-4.27,2.392a2.142,2.142,0,0,0-1.007,1.693c0,.622.455.872,1.015.559l4.268-2.39a2.14,2.14,0,0,0,1.007-1.693c0-.624-.455-.875-1.012-.561" transform="translate(-292.787 -138.292)" fill="#a5ffff"/>
                  </g>
                </g>
              </g>
              <g id="Grupo_43" data-name="Grupo 43" transform="translate(211.488 785.048)">
                <g id="Grupo_40" data-name="Grupo 40">
                  <path id="Trazado_85" data-name="Trazado 85" d="M535.094,547.36V460L364.731,364.466v87.359Z" transform="translate(-364.731 -364.466)" fill="url(#linear-gradient-41)"/>
                  <path id="Trazado_86" data-name="Trazado 86" d="M365.15,364.566l-.419.235V451.69l77.89-43.68Z" transform="translate(-364.731 -364.331)" fill="url(#linear-gradient-42)"/>
                </g>
                <g id="Grupo_41" data-name="Grupo 41" transform="translate(0 130.108)">
                  <path id="Trazado_87" data-name="Trazado 87" d="M535.094,603V515.644L364.731,420.109v87.359Z" transform="translate(-364.731 -420.109)" fill="url(#linear-gradient-41)"/>
                  <path id="Trazado_88" data-name="Trazado 88" d="M365.15,420.209l-.419.235v86.889l77.89-43.68Z" transform="translate(-364.731 -419.975)" fill="url(#linear-gradient-42)"/>
                </g>
                <g id="Grupo_42" data-name="Grupo 42" transform="translate(0 260.217)">
                  <path id="Trazado_89" data-name="Trazado 89" d="M535.094,658.646V571.287L364.731,475.752v87.359Z" transform="translate(-364.731 -475.752)" fill="url(#linear-gradient-41)"/>
                  <path id="Trazado_90" data-name="Trazado 90" d="M365.15,475.852l-.419.235v86.889l77.89-43.68Z" transform="translate(-364.731 -475.618)" fill="url(#linear-gradient-42)"/>
                </g>
              </g>
              <g id="Grupo_46" data-name="Grupo 46" transform="translate(545.881 0)">
                <g id="Grupo_45" data-name="Grupo 45" transform="translate(0 0)" style="isolation: isolate">
                  <g id="Grupo_44" data-name="Grupo 44">
                    <path id="Trazado_91" data-name="Trazado 91" d="M668.14,201.77l-122.822-68.8-.206,70.443,122.822,68.8.206-70.443" transform="translate(-444.792 110.779)" fill="#a5ffff" opacity="0.561"/>
                    <path id="Trazado_92" data-name="Trazado 92" d="M641.384,220.735l-76.2-42.686-.077,26.171,76.2,42.686.077-26.171" transform="translate(-416.601 171.108)" fill="#a5ffff" opacity="0.561"/>
                    <path id="Trazado_93" data-name="Trazado 93" d="M602.156,143.682l-23.474-13.149-.076,26.171,23.474,13.149.077-26.171" transform="translate(-397.567 107.518)" fill="#a5ffff" opacity="0.561"/>
                    <path id="Trazado_94" data-name="Trazado 94" d="M523.132,144.665s8.671-32.233,21.092-25.274,14.887,34.375,24.649,39.844,10.3-10.775,16.335-7.4,6.068,21.18,12.37,24.708,10.773-11.039,21.022-5.3c12.664,7.094,20.008,38.1,20.008,38.1L523.132,144.665m123.984,8.67L514.979,79.315l-.222,76.442,132.134,74.018.224-76.44" transform="translate(-487.592 -79.315)" fill="#a5ffff" opacity="0.561"/>
                    <path id="Trazado_95" data-name="Trazado 95" d="M539.324,97.017c-12.421-6.959-21.092,25.274-21.092,25.274l115.477,64.686s-7.343-31.005-20.008-38.1c-10.25-5.743-14.732,8.82-21.022,5.3s-6.348-21.334-12.37-24.708-6.57,12.865-16.335,7.4-12.226-32.885-24.649-39.844" transform="translate(-482.692 -56.942)" fill="#b4ffff"/>
                    <path id="Trazado_96" data-name="Trazado 96" d="M538.727,176.1l.036-12.281.036-12.278,9.527,11.479,9.527,11.495-9.563.8-9.563.786m7.748-41.619c-16.6-9.3-30.11-1.843-30.166,16.679s13.37,41.081,29.97,50.38,30.125,1.836,30.178-16.686-13.368-41.067-29.983-50.373" transform="translate(-485.403 107.442)" fill="#a5ffff" opacity="0.561"/>
                    <path id="Trazado_97" data-name="Trazado 97" d="M525.683,139.483l-.036,12.28-.036,12.28,9.563-.786,9.563-.8-9.527-11.493-9.527-11.48" transform="translate(-472.287 119.496)" fill="#b8ffff" opacity="0.808"/>
                    <path id="Trazado_98" data-name="Trazado 98" d="M531.894,196.521c-3.714-2.083-6.729-7.148-6.717-11.291s3.046-5.834,6.762-3.751a14.313,14.313,0,0,1,6.729,11.31c-.012,4.141-3.046,5.82-6.774,3.732m47.038-4.15-75.293-42.178-.154,53.142,75.29,42.175-75.29-42.175.024-8.165,13.973-7.712,14.151,23.778,28.57-15.783,18.627,31.307.1-34.389" transform="translate(-503.485 133.829)" fill="#a5ffff" opacity="0.561"/>
                    <path id="Trazado_99" data-name="Trazado 99" d="M560.2,174.126l-28.57,15.783-14.15-23.779-13.974,7.713-.024,8.164,75.291,42.176.055-18.751L560.2,174.126" transform="translate(-503.485 155.157)" fill="#b4ffff"/>
                    <path id="Trazado_100" data-name="Trazado 100" d="M519.248,164.085c-3.716-2.083-6.75-.4-6.762,3.751s3,9.208,6.717,11.291,6.762.409,6.774-3.732a14.312,14.312,0,0,0-6.729-11.31" transform="translate(-490.794 151.223)" fill="#b4ffff"/>
                  </g>
                </g>
              </g>
            </g>
            <g id="Grupo_107" data-name="Grupo 107" transform="translate(0 537.345)">
              <path id="Trazado_177" data-name="Trazado 177" d="M172.015,258.532v361.8L342.378,715.87,512,620.333v-361.8Z" transform="translate(-172.015 -258.531)" opacity="0.561" fill="url(#linear-gradient-47)" style="mix-blend-mode: overlay;isolation: isolate"/>
              <g id="Grupo_95" data-name="Grupo 95" transform="translate(0 183.597)">
                <g id="Grupo_94" data-name="Grupo 94">
                  <g id="Grupo_93" data-name="Grupo 93" style="isolation: isolate">
                    <g id="Grupo_92" data-name="Grupo 92">
                      <path id="Trazado_178" data-name="Trazado 178" d="M512,432.585,342.378,528.122,172.015,432.587,342.378,337.05Z" transform="translate(-172.015 -337.05)" fill="url(#linear-gradient)"/>
                    </g>
                    <path id="Trazado_179" data-name="Trazado 179" d="M412.329,377.907v361.8L242.705,835.246v-361.8Z" transform="translate(-72.343 -282.372)" fill="url(#linear-gradient-2)"/>
                    <path id="Trazado_180" data-name="Trazado 180" d="M342.378,473.443v361.8L172.015,739.71v-361.8Z" transform="translate(-172.015 -282.371)" fill="url(#linear-gradient-3)"/>
                  </g>
                </g>
                <path id="Trazado_181" data-name="Trazado 181" d="M242.705,484.45l169.624-95.537v-3.971L242.705,480.479Z" transform="translate(-72.343 -272.956)" fill="#ff65eb"/>
                <path id="Trazado_182" data-name="Trazado 182" d="M172.015,388.914,342.378,484.45v-3.971L172.015,384.943Z" transform="translate(-172.015 -272.955)" fill="#ff20ce"/>
              </g>
              <g id="Grupo_105" data-name="Grupo 105" transform="translate(197.614 243.138)">
                <path id="Trazado_183" data-name="Trazado 183" d="M297.49,395.67c-9.866-5.528-25.82-5.551-35.622-.023-9.845,5.551-9.751,14.516.116,20.044s25.777,5.525,35.622-.026C307.407,410.137,307.356,401.2,297.49,395.67Z" transform="translate(-253.279 -323.704)" fill="#1a9bdb" opacity="0.4" style="mix-blend-mode: multiply;isolation: isolate"/>
                <path id="Trazado_184" data-name="Trazado 184" d="M273.688,419.28s-1.289.157-1.528.638a33.229,33.229,0,0,0-.349,5.174,33.1,33.1,0,0,0,6.565,4.815c3.172,1.578,5.914,2.266,7.141,1.228s.468-2.233-2.142-4.291-5.131-7.569-5.131-7.564Z" transform="translate(-228.923 -286.545)" fill="#103450"/>
                <path id="Trazado_185" data-name="Trazado 185" d="M277.192,413.9s-1.287-.166-1.646.241a33.655,33.655,0,0,0-1.692,4.917,32.257,32.257,0,0,0,5.09,6.276c2.653,2.31,5.126,3.65,6.584,2.948s1.036-2.046-.95-4.679-2.979-8.586-2.981-8.581Z" transform="translate(-226.038 -293.793)" fill="#103450"/>
                <path id="Trazado_186" data-name="Trazado 186" d="M257.756,391.8c-.1,5.853.68,15.15,3.793,17.221,4.743,3.161,24.23,17.682,24.23,17.682l5.3,29.874s3.3,3.175,8.442,0c0,0-3.456-33.591-4.2-36.54S276.578,398.1,276.578,398.1Z" transform="translate(-248.747 -323.317)" fill="#103450"/>
                <path id="Trazado_187" data-name="Trazado 187" d="M265.514,390.488c-1.629,5.635-2.762,12.309-.123,14.93,2.856,2.839,32.412,11.39,32.412,11.39l-8.753,28.562s2.364,3.884,8.167,2.081c0,0,15.761-32.635,15.812-35.67s-29.754-17.041-29.754-17.041Z" transform="translate(-240.187 -325.076)" fill="#103450"/>
                <g id="Grupo_104" data-name="Grupo 104" transform="translate(22.287 60.002)">
                  <g id="Grupo_102" data-name="Grupo 102">
                    <g id="Grupo_101" data-name="Grupo 101" style="isolation: isolate">
                      <g id="Grupo_96" data-name="Grupo 96" transform="translate(21.625 17.322)">
                        <path id="Trazado_188" data-name="Trazado 188" d="M301.159,395.879l-28.924,16.309a.321.321,0,0,0,.142-.3L301.3,395.582A.321.321,0,0,1,301.159,395.879Z" transform="translate(-272.234 -395.582)" fill="#011c63"/>
                      </g>
                      <g id="Grupo_97" data-name="Grupo 97" transform="translate(21.767 16.715)">
                        <path id="Trazado_189" data-name="Trazado 189" d="M272.3,411.632l28.925-16.309,0,.607-28.925,16.309Z" transform="translate(-272.293 -395.323)" fill="#011c63"/>
                      </g>
                      <g id="Grupo_98" data-name="Grupo 98" transform="translate(0.001 4.297)">
                        <path id="Trazado_190" data-name="Trazado 190" d="M263.262,406.321l28.925-16.309L313.773,402.1l-28.925,16.309Z" transform="translate(-263.262 -390.012)" fill="#fcfefb"/>
                      </g>
                      <g id="Grupo_99" data-name="Grupo 99" transform="translate(12.267 10.811)">
                        <path id="Trazado_191" data-name="Trazado 191" d="M300.225,397.585c.436.243.46.648,0,.9L278.5,410.74a1.847,1.847,0,0,1-1.608,0l-8.223-4.6c-.436-.246-.417-.648.017-.893l21.731-12.253a1.777,1.777,0,0,1,1.586-.012Z" transform="translate(-268.351 -392.798)" fill="#103450"/>
                      </g>
                      <path id="Trazado_192" data-name="Trazado 192" d="M272.8,420.687l8.97-15.367,28.925-16.309-8.968,15.367a.225.225,0,0,1-.092.1l-28.924,16.309A.221.221,0,0,0,272.8,420.687Z" transform="translate(-249.941 -387.054)" fill="#fcfefb"/>
                      <g id="Grupo_100" data-name="Grupo 100" transform="translate(0 16.309)">
                        <path id="Trazado_193" data-name="Trazado 193" d="M294.405,395.149l.243.248a1.654,1.654,0,0,1,.439,1.709l-8.97,15.367c-.337.708-1.313.412-1.574.267l-20.3-11.371a2.1,2.1,0,0,1-.986-1.653l0-.271,21.586,12.094Z" transform="translate(-263.261 -395.149)" fill="#fcfefb"/>
                      </g>
                      <path id="Trazado_194" data-name="Trazado 194" d="M276.184,404.483l28.925-16.309.243.248a1.654,1.654,0,0,1,.439,1.709L276.866,406.44a1.654,1.654,0,0,0-.439-1.709Z" transform="translate(-245.04 -388.174)" fill="#fcfefb"/>
                    </g>
                  </g>
                  <g id="Grupo_103" data-name="Grupo 103" transform="translate(16.882 9.371)">
                    <path id="Trazado_195" data-name="Trazado 195" d="M281.887,394.277c.19.108.2.283,0,.4l-7.182,4.048a.808.808,0,0,1-.7,0l-3.6-2.016c-.193-.108-.183-.283.007-.39l7.182-4.048a.772.772,0,0,1,.694,0Z" transform="translate(-270.266 -392.182)" fill="#103450"/>
                  </g>
                </g>
                <path id="Trazado_196" data-name="Trazado 196" d="M271.892,379.955s3.179,7.836,3.839,9.97,8.146,14.948,8.587,15.592,5.943,4.917,5.943,5.558a2.171,2.171,0,0,1-2.2,2.046c-1.762.2-6.495-3.136-6.495-3.136s-1.207,2.956-1.706-.594.928-2.991-.282-4.807c0,0-7.922-5.151-9.792-11.773a23.93,23.93,0,0,1-.219-12.178Z" transform="translate(-233.033 -339.172)" fill="#ffc6a0"/>
                <path id="Trazado_197" data-name="Trazado 197" d="M275.473,389.352c-1.458-6.577-4.521-15.178-7.432-15.519l2.678,18.774A11.582,11.582,0,0,0,275.473,389.352Z" transform="translate(-234.234 -347.365)" fill="#fcfefb"/>
                <path id="Trazado_198" data-name="Trazado 198" d="M265.975,376.15a37.213,37.213,0,0,0-9.36,5.27l2.738,37.415s5.724,4.064,17.419,1.094c9.529-2.42,12.033-6.313,12.033-6.313s.87-18.337-.024-27.257-4.63-12.292-4.63-12.292c-2.077-.613-6.664-.355-6.664-.355Z" transform="translate(-250.344 -347.599)" fill="#fcfefb"/>
                <path id="Trazado_199" data-name="Trazado 199" d="M274.96,364.122a23.762,23.762,0,0,0-12.175.72c-6.01,2.184-2.5,10.489-.733,14.4s3,2.49,3,2.49l13.1-5.123s.388-.4.135-5.7S274.96,364.122,274.96,364.122Z" transform="translate(-246.397 -361.003)" fill="#103450"/>
                <path id="Trazado_200" data-name="Trazado 200" d="M262.557,385.542l-.263-8.593a2.028,2.028,0,0,1-1.846-2.532c.383-2.366,2.668-.811,3.07-.115,0,0,.513-8.153,4.965-8.937s8.767.143,8.881,2.247.258,9.456,0,12.187-2.463,3.851-6.531,3.741l.28,4.422s-2.041,1.452-7.736.1Z" transform="translate(-245.002 -359.066)" fill="#ffc6a0"/>
                <path id="Trazado_201" data-name="Trazado 201" d="M270.756,373.37a3.152,3.152,0,0,1,1.084.154,5.242,5.242,0,0,1,1.971,3.489,12.14,12.14,0,0,1-.689,3.736l-3.69-3.227-2.318,4.347a9.583,9.583,0,0,1-3.434-1.726,12.626,12.626,0,0,1-3.181-3.608c.636-1.571,1.07-2.509,1.07-2.509.152-.36.853-.528.853-.528s3.928,3.458,7.011,3.629C269.433,377.128,270.532,376.63,270.756,373.37Z" transform="translate(-244.868 -347.984)" fill="#103450"/>
                <path id="Trazado_202" data-name="Trazado 202" d="M262.525,396.376c1.178-2.911,3.784-9.935,3.068-13.623a7.522,7.522,0,0,0-5.309-5.776c-1.841,2.037-4.5,8.761-6.271,14.373C256.874,392.986,259.674,394.721,262.525,396.376Z" transform="translate(-254.013 -343.156)" fill="#fcfefb"/>
                <path id="Trazado_203" data-name="Trazado 203" d="M282.3,367.542a6.691,6.691,0,0,0-1.241-2.282c-2.986-3.547-7.326-1.471-11.17-2.116a19.559,19.559,0,0,0-2.694-.627,6.306,6.306,0,0,0-5.936,3.316c-.169.383-.342.8-.494,1.225a6.631,6.631,0,0,0-.419,2.018c-.022,1.417.658,2.761.8,4.16.21,2.023,1.427,4.218,2.555,6.115.345-.1.689-.182,1.034-.269a5.264,5.264,0,0,1,.6-2.717c.658-1.356,1.27-2.829.458-4.249,2.28,1.155,2.694,1.281,5.374.8,1.665-.3,3.3.5,4.866,1.132s3.461,1.076,4.873.168a4.38,4.38,0,0,0,1.706-3.283A8.236,8.236,0,0,0,282.3,367.542Z" transform="translate(-245.092 -362.513)" fill="#103450"/>
                <path id="Trazado_204" data-name="Trazado 204" d="M255.672,383.784s-2,9.919-.236,11.913,18.5,11.673,19.882,13.062,6.008,5.233,9.117,5.165,4.695,2.778,6.251,3.063,1.318-3.606.858-5.093c-.552-1.777-4.295-2.1-4.295-2.1s4.034-1.922-2.292-1.12l-3.651-.587-18.5-17.2.369-2.956Z" transform="translate(-253.031 -334.048)" fill="#ffc6a0"/>
              </g>
              <g id="Grupo_106" data-name="Grupo 106" transform="translate(95.532 74.722)" opacity="0.6">
                <path id="Trazado_205" data-name="Trazado 205" d="M236.818,464.524l-.048-17.189,12.047-6.748.051,17.189-12.05,6.748m45.869-25.7-.075-25.868,12.047-6.748.075,25.868-12.048,6.748m-45.917,8.507-.031-10.637,12.047-6.748.031,10.637-12.047,6.748m22.991,4.337-.089-30.124,12.033-6.741.089,30.124-12.033,6.741m45.852-25.686-.118-40.761,12.047-6.748.118,40.761-12.048,6.748m-23-13.026-.048-16.022,12.047-6.748.048,16.022-12.047,6.748m-22.941,8.589-.053-18.664,12.033-6.741.053,18.664-12.033,6.741m45.823-36.323-.075-25.232,12.048-6.751.075,25.235-12.047,6.748M227.9,480.6c-.537.3-.971.063-.974-.519l-.236-81.21a2.041,2.041,0,0,1,.966-1.625c.523-.292.954-.054.957.547l.234,80.13,105.4-59.043c.54-.3.971-.063.974.538a2.045,2.045,0,0,1-.966,1.606L227.9,480.6m20.728-106.183c-1.063.594-1.928.117-1.93-1.069a4.074,4.074,0,0,1,1.916-3.22L279.368,352.9c1.063-.594,1.928-.117,1.93,1.066a4.084,4.084,0,0,1-1.916,3.222l-30.759,17.231m37.266-20.876c-1.06.594-1.926.117-1.93-1.066a4.077,4.077,0,0,1,1.918-3.222l7.093-3.975c1.063-.594,1.926-.117,1.93,1.069a4.076,4.076,0,0,1-1.918,3.22l-7.093,3.975m-58.268,33.019-.014-5.044,11.539-6.465.014,5.044-11.539,6.465m41.526-34.4a1.435,1.435,0,0,1-1.371.133,1.3,1.3,0,0,1-.557-1.2l.043-.454.092-.447.183-.482.231-.456a3.873,3.873,0,0,1,1.366-1.359,1.484,1.484,0,0,1,1.371-.175l.231.2.171.283.125.325.031.412a3.69,3.69,0,0,1-.55,1.821,3.975,3.975,0,0,1-1.369,1.4m-20.555,11.516c-1.063.6-1.928.117-1.93-1.066a4.078,4.078,0,0,1,1.916-3.222l14.9-8.343c1.06-.6,1.926-.117,1.928,1.066a4.078,4.078,0,0,1-1.916,3.222l-14.894,8.343m26.51-14.85c-1.06.594-1.926.117-1.928-1.066a4.074,4.074,0,0,1,1.916-3.222l17.848-10c1.063-.6,1.926-.117,1.93,1.066a4.084,4.084,0,0,1-1.918,3.222l-17.848,10M227.59,375.824l-.014-5.044,11.539-6.463.014,5.044-11.539,6.463m114.9-84.568L217.422,361.313a12.276,12.276,0,0,0-5.767,9.692l.376,128.71c.01,3.552,2.6,4.985,5.8,3.194L342.9,432.85a12.244,12.244,0,0,0,5.767-9.673l-.376-128.71c-.012-3.552-2.605-5-5.806-3.21" transform="translate(-211.655 -290.487)" fill="#00edf9"/>
                <path id="Trazado_206" data-name="Trazado 206" d="M218.858,336.217a2.041,2.041,0,0,0-.966,1.625l.236,81.21c0,.582.436.821.974.519L325.457,360a2.046,2.046,0,0,0,.966-1.606c0-.6-.434-.839-.974-.538l-105.4,59.043-.234-80.13c0-.6-.434-.839-.957-.547" transform="translate(-202.861 -229.454)" fill="#a5ffff"/>
                <path id="Trazado_207" data-name="Trazado 207" d="M234.124,354.68l-12.048,6.749.05,17.189,12.048-6.749-.05-17.189" transform="translate(-196.962 -204.581)" fill="#fdf7fb"/>
                <path id="Trazado_208" data-name="Trazado 208" d="M243.612,343.655l-12.033,6.74.088,30.123,12.033-6.74-.088-30.123" transform="translate(-183.562 -219.334)" fill="#fdf7fb"/>
                <path id="Trazado_209" data-name="Trazado 209" d="M253.146,339.979,241.1,346.728l.076,25.869,12.048-6.749-.076-25.869" transform="translate(-170.141 -224.254)" fill="#fdf7fb"/>
                <path id="Trazado_210" data-name="Trazado 210" d="M262.641,328.118l-12.048,6.749.119,40.759,12.048-6.749-.119-40.759" transform="translate(-156.753 -240.126)" fill="#fdf7fb"/>
                <path id="Trazado_211" data-name="Trazado 211" d="M234.111,350.131l-12.048,6.749.031,10.636,12.048-6.749-.031-10.636" transform="translate(-196.98 -210.668)" fill="#a5ffff"/>
                <path id="Trazado_212" data-name="Trazado 212" d="M243.59,335.673l-12.033,6.74.054,18.664,12.033-6.74-.054-18.664" transform="translate(-183.594 -230.016)" fill="#a5ffff"/>
                <path id="Trazado_213" data-name="Trazado 213" d="M253.126,333.127l-12.048,6.749.047,16.022,12.048-6.749-.047-16.022" transform="translate(-170.169 -233.424)" fill="#a5ffff"/>
                <path id="Trazado_214" data-name="Trazado 214" d="M262.61,317.326l-12.048,6.749.074,25.234,12.048-6.749-.074-25.234" transform="translate(-156.796 -254.569)" fill="#a5ffff"/>
                <path id="Trazado_215" data-name="Trazado 215" d="M229.8,322.062l-11.54,6.465.015,5.043,11.54-6.464-.015-5.044" transform="translate(-202.341 -248.232)" fill="#fdf7fb"/>
                <path id="Trazado_216" data-name="Trazado 216" d="M229.814,326.654l-11.54,6.464.015,5.043,11.54-6.464-.015-5.043" transform="translate(-202.323 -242.086)" fill="#fdf7fb"/>
                <path id="Trazado_217" data-name="Trazado 217" d="M242.993,316.535l-14.9,8.343a4.078,4.078,0,0,0-1.916,3.222c0,1.183.868,1.662,1.93,1.066l14.894-8.343a4.078,4.078,0,0,0,1.916-3.222c0-1.183-.868-1.662-1.928-1.066" transform="translate(-191.174 -255.971)" fill="#a5ffff"/>
                <path id="Trazado_218" data-name="Trazado 218" d="M236.627,315.2a3.872,3.872,0,0,0-1.366,1.359l-.231.456-.183.482-.092.447-.043.454a1.3,1.3,0,0,0,.557,1.2,1.435,1.435,0,0,0,1.371-.133,3.975,3.975,0,0,0,1.369-1.4,3.69,3.69,0,0,0,.549-1.821l-.031-.412-.125-.325-.171-.283-.231-.2a1.484,1.484,0,0,0-1.371.175" transform="translate(-179.146 -257.785)" fill="#a5ffff"/>
                <path id="Trazado_219" data-name="Trazado 219" d="M256.946,309.476l-17.848,10a4.074,4.074,0,0,0-1.916,3.222c0,1.183.868,1.66,1.928,1.066l17.848-10a4.084,4.084,0,0,0,1.918-3.222c0-1.183-.868-1.663-1.93-1.066" transform="translate(-175.662 -265.418)" fill="#a5ffff"/>
                <path id="Trazado_220" data-name="Trazado 220" d="M258.868,317.326,228.11,334.557a4.074,4.074,0,0,0-1.916,3.22c0,1.186.868,1.662,1.93,1.069l30.759-17.231a4.084,4.084,0,0,0,1.916-3.222c0-1.183-.868-1.66-1.93-1.066" transform="translate(-191.155 -254.911)" fill="#a5ffff"/>
                <path id="Trazado_221" data-name="Trazado 221" d="M250.668,314.067l-7.093,3.975a4.077,4.077,0,0,0-1.918,3.222c0,1.183.87,1.66,1.93,1.066l7.093-3.975a4.077,4.077,0,0,0,1.918-3.22c0-1.185-.868-1.663-1.93-1.069" transform="translate(-169.353 -259.272)" fill="#a5ffff"/>
              </g>
            </g>
          </g>
          <g id="Grupo_111" data-name="Grupo 111" transform="translate(198.626 1008.085)">
            <g id="Grupo_110" data-name="Grupo 110">
              <g id="Grupo_109" data-name="Grupo 109" style="isolation: isolate">
                <g id="Grupo_108" data-name="Grupo 108">
                  <path id="Trazado_222" data-name="Trazado 222" d="M135.47,446.033,109,460.941,82.418,446.034,109,431.126Z" transform="translate(-82.418 -431.126)" fill="url(#linear-gradient-51)"/>
                </g>
                <path id="Trazado_223" data-name="Trazado 223" d="M119.917,437.5V802.833L93.449,817.74V452.409Z" transform="translate(-66.865 -422.594)" fill="url(#linear-gradient-2)"/>
                <path id="Trazado_224" data-name="Trazado 224" d="M109,452.409V817.74L82.418,802.833V437.5Z" transform="translate(-82.418 -422.594)" fill="url(#linear-gradient-3)"/>
              </g>
            </g>
            <path id="Trazado_225" data-name="Trazado 225" d="M109,431.126,82.418,446.034V811.365L109,826.272l26.469-14.908V446.033Z" transform="translate(-82.418 -431.126)" fill="url(#linear-gradient-54)"/>
          </g>
        </g>
      </g>
    </g>
  </g>
</svg>
