<svg id="Grupo_40119" data-name="Grupo 40119" xmlns="http://www.w3.org/2000/svg" width="14.916" height="14.916" viewBox="0 0 14.916 14.916">
  <path id="Trazado_10383" data-name="Trazado 10383" d="M22.516,22.773H13.257A.257.257,0,0,1,13,22.516V13.257A.257.257,0,0,1,13.257,13h9.259a.257.257,0,0,1,.257.257v9.259A.257.257,0,0,1,22.516,22.773Zm-9-.514h8.744V13.514H13.514Z" transform="translate(-10.428 -10.428)" fill="#fff"/>
  <path id="Trazado_10384" data-name="Trazado 10384" d="M5.829,23.514H3.257a.257.257,0,0,1,0-.514H5.829a.257.257,0,0,1,0,.514Z" transform="translate(-3 -17.856)" fill="#fff"/>
  <path id="Trazado_10385" data-name="Trazado 10385" d="M5.829,31.514H3.257a.257.257,0,0,1,0-.514H5.829a.257.257,0,0,1,0,.514Z" transform="translate(-3 -23.799)" fill="#fff"/>
  <path id="Trazado_10386" data-name="Trazado 10386" d="M5.829,39.514H3.257a.257.257,0,0,1,0-.514H5.829a.257.257,0,0,1,0,.514Z" transform="translate(-3 -29.741)" fill="#fff"/>
  <path id="Trazado_10387" data-name="Trazado 10387" d="M51.829,23.514H49.257a.257.257,0,0,1,0-.514h2.572a.257.257,0,0,1,0,.514Z" transform="translate(-37.17 -17.856)" fill="#fff"/>
  <path id="Trazado_10388" data-name="Trazado 10388" d="M51.829,31.514H49.257a.257.257,0,0,1,0-.514h2.572a.257.257,0,0,1,0,.514Z" transform="translate(-37.17 -23.799)" fill="#fff"/>
  <path id="Trazado_10389" data-name="Trazado 10389" d="M51.829,39.514H49.257a.257.257,0,0,1,0-.514h2.572a.257.257,0,0,1,0,.514Z" transform="translate(-37.17 -29.741)" fill="#fff"/>
  <path id="Trazado_10390" data-name="Trazado 10390" d="M23.257,6.086A.257.257,0,0,1,23,5.829V3.257a.257.257,0,0,1,.514,0V5.829A.257.257,0,0,1,23.257,6.086Z" transform="translate(-17.856 -3)" fill="#fff"/>
  <path id="Trazado_10391" data-name="Trazado 10391" d="M31.257,6.086A.257.257,0,0,1,31,5.829V3.257a.257.257,0,0,1,.514,0V5.829A.257.257,0,0,1,31.257,6.086Z" transform="translate(-23.799 -3)" fill="#fff"/>
  <path id="Trazado_10392" data-name="Trazado 10392" d="M39.257,6.086A.257.257,0,0,1,39,5.829V3.257a.257.257,0,0,1,.514,0V5.829A.257.257,0,0,1,39.257,6.086Z" transform="translate(-29.741 -3)" fill="#fff"/>
  <path id="Trazado_10393" data-name="Trazado 10393" d="M23.257,52.086A.257.257,0,0,1,23,51.829V49.257a.257.257,0,0,1,.514,0v2.572A.257.257,0,0,1,23.257,52.086Z" transform="translate(-17.856 -37.17)" fill="#fff"/>
  <path id="Trazado_10394" data-name="Trazado 10394" d="M31.257,52.086A.257.257,0,0,1,31,51.829V49.257a.257.257,0,0,1,.514,0v2.572A.257.257,0,0,1,31.257,52.086Z" transform="translate(-23.799 -37.17)" fill="#fff"/>
  <path id="Trazado_10395" data-name="Trazado 10395" d="M39.257,52.086A.257.257,0,0,1,39,51.829V49.257a.257.257,0,0,1,.514,0v2.572A.257.257,0,0,1,39.257,52.086Z" transform="translate(-29.741 -37.17)" fill="#fff"/>
  <path id="Trazado_10396" data-name="Trazado 10396" d="M24.944,25.2H18.257A.257.257,0,0,1,18,24.944V18.257A.257.257,0,0,1,18.257,18h6.687a.257.257,0,0,1,.257.257v6.687A.257.257,0,0,1,24.944,25.2Zm-6.43-.514h6.172V18.514H18.514Z" transform="translate(-14.142 -14.142)" fill="#fff"/>
  <path id="Trazado_10397" data-name="Trazado 10397" d="M27.372,27.514H23.257a.257.257,0,0,1,0-.514h4.115a.257.257,0,0,1,0,.514Z" transform="translate(-17.856 -20.828)" fill="#fff"/>
  <path id="Trazado_10398" data-name="Trazado 10398" d="M27.372,35.514H23.257a.257.257,0,1,1,0-.514h4.115a.257.257,0,1,1,0,.514Z" transform="translate(-17.856 -26.77)" fill="#fff"/>
</svg>
