<svg xmlns="http://www.w3.org/2000/svg" width="35.162" height="46.5" viewBox="0 0 35.162 46.5">
  <g id="Grupo_40168" data-name="Grupo 40168" transform="translate(-248.197 -1682)">
    <path id="Trazado_512" data-name="Trazado 512" d="M58.7,51.85c9.722,0,17.661-3.97,17.661-15.8,0-7.939-3.646-14.907-8.912-18.552a61.511,61.511,0,0,1-8.668.648,60.614,60.614,0,0,1-8.668-.648C44.764,21.146,41.2,28.113,41.2,36.052,41.037,47.88,48.977,51.85,58.7,51.85ZM57,25.763V23.981a.726.726,0,0,1,.729-.729h1.944a.726.726,0,0,1,.729.729v1.7a4.408,4.408,0,0,1,3.889,4.051.869.869,0,0,1-.162.486.735.735,0,0,1-.567.243H61.534a.626.626,0,0,1-.648-.567A1.121,1.121,0,0,0,59.833,29H58.05a1.761,1.761,0,0,0-1.782,1.539,1.494,1.494,0,0,0,.405,1.3,1.912,1.912,0,0,0,1.3.567h1.539a5.216,5.216,0,0,1,3.808,1.7,5.054,5.054,0,0,1,1.3,3.97,5.25,5.25,0,0,1-4.132,4.456v1.782a.726.726,0,0,1-.729.729H57.726A.726.726,0,0,1,57,44.316v-1.7a4.408,4.408,0,0,1-3.889-4.051.869.869,0,0,1,.162-.486.735.735,0,0,1,.567-.243h2.025a.626.626,0,0,1,.648.567,1.121,1.121,0,0,0,1.053.891h1.782a1.761,1.761,0,0,0,1.782-1.539,1.494,1.494,0,0,0-.405-1.3,1.912,1.912,0,0,0-1.3-.567h-1.3a5.291,5.291,0,0,1-5.347-4.618A5.2,5.2,0,0,1,57,25.763Z" transform="translate(207 1676.65)" fill="#05f5ff"/>
    <path id="Trazado_513" data-name="Trazado 513" d="M53.146,11.331a53.159,53.159,0,0,0,7.453.486,54,54,0,0,0,7.453-.486l1.863-6.562a1.786,1.786,0,0,0-2.268-2.187,23.258,23.258,0,0,1-14.1,0,1.786,1.786,0,0,0-2.268,2.187Z" transform="translate(205.099 1679.498)" fill="#05f5ff"/>
  </g>
</svg>
