<svg xmlns="http://www.w3.org/2000/svg" width="44.659" height="44.68" viewBox="0 0 44.659 44.68">
  <g id="Grupo_40167" data-name="Grupo 40167" transform="translate(-11.56 -13.112)">
    <path id="Trazado_510" data-name="Trazado 510" d="M22.481,40.041A15.989,15.989,0,1,1,38.453,56.025,16,16,0,0,1,22.481,40.041Zm15.8-.132c-.2-.08-.324-.128-.448-.182L32.36,37.343c-.752-.328-1.5-.667-2.26-.975a.856.856,0,0,0-1.116.456.868.868,0,0,0,.4,1.142,3.329,3.329,0,0,0,.3.142l8.832,3.857c1,.435,1.536.087,1.537-.993q0-3.886,0-7.773c0-.39.007-.78-.005-1.17a.85.85,0,0,0-.617-.85c-.617-.2-1.151.241-1.154.975-.006,2.048,0,4.1,0,6.143C38.277,38.81,38.277,39.324,38.277,39.909Z" transform="translate(-4.577 -4.593)" fill="#05f5ff"/>
    <path id="Trazado_511" data-name="Trazado 511" d="M48.963,48.971c.026-.414.049-.809.077-1.2.039-.565-.215-.929-.678-.967s-.781.26-.82.833c-.085,1.265-.17,2.529-.238,3.795-.037.686.348,1,1.021.881q1.766-.319,3.534-.633c.562-.1.861-.429.792-.879-.072-.469-.486-.706-1.054-.606l-1.053.184c.444-.555.838-1.019,1.2-1.508a21.771,21.771,0,0,0,4.35-15.633A22.327,22.327,0,1,0,27.862,56.964a22.373,22.373,0,0,0,10.544.371,1.079,1.079,0,0,0,1-.866.984.984,0,0,0-1.2-1.137,22.952,22.952,0,0,1-4.606.446A20.33,20.33,0,1,1,53.831,31.565a19.98,19.98,0,0,1-4.407,17c-.106.129-.221.25-.335.372C49.074,48.949,49.042,48.948,48.963,48.971Z" transform="translate(0)" fill="#05f5ff"/>
  </g>
</svg>
