<svg id="Grupo_40166" data-name="Grupo 40166" xmlns="http://www.w3.org/2000/svg" width="40.996" height="41" viewBox="0 0 40.996 41">
  <path id="Trazado_507" data-name="Trazado 507" d="M109.824,90.01a3.271,3.271,0,0,0-3.259-3.272,3.272,3.272,0,0,0-2.509-6.045,3.272,3.272,0,0,0-4.629-4.625,3.272,3.272,0,0,0-6.045-2.509,3.272,3.272,0,0,0-6.545,0A3.286,3.286,0,0,0,85.074,71.8a3.273,3.273,0,0,0-4.281,4.263,3.272,3.272,0,0,0-4.625,4.629,3.272,3.272,0,0,0-2.509,6.045,3.272,3.272,0,0,0,0,6.545,3.272,3.272,0,0,0,2.509,6.045,3.272,3.272,0,0,0,4.629,4.625,3.274,3.274,0,0,0,6.049,2.5,3.272,3.272,0,0,0,6.545,0,3.271,3.271,0,0,0,6.045-2.5,3.272,3.272,0,0,0,4.625-4.629,3.272,3.272,0,0,0,2.509-6.045,3.277,3.277,0,0,0,3.259-3.268Zm-10.679-3.1-1,1L92.882,93.17l-3.406,3.406a2.494,2.494,0,0,1-3.482.018c-.152-.143-.3-.281-.451-.42Q83.32,94.092,81.1,92.014a2.462,2.462,0,0,1,3.464-3.5c.152.138.3.281.451.42.884.83,1.772,1.661,2.656,2.487q2.283-2.29,4.571-4.571l3.406-3.406a2.462,2.462,0,1,1,3.5,3.464Z" transform="translate(-69.609 -69.516)" fill="#05f5ff"/>
  <g id="Grupo_40166-2" data-name="Grupo 40166" transform="translate(0 0)">
    <path id="Trazado_508" data-name="Trazado 508" d="M295.434,335.414l-5.482,5.482-2.737,2.737-1.388,1.388c-.085.085-.17.165-.259.241.138-.112-.031.013-.054.031l-.107.067c-.054.031-.112.058-.17.089-.174.089.1-.027-.018,0s-.259.076-.388.107c-.045.009-.147.009.022,0-.063,0-.121.013-.183.013-.1,0-.205,0-.308-.009-.205-.009.161.04-.036,0l-.121-.027a3.316,3.316,0,0,1-.357-.112c.179.071-.013-.013-.045-.027-.058-.031-.112-.063-.165-.094-.036-.022-.071-.049-.107-.071-.174-.112.107.107-.049-.036-.228-.21-.451-.42-.679-.629q-1.42-1.326-2.835-2.656c-.46-.433-.924-.866-1.384-1.3-.094-.089-.183-.174-.268-.272s-.009-.009.009.013a1.759,1.759,0,0,1-.1-.152c-.027-.045-.152-.321-.08-.138a2.191,2.191,0,0,1-.107-.344.6.6,0,0,1-.036-.174c-.022.183,0,.031,0-.031,0-.1-.009-.2,0-.3a1.11,1.11,0,0,1,.009-.121c.013-.2-.04.165,0-.031.031-.116.054-.232.094-.348.013-.036.1-.21.009-.036l.054-.107a2.7,2.7,0,0,1,.188-.308c-.013.022-.1.12-.009.013a1.782,1.782,0,0,1,.125-.134c.031-.031.063-.062.094-.089s.067-.058.1-.085c-.076.058-.076.058,0,0,.107-.067.214-.129.326-.188.174-.094-.147.04.04-.018.058-.018.116-.04.174-.054s.12-.027.179-.04c.192-.045-.165,0,.031-.009a3.313,3.313,0,0,1,.366-.009c.04,0,.241.031.036,0,.063.009.12.022.179.036s.121.027.179.045c.022,0,.241.08.138.045s.071.036.076.036a2.085,2.085,0,0,1,.219.121c.036.022.071.045.107.071.071.054.067.049,0-.009.031.027.067.054.1.085,1.076.955,2.1,1.969,3.152,2.951a.79.79,0,0,0,1.1,0l5.9-5.9,1.451-1.451c.223-.223.446-.455.679-.674.045-.045.094-.085.143-.125-.143.116.022-.009.045-.027.054-.036.107-.067.161-.1.018-.009.232-.107.13-.067s.076-.027.08-.027l.179-.054.179-.04c.2-.045-.165,0,.036,0,.1,0,.2-.009.3,0l.183.013c-.214-.022.049.013.094.027.1.022.2.058.295.089-.179-.062.009,0,.04.022.058.027.112.058.165.089s.107.067.156.1c-.152-.1.018.013.04.036a2.573,2.573,0,0,1,.263.277c-.12-.143.009.013.027.04a2.468,2.468,0,0,1,.125.214c.018.031.094.219.022.036.022.058.045.112.063.174s.036.116.049.174.045.308.022.089a2.454,2.454,0,0,1,.013.362c0,.062-.009.12-.013.183.013-.214-.009.045-.022.089a3.128,3.128,0,0,1-.107.348c.063-.183,0,0-.022.036q-.054.107-.121.214c-.018.027-.143.187-.022.045a1.276,1.276,0,0,1-.156.192.78.78,0,0,0,1.1,1.1,3.245,3.245,0,0,0-4.08-5,11.465,11.465,0,0,0-1.629,1.527l-3.241,3.241-3.634,3.634h1.1c-1.022-.96-2.045-1.924-3.071-2.879a3.373,3.373,0,0,0-3.259-.826,3.214,3.214,0,0,0-2.219,2.429,3.357,3.357,0,0,0,.071,1.656,3.476,3.476,0,0,0,1,1.5q1.513,1.42,3.027,2.835l1.482,1.388a3.911,3.911,0,0,0,1.58.978,3.309,3.309,0,0,0,3.263-.879c.991-.987,1.973-1.973,2.964-2.964l6.647-6.647a.785.785,0,0,0,0-1.1A.808.808,0,0,0,295.434,335.414Z" transform="translate(-266.447 -318.577)" fill="#05f5ff"/>
    <path id="Trazado_509" data-name="Trazado 509" d="M93.683,73.241a4.054,4.054,0,0,0-4.04-4.054c.129.487.263.969.393,1.455a4.051,4.051,0,0,0-3.112-7.478c.254.433.509.871.759,1.3a4.053,4.053,0,0,0-5.732-5.732c.433.254.871.509,1.3.759a4.05,4.05,0,0,0-5.817-4.951,4,4,0,0,0-1.656,1.844c.487.129.969.263,1.455.393a4.049,4.049,0,0,0-7.308-2.388,4.045,4.045,0,0,0-.8,2.393c.487-.129.969-.263,1.455-.393A4.051,4.051,0,0,0,63.107,59.5c.433-.254.871-.509,1.3-.759a4.055,4.055,0,0,0-5.737,5.732c.254-.433.509-.871.759-1.3a4.051,4.051,0,0,0-4.951,5.817,4,4,0,0,0,1.844,1.656c.129-.487.263-.969.393-1.455A4.051,4.051,0,0,0,54.326,76.5a4.045,4.045,0,0,0,2.393.8c-.129-.487-.263-.969-.393-1.455a4.053,4.053,0,0,0,.638,7.616,4.025,4.025,0,0,0,2.469-.138c-.254-.433-.509-.871-.759-1.3a4.055,4.055,0,0,0,5.732,5.737c-.433-.254-.871-.509-1.3-.759a4.05,4.05,0,0,0,5.817,4.951A4,4,0,0,0,70.576,90.1c-.487-.129-.969-.263-1.455-.393a4.051,4.051,0,0,0,7.308,2.4,4.045,4.045,0,0,0,.8-2.393c-.487.129-.969.263-1.455.393a4.053,4.053,0,0,0,7.616-.638A4.026,4.026,0,0,0,83.25,87c-.433.254-.871.509-1.3.759a4.053,4.053,0,0,0,5.732-5.732c-.254.433-.509.871-.759,1.3a4.05,4.05,0,0,0,4.951-5.817,4,4,0,0,0-1.844-1.656c-.129.487-.263.969-.393,1.455a4.07,4.07,0,0,0,4.049-4.071.781.781,0,1,0-1.562,0c0,.1,0,.192-.013.29-.013.219.022-.08,0,.04-.009.045-.018.094-.027.138a2.042,2.042,0,0,1-.071.272c-.018.054-.036.112-.054.165s-.027.076,0,0a3.116,3.116,0,0,1-.277.509c-.027.036-.054.076-.076.112-.062.094.076-.08,0,0s-.134.152-.205.228a2.644,2.644,0,0,1-.2.183c-.054.045-.062.049,0,0-.036.027-.071.054-.112.08a3.721,3.721,0,0,1-.5.281c-.107.054.165-.058-.036.013-.045.013-.085.031-.129.045-.089.027-.179.054-.268.071L90,75.71c-.147.031.054,0-.036,0-.107,0-.214.018-.321.018a.781.781,0,0,0-.4,1.455,3.225,3.225,0,0,1,.393.2c.063.036.121.076.183.116s.174.143.063.04c.107.094.21.183.308.286.049.049.094.1.138.156a.777.777,0,0,0,.058.067c-.112-.138-.018-.027,0,.009.076.116.147.232.214.353.027.054.049.107.076.161.054.1-.04-.129-.009-.022.013.036.027.076.04.112a3.089,3.089,0,0,1,.112.4,1.1,1.1,0,0,1,.036.205s-.009-.152-.009-.062c0,.049.009.1.013.147a2.82,2.82,0,0,1,0,.388c0,.076-.027.219,0,.063-.013.08-.027.161-.045.241a3.189,3.189,0,0,1-.125.415c0,.013-.04.112-.009.027s-.018.04-.031.062c-.036.071-.071.143-.112.21s-.08.134-.125.2c-.027.045-.152.192-.054.085a3.651,3.651,0,0,1-.339.357c-.058.049-.112.1-.174.147.116-.089-.036.018-.08.049a3.384,3.384,0,0,1-.393.219c-.018.009-.143.063-.058.027s-.062.022-.08.027c-.094.031-.192.062-.29.085-.049.013-.1.022-.147.031-.013,0-.161.027-.085.018s-.067,0-.085.009c-.049,0-.1.009-.152.009-.1,0-.205,0-.308,0-.04,0-.076,0-.116-.009-.228-.022.063.027-.063-.009a6.789,6.789,0,0,1-.652-.192.786.786,0,0,0-.884.357.8.8,0,0,0,.121.946c.054.054.107.112.156.17.022.022.04.049.063.076-.009-.009-.071-.1-.022-.031a4.085,4.085,0,0,1,.254.4c.031.054.058.112.085.17.063.129,0,.009,0-.013.009.031.022.058.031.085a3.173,3.173,0,0,1,.121.415c.013.071.027.138.04.21-.027-.156,0-.009,0,.067a3.43,3.43,0,0,1,0,.429c0,.049-.036.259,0,.067-.009.063-.022.121-.031.183a3.587,3.587,0,0,1-.125.442c-.009.031-.022.058-.031.085,0-.009.058-.125.018-.045s-.063.134-.1.2a4.074,4.074,0,0,1-.237.375c-.022.031-.094.1,0,0-.022.022-.04.049-.063.076-.049.058-.1.112-.156.17s-.107.1-.165.152l-.085.071c-.063.054.067-.04-.045.031a3.642,3.642,0,0,1-.4.237.657.657,0,0,1-.1.045c.121-.062.018-.009-.009,0-.089.031-.179.063-.268.089-.067.018-.134.036-.205.049-.036.009-.25.04-.174.031.094-.009-.022,0-.036,0a.733.733,0,0,0-.1.009c-.094,0-.187,0-.277,0-.036,0-.071,0-.1,0,0,0-.21-.018-.1,0s-.022,0-.036,0c-.058-.009-.116-.022-.17-.036a3.247,3.247,0,0,1-.5-.156c.013,0,.1.049.027.009l-.161-.08a2.749,2.749,0,0,1-.246-.147c-.031-.018-.058-.045-.089-.063-.1-.058.076.067-.018-.009s-.17-.143-.25-.223a.781.781,0,0,0-1.3.763,3.415,3.415,0,0,1,.138.411c.018.067.036.138.049.205a.631.631,0,0,0,.018.089c.022.134,0-.027,0-.031s.018.384.018.415c0,.067-.009.138-.009.205a.3.3,0,0,1-.009.089c.063-.134.013-.076,0,0a3.952,3.952,0,0,1-.094.4c-.018.058-.036.112-.054.165-.009.027-.054.143-.013.04s-.009.022-.018.04a3.99,3.99,0,0,1-.2.357c-.036.058-.076.112-.116.17-.009.013-.071.089-.009.013s-.036.04-.049.058a3.087,3.087,0,0,1-.268.272c-.054.049-.107.089-.161.134.129-.107-.036.022-.085.054a3.091,3.091,0,0,1-.375.21l-.085.04c-.1.045.116-.031-.013,0-.089.027-.179.063-.268.089a2.687,2.687,0,0,1-.272.063c-.018,0-.179.027-.089.018s-.049,0-.054,0a5.035,5.035,0,0,1-.58-.009c-.094,0,0,0,.018,0l-.152-.027a2.448,2.448,0,0,1-.259-.067c-.071-.022-.143-.054-.219-.071-.121-.036.094.049-.009,0-.04-.018-.08-.036-.121-.058-.161-.08-.3-.179-.451-.272-.1-.062.089.08,0,0a.942.942,0,0,0-.1-.085c-.067-.058-.129-.121-.192-.183s-.121-.134-.179-.2.013.013.018.022c-.031-.049-.067-.094-.1-.138a3.641,3.641,0,0,1-.277-.522.782.782,0,0,0-.884-.357.8.8,0,0,0-.571.754c0,.071,0,.147-.009.219s-.031.228,0,.067a3.944,3.944,0,0,1-.1.442c-.022.067-.045.134-.067.2-.045.134.063-.116-.027.058a3.235,3.235,0,0,1-.214.384c-.036.058-.08.112-.116.17s.027-.04.031-.045c-.027.027-.049.058-.076.089a2.921,2.921,0,0,1-.286.29c-.031.031-.228.174-.067.062-.049.031-.094.067-.143.1a3.984,3.984,0,0,1-.379.219c-.174.089.076-.022-.058.027-.067.022-.129.049-.2.071-.143.045-.29.076-.437.107-.04.009-.147.009.027,0a.665.665,0,0,0-.094.009l-.219.013c-.08,0-.165,0-.246,0a.864.864,0,0,1-.107-.009c-.219-.013.08.022-.04,0-.161-.036-.321-.067-.478-.116-.036-.013-.25-.094-.1-.031a2.5,2.5,0,0,1-.246-.121,3.234,3.234,0,0,1-.4-.259c.107.076-.018-.018-.054-.049a2.576,2.576,0,0,1-.2-.187c-.062-.067-.121-.134-.179-.2.094.107.018.022,0,0-.031-.049-.062-.094-.094-.138-.049-.076-.094-.156-.138-.237-.018-.031-.031-.062-.045-.089s-.08-.187-.045-.094-.009-.027-.009-.036c-.018-.054-.036-.107-.054-.165-.027-.089-.049-.179-.071-.268-.009-.036-.013-.067-.022-.1-.045-.214,0,.089,0-.036,0-.107-.018-.214-.018-.321a.781.781,0,0,0-1.455-.4,3.224,3.224,0,0,1-.2.393c-.036.063-.076.121-.116.183s-.143.174-.04.063c-.094.107-.183.21-.286.308-.049.049-.1.094-.156.138a.776.776,0,0,0-.067.058c.138-.112.027-.018-.009,0-.116.076-.232.147-.353.214-.054.027-.107.049-.161.076-.094.054.129-.04.022-.009l-.112.04a3.087,3.087,0,0,1-.4.112.792.792,0,0,1-.205.036s.152-.009.063-.009c-.049,0-.1.009-.147.013a2.82,2.82,0,0,1-.388,0c-.076,0-.219-.027-.063,0-.08-.013-.161-.027-.241-.045a3.483,3.483,0,0,1-.42-.125c-.013,0-.112-.04-.027-.009s-.04-.018-.063-.031c-.071-.036-.143-.071-.21-.112s-.134-.08-.2-.125c-.045-.027-.192-.152-.085-.054a3.651,3.651,0,0,1-.357-.339c-.049-.058-.1-.112-.147-.174.089.116-.018-.036-.049-.08a3.384,3.384,0,0,1-.219-.393c-.009-.018-.062-.143-.027-.058s-.022-.062-.027-.08c-.031-.094-.062-.192-.085-.29-.013-.049-.022-.1-.031-.147,0-.013-.027-.161-.018-.085.013.094,0-.067-.009-.085,0-.049-.009-.1-.009-.152,0-.1,0-.205,0-.308a1.016,1.016,0,0,0,.009-.116c-.009.134,0-.036.009-.063a3.4,3.4,0,0,1,.192-.652.792.792,0,0,0-.357-.884.8.8,0,0,0-.946.121c-.054.054-.112.107-.17.156-.022.022-.049.04-.076.063.009-.009.1-.071.031-.022a3.361,3.361,0,0,1-.4.25c-.054.031-.112.058-.17.085-.129.063-.009,0,.013,0-.031.009-.058.022-.085.031a2.6,2.6,0,0,1-.415.116l-.21.04c.156-.027.009,0-.067,0a3.433,3.433,0,0,1-.429,0c-.049,0-.259-.036-.067,0-.062-.009-.121-.022-.183-.031a3.588,3.588,0,0,1-.442-.125c-.031-.009-.058-.022-.085-.031.009,0,.125.058.045.018s-.134-.062-.2-.1a4.077,4.077,0,0,1-.375-.237c-.031-.022-.1-.094,0,0-.022-.022-.049-.04-.076-.063-.058-.049-.112-.1-.17-.156s-.1-.107-.152-.165l-.071-.085c-.054-.062.04.067-.031-.045a3.642,3.642,0,0,1-.237-.4.658.658,0,0,1-.045-.1c.063.121.009.018,0-.009-.031-.089-.062-.179-.089-.268-.018-.067-.036-.134-.049-.205-.009-.036-.04-.25-.031-.174.009.094,0-.022,0-.036a.733.733,0,0,0-.009-.1c0-.094,0-.187,0-.277,0-.036,0-.071,0-.1,0,0,.018-.21,0-.1s0-.022,0-.036c.009-.058.022-.116.036-.17a3.246,3.246,0,0,1,.156-.5c0,.013-.049.1-.009.027l.08-.161a2.75,2.75,0,0,1,.147-.246c.018-.031.045-.058.063-.089.058-.1-.067.076.009-.018s.143-.17.223-.25a.781.781,0,0,0-.763-1.3,3.416,3.416,0,0,1-.411.138c-.067.018-.138.036-.205.049a.633.633,0,0,0-.089.018c-.134.022.027,0,.031,0s-.384.018-.415.018c-.067,0-.138-.009-.205-.009a.3.3,0,0,1-.089-.009c.134.063.076.013,0,0a3.953,3.953,0,0,1-.4-.094l-.165-.054c-.027-.009-.143-.054-.04-.013s-.022-.009-.04-.018a3.988,3.988,0,0,1-.357-.2c-.058-.036-.112-.076-.17-.116-.013-.009-.089-.071-.013-.009s-.04-.036-.058-.049a3.089,3.089,0,0,1-.272-.268c-.049-.054-.089-.107-.134-.161.107.129-.022-.036-.054-.085a3.091,3.091,0,0,1-.21-.375c-.013-.027-.027-.058-.04-.085-.045-.1.031.116,0-.013-.027-.089-.062-.179-.089-.268a2.685,2.685,0,0,1-.062-.272c0-.018-.027-.179-.013-.089s0-.049,0-.054a5.037,5.037,0,0,1,.009-.58c0-.094,0,0,0,.018.009-.049.018-.1.027-.152a2.445,2.445,0,0,1,.067-.259c.022-.071.054-.143.071-.219.036-.121-.049.094,0-.009.018-.04.036-.08.058-.121.08-.161.179-.3.272-.451.063-.1-.08.089,0,0a.941.941,0,0,0,.085-.1c.058-.067.121-.129.183-.192s.134-.121.2-.179-.013.013-.022.018c.049-.031.094-.067.138-.1a3.641,3.641,0,0,1,.522-.277.782.782,0,0,0,.357-.884.8.8,0,0,0-.754-.571c-.071,0-.147,0-.219-.009s-.228-.031-.067,0a3.953,3.953,0,0,1-.442-.1l-.2-.067c-.134-.045.116.062-.058-.027a3.236,3.236,0,0,1-.384-.214c-.058-.036-.112-.08-.17-.116s.04.027.045.031c-.027-.027-.058-.049-.089-.076a2.921,2.921,0,0,1-.29-.286c-.031-.031-.174-.228-.062-.067-.031-.049-.067-.094-.1-.143a3.985,3.985,0,0,1-.219-.379c-.089-.174.022.076-.027-.058-.022-.067-.049-.129-.067-.2-.045-.143-.076-.29-.107-.437-.009-.04-.009-.147,0,.027a.666.666,0,0,0-.009-.094c0-.071-.009-.143-.013-.219s0-.165,0-.246a.867.867,0,0,1,.009-.107c.013-.219-.022.08,0-.04.036-.161.067-.321.116-.478.013-.036.094-.25.031-.1a2.5,2.5,0,0,1,.121-.246,3.231,3.231,0,0,1,.259-.4c-.076.107.018-.018.049-.054a2.576,2.576,0,0,1,.187-.2c.067-.062.134-.121.2-.179-.107.094-.022.018,0,0,.045-.031.094-.062.138-.094.076-.049.156-.094.237-.138.031-.018.062-.031.089-.045s.188-.08.094-.045.027-.009.036-.009L56,70.871c.089-.027.179-.049.268-.071.036-.009.067-.013.1-.022.214-.045-.089,0,.036,0,.107,0,.214-.018.321-.018a.781.781,0,0,0,.4-1.455,3.582,3.582,0,0,1-.393-.2,1.844,1.844,0,0,1-.156-.1c-.049-.031-.21-.17-.089-.058-.107-.094-.21-.183-.308-.286-.049-.049-.094-.1-.138-.156a.777.777,0,0,0-.058-.067c.036.045.067.089.013.018-.076-.116-.152-.228-.219-.353-.031-.058-.058-.125-.089-.183s.018.045.022.049c-.018-.045-.036-.094-.054-.138-.04-.121-.076-.246-.107-.371-.013-.067-.022-.138-.04-.205-.022-.089.009.063.009.063a.786.786,0,0,1-.013-.147,3.754,3.754,0,0,1,0-.388c0-.027.018-.246.009-.138s0-.018.009-.045.013-.08.022-.121a3.456,3.456,0,0,1,.121-.42c.009-.031.022-.058.031-.089-.009.031-.067.138,0,0l.107-.214c.04-.067.08-.138.121-.2.022-.036.049-.076.076-.112,0-.009.076-.1.018-.027s.013-.018.022-.022c.031-.031.058-.067.085-.1.058-.062.121-.125.183-.187.049-.045.1-.085.147-.129.112-.094.018-.013,0,0l.08-.054a3.006,3.006,0,0,1,.42-.241l.089-.04c.063-.031-.089.027.049-.018.1-.031.2-.067.3-.094a2.512,2.512,0,0,1,.308-.062c-.125.018.107,0,.143-.009.107,0,.21,0,.317,0l.161.013c.134.013-.1-.018.031,0a3.83,3.83,0,0,1,.67.192.784.784,0,0,0,.884-.357.8.8,0,0,0-.121-.946c-.054-.054-.107-.112-.156-.17-.022-.022-.04-.049-.062-.076.009.009.071.1.022.031a3.363,3.363,0,0,1-.25-.4c-.031-.054-.058-.112-.085-.17-.062-.129,0-.009,0,.013-.009-.031-.022-.058-.031-.085a2.6,2.6,0,0,1-.116-.415c-.013-.071-.027-.138-.04-.21.027.156,0,.009,0-.067a3.43,3.43,0,0,1,0-.429c0-.049.036-.259,0-.067.009-.062.022-.121.031-.183a3.589,3.589,0,0,1,.125-.442c.009-.031.022-.058.031-.085,0,.009-.058.125-.018.045s.063-.134.1-.2a4.077,4.077,0,0,1,.237-.375c.022-.031.094-.1,0,0,.022-.022.04-.049.063-.076.049-.058.1-.112.156-.17s.107-.1.165-.152l.085-.071c.063-.054-.067.04.045-.031a3.641,3.641,0,0,1,.4-.237.657.657,0,0,1,.1-.045c-.121.062-.018.009.009,0,.089-.031.179-.062.268-.089.067-.018.134-.036.205-.049.036-.009.25-.04.174-.031-.094.009.022,0,.036,0a.733.733,0,0,0,.1-.009c.094,0,.187,0,.277,0,.036,0,.071,0,.1,0,0,0,.21.018.1,0s.022,0,.036,0c.058.009.116.022.17.036a3.244,3.244,0,0,1,.5.156c-.013,0-.1-.049-.027-.009l.161.08a2.746,2.746,0,0,1,.246.147c.031.018.058.045.089.063.1.058-.076-.067.018.009s.17.143.25.223a.781.781,0,0,0,1.3-.763,3.416,3.416,0,0,1-.138-.411c-.018-.067-.036-.138-.049-.21a.633.633,0,0,0-.018-.089c-.022-.134,0,.027,0,.031s-.018-.384-.018-.415c0-.067.009-.138.009-.205a.3.3,0,0,1,.009-.089c-.062.134-.013.076,0,0a3.952,3.952,0,0,1,.094-.4c.018-.058.036-.112.054-.165.009-.027.054-.143.013-.04s.009-.022.018-.04a3.987,3.987,0,0,1,.2-.357c.036-.058.076-.112.116-.17.009-.013.071-.089.009-.013s.036-.04.049-.058a3.09,3.09,0,0,1,.268-.272l.161-.134c-.129.107.036-.022.085-.054a3.092,3.092,0,0,1,.375-.21l.085-.04c.1-.045-.116.031.013,0,.089-.027.179-.062.268-.089a2.683,2.683,0,0,1,.272-.063c.018,0,.179-.027.089-.018s.049,0,.054,0a5.035,5.035,0,0,1,.58.009c.094,0,0,0-.018,0l.152.027a2.443,2.443,0,0,1,.259.067c.071.022.143.054.219.071.121.036-.094-.049.009,0,.04.018.08.036.121.058.161.08.3.179.451.272.1.063-.089-.08,0,0a.942.942,0,0,0,.1.085c.067.058.129.121.192.183s.121.134.179.2-.013-.013-.018-.022c.031.049.067.094.1.138a3.643,3.643,0,0,1,.277.522.782.782,0,0,0,.884.357.8.8,0,0,0,.571-.754c0-.071,0-.147.009-.219s.031-.228,0-.067a3.944,3.944,0,0,1,.1-.442c.022-.067.045-.134.067-.2.045-.134-.062.116.027-.058a3.234,3.234,0,0,1,.214-.384c.036-.058.08-.112.116-.17s-.027.04-.031.045c.027-.027.049-.058.076-.089a2.921,2.921,0,0,1,.286-.29c.031-.031.228-.174.067-.063.049-.031.094-.067.143-.1a3.984,3.984,0,0,1,.379-.219c.174-.089-.076.022.058-.027.067-.022.129-.049.2-.071.143-.045.29-.076.438-.107.04-.009.147-.009-.027,0a.667.667,0,0,0,.094-.009l.219-.013c.08,0,.165,0,.246,0a.866.866,0,0,1,.107.009c.219.013-.08-.022.04,0,.161.036.321.067.478.116.036.013.25.094.1.031a2.5,2.5,0,0,1,.246.121,3.231,3.231,0,0,1,.4.259c-.107-.076.018.018.054.049a2.583,2.583,0,0,1,.2.188c.063.067.121.134.179.2-.094-.107-.018-.022,0,0,.031.045.063.094.094.138.049.076.094.156.138.237.018.031.031.063.045.089s.08.188.045.094.009.027.009.036c.018.054.036.107.054.165.027.089.049.179.071.268.009.036.013.067.022.1.045.214,0-.089,0,.036,0,.107.018.214.018.321a.781.781,0,0,0,1.455.4,3.224,3.224,0,0,1,.2-.393c.036-.062.076-.121.116-.183s.143-.174.04-.062c.094-.107.183-.21.286-.308.049-.049.1-.094.156-.138a.774.774,0,0,0,.067-.058c-.138.112-.027.018.009,0,.116-.076.232-.147.353-.214.054-.027.107-.049.161-.076.1-.054-.129.04-.022.009l.112-.04a3.09,3.09,0,0,1,.4-.112,1.1,1.1,0,0,1,.205-.036s-.152.009-.062.009c.049,0,.1-.009.147-.013a2.82,2.82,0,0,1,.388,0c.076,0,.219.027.063,0,.08.013.161.027.241.045a3.188,3.188,0,0,1,.415.125c.013,0,.112.04.027.009s.04.018.063.031c.071.036.143.071.21.112s.134.08.2.125c.045.027.192.152.085.054a3.652,3.652,0,0,1,.357.339c.049.058.1.112.147.174-.089-.116.018.036.049.08a3.384,3.384,0,0,1,.219.393c.009.018.058.143.027.058s.022.063.027.08c.031.094.063.192.085.29.013.049.022.1.031.147,0,.013.027.161.018.085-.013-.094,0,.067.009.085,0,.049.009.1.009.152,0,.1,0,.205,0,.308a1.016,1.016,0,0,0-.009.116c.009-.134,0,.036-.009.062a3.4,3.4,0,0,1-.192.652.786.786,0,0,0,.357.884.8.8,0,0,0,.946-.121c.054-.054.112-.107.17-.156.022-.022.049-.04.076-.062-.009.009-.1.071-.031.022a4.085,4.085,0,0,1,.4-.254c.054-.031.112-.058.17-.085.129-.063.009,0-.013,0,.031-.009.058-.022.085-.031a2.594,2.594,0,0,1,.415-.116l.21-.04c-.156.027-.009,0,.067,0a3.433,3.433,0,0,1,.429,0c.049,0,.259.036.067,0,.063.009.121.022.183.031a3.587,3.587,0,0,1,.442.125c.031.009.058.022.085.031-.009,0-.125-.058-.045-.018s.134.062.2.1a4.078,4.078,0,0,1,.375.237c.031.022.1.094,0,0,.022.022.049.04.076.062.058.049.112.1.17.156s.1.107.152.165l.071.085c.054.062-.04-.067.031.045a3.642,3.642,0,0,1,.237.4.657.657,0,0,1,.045.1c-.062-.121-.009-.018,0,.009.031.089.063.179.089.268.018.067.036.134.049.205.009.036.04.25.031.174-.009-.094,0,.022,0,.036a.732.732,0,0,0,.009.1c0,.094,0,.188,0,.277,0,.036,0,.071,0,.1,0,0-.018.21,0,.1s0,.022,0,.036c-.009.058-.022.116-.036.17a3.244,3.244,0,0,1-.156.5c0-.013.049-.1.009-.027l-.08.161a2.752,2.752,0,0,1-.147.246c-.018.031-.045.058-.062.089-.058.1.067-.076-.009.018s-.143.17-.223.25a.781.781,0,0,0,.763,1.3,3.415,3.415,0,0,1,.411-.138c.067-.018.138-.036.21-.049a.632.632,0,0,0,.089-.018c.134-.022-.027,0-.031,0s.384-.018.415-.018c.067,0,.138.009.205.009a.3.3,0,0,1,.089.009c-.134-.062-.076-.013,0,0a3.952,3.952,0,0,1,.4.094l.165.054c.027.009.143.054.04.013s.022.009.04.018a3.988,3.988,0,0,1,.357.2c.058.036.112.076.17.116.013.009.089.071.013.009s.04.036.058.049a3.09,3.09,0,0,1,.272.268l.134.161c-.107-.129.022.036.054.085a3.089,3.089,0,0,1,.21.375c.013.027.027.058.04.085.045.1-.031-.116,0,.013.027.089.063.179.089.268a2.688,2.688,0,0,1,.063.272c0,.018.027.179.018.089s0,.049,0,.054a5.034,5.034,0,0,1-.009.58c0,.094,0,0,0-.018-.009.049-.018.1-.027.152a2.448,2.448,0,0,1-.067.259c-.022.071-.054.143-.071.219-.036.121.049-.094,0,.009-.018.04-.036.08-.058.121-.08.161-.179.3-.272.451-.063.1.08-.089,0,0a.945.945,0,0,0-.085.1c-.058.067-.121.129-.183.192s-.134.121-.2.179.013-.013.022-.018c-.049.031-.094.067-.138.1a3.643,3.643,0,0,1-.522.277.782.782,0,0,0-.357.884.8.8,0,0,0,.754.571c.1,0,.205.009.308.018.2.013-.107-.022,0,0l.147.027c.1.022.2.045.29.076.049.013.094.031.143.049.085.031.1.04,0,0a3.566,3.566,0,0,1,.513.281c.04.027.08.058.121.085.089.058-.138-.121,0,0,.071.067.147.129.214.2s.134.143.2.214.018.027-.013-.022l.1.143c.054.08.1.165.152.25.018.036.036.071.054.1,0,0,.089.174.036.067s.018.049.027.071c.018.045.031.094.049.143a2.13,2.13,0,0,1,.076.29c.009.049.018.1.031.147.031.152,0-.094,0,0,0,.116.018.228.018.339a.791.791,0,0,0,.781.781A.756.756,0,0,0,93.683,73.241Z" transform="translate(-52.687 -52.748)" fill="#05f5ff"/>
  </g>
</svg>
