<svg xmlns="http://www.w3.org/2000/svg" xmlns:xlink="http://www.w3.org/1999/xlink" width="1970" height="1018" viewBox="0 0 1970 1018">
  <defs>
    <clipPath id="clip-path">
      <rect id="Rectángulo_17001" data-name="Rectángulo 17001" width="1970" height="1018" transform="translate(-443)" fill="none"/>
    </clipPath>
    <linearGradient id="linear-gradient" x1="0.58" y1="0.111" x2="0.421" y2="0.887" gradientUnits="objectBoundingBox">
      <stop offset="0" stop-color="#89daf4"/>
      <stop offset="1" stop-color="#008dd7"/>
    </linearGradient>
    <linearGradient id="linear-gradient-2" y1="0.5" x2="1" y2="0.5" gradientUnits="objectBoundingBox">
      <stop offset="0" stop-color="#144188"/>
      <stop offset="0.997" stop-color="#1a7cde"/>
    </linearGradient>
    <linearGradient id="linear-gradient-3" y1="0.5" x2="1" y2="0.5" gradientUnits="objectBoundingBox">
      <stop offset="0" stop-color="#144188"/>
      <stop offset="0.998" stop-color="#102465"/>
    </linearGradient>
    <linearGradient id="linear-gradient-4" x1="0.647" y1="-0.012" x2="0.186" y2="0.855" gradientUnits="objectBoundingBox">
      <stop offset="0.037" stop-color="#93fffd" stop-opacity="0"/>
      <stop offset="0.135" stop-color="#95fefd" stop-opacity="0.071"/>
      <stop offset="0.332" stop-color="#9afdfd" stop-opacity="0.251"/>
      <stop offset="0.608" stop-color="#a3fcfe" stop-opacity="0.545"/>
      <stop offset="0.951" stop-color="#b0fbfe" stop-opacity="0.941"/>
      <stop offset="1" stop-color="#b2fbff"/>
    </linearGradient>
    <linearGradient id="linear-gradient-5" x1="0.476" y1="0.85" x2="0.524" y2="0.308" gradientUnits="objectBoundingBox">
      <stop offset="0" stop-color="#0091de"/>
      <stop offset="0.094" stop-color="#0091de" stop-opacity="0.965"/>
      <stop offset="0.242" stop-color="#0093df" stop-opacity="0.863"/>
      <stop offset="0.424" stop-color="#0095e1" stop-opacity="0.698"/>
      <stop offset="0.634" stop-color="#0098e3" stop-opacity="0.475"/>
      <stop offset="0.863" stop-color="#009de6" stop-opacity="0.184"/>
      <stop offset="1" stop-color="#00a0e8" stop-opacity="0"/>
    </linearGradient>
    <linearGradient id="linear-gradient-9" x1="0.986" y1="0.501" x2="-0.233" y2="0.499" xlink:href="#linear-gradient-2"/>
    <linearGradient id="linear-gradient-10" x1="1.343" y1="0.506" x2="0.34" y2="0.489" xlink:href="#linear-gradient-2"/>
    <linearGradient id="linear-gradient-17" x1="0.642" y1="0.005" x2="0.238" y2="1.418" gradientUnits="objectBoundingBox">
      <stop offset="0" stop-color="#cdeffb"/>
      <stop offset="1" stop-color="#89daf4"/>
    </linearGradient>
    <linearGradient id="linear-gradient-18" x1="0.493" y1="0.181" x2="0.467" y2="0.901" xlink:href="#linear-gradient-4"/>
    <linearGradient id="linear-gradient-22" x1="0.521" y1="0.177" x2="0.485" y2="0.729" gradientUnits="objectBoundingBox">
      <stop offset="0" stop-color="#0276ce" stop-opacity="0"/>
      <stop offset="0.061" stop-color="#0276ce" stop-opacity="0.165"/>
      <stop offset="0.154" stop-color="#0276ce" stop-opacity="0.384"/>
      <stop offset="0.251" stop-color="#0276ce" stop-opacity="0.573"/>
      <stop offset="0.351" stop-color="#0276ce" stop-opacity="0.729"/>
      <stop offset="0.453" stop-color="#0276ce" stop-opacity="0.847"/>
      <stop offset="0.561" stop-color="#0276ce" stop-opacity="0.933"/>
      <stop offset="0.676" stop-color="#0276ce" stop-opacity="0.984"/>
      <stop offset="0.812" stop-color="#0276ce"/>
    </linearGradient>
    <linearGradient id="linear-gradient-26" x1="0.521" y1="0.177" x2="0.485" y2="0.729" gradientUnits="objectBoundingBox">
      <stop offset="0" stop-color="#006ac6" stop-opacity="0"/>
      <stop offset="0.05" stop-color="#006ac6" stop-opacity="0.133"/>
      <stop offset="0.145" stop-color="#006ac6" stop-opacity="0.361"/>
      <stop offset="0.244" stop-color="#006bc6" stop-opacity="0.561"/>
      <stop offset="0.345" stop-color="#006bc6" stop-opacity="0.718"/>
      <stop offset="0.45" stop-color="#006bc6" stop-opacity="0.843"/>
      <stop offset="0.56" stop-color="#006bc6" stop-opacity="0.929"/>
      <stop offset="0.678" stop-color="#006bc6" stop-opacity="0.984"/>
      <stop offset="0.817" stop-color="#006cc7"/>
    </linearGradient>
    <linearGradient id="linear-gradient-31" x1="0.66" y1="0.289" x2="0.276" y2="0.794" xlink:href="#linear-gradient-2"/>
    <linearGradient id="linear-gradient-32" x1="1.004" y1="0.352" x2="-0.907" y2="0.634" gradientUnits="objectBoundingBox">
      <stop offset="0.153" stop-color="#144188"/>
      <stop offset="0.997" stop-color="#1a7cde"/>
    </linearGradient>
    <linearGradient id="linear-gradient-37" x1="0.499" y1="0.097" x2="0.501" y2="0.818" xlink:href="#linear-gradient-4"/>
    <linearGradient id="linear-gradient-41" x1="0.58" y1="0.111" x2="0.421" y2="0.887" xlink:href="#linear-gradient"/>
    <linearGradient id="linear-gradient-44" x1="0.516" y1="0.177" x2="0.489" y2="0.729" gradientUnits="objectBoundingBox">
      <stop offset="0" stop-color="#0044ae" stop-opacity="0"/>
      <stop offset="0.004" stop-color="#0044ae" stop-opacity="0.012"/>
      <stop offset="0.104" stop-color="#0044ae" stop-opacity="0.271"/>
      <stop offset="0.208" stop-color="#0044ae" stop-opacity="0.494"/>
      <stop offset="0.316" stop-color="#0044ae" stop-opacity="0.678"/>
      <stop offset="0.426" stop-color="#0044ae" stop-opacity="0.82"/>
      <stop offset="0.542" stop-color="#0044ae" stop-opacity="0.922"/>
      <stop offset="0.666" stop-color="#0044ae" stop-opacity="0.98"/>
      <stop offset="0.812" stop-color="#0044ae"/>
    </linearGradient>
  </defs>
  <g id="OBJECTS" transform="translate(443)">
    <g id="Grupo_40406" data-name="Grupo 40406">
      <g id="Grupo_40405" data-name="Grupo 40405" clip-path="url(#clip-path)">
        <g id="Grupo_40316" data-name="Grupo 40316" transform="translate(1132.432 29.22)">
          <g id="Grupo_40315" data-name="Grupo 40315">
            <g id="Grupo_40309" data-name="Grupo 40309" transform="translate(0 99.334)">
              <g id="Grupo_40308" data-name="Grupo 40308" style="isolation: isolate">
                <g id="Grupo_40307" data-name="Grupo 40307">
                  <path id="Trazado_10732" data-name="Trazado 10732" d="M756.6,164.068l-53.912,31.3-54.146-31.3,54.146-31.3Z" transform="translate(-648.542 -132.773)" fill="url(#linear-gradient)"/>
                </g>
                <path id="Trazado_10733" data-name="Trazado 10733" d="M729.049,148.144V624.956l-53.912,31.3V179.44Z" transform="translate(-620.991 -116.848)" fill="url(#linear-gradient-2)"/>
                <path id="Trazado_10734" data-name="Trazado 10734" d="M702.689,179.439V656.252l-54.146-31.3V148.144Z" transform="translate(-648.542 -116.848)" fill="url(#linear-gradient-3)"/>
              </g>
            </g>
            <path id="Trazado_10735" data-name="Trazado 10735" d="M675.137,183.387l53.912-31.3v-1.3l-53.912,31.3Z" transform="translate(-620.991 -14.772)" fill="#ff65eb"/>
            <path id="Trazado_10736" data-name="Trazado 10736" d="M648.542,152.092l54.146,31.3v-1.3l-54.146-31.3Z" transform="translate(-648.542 -14.772)" fill="#ff20ce"/>
            <path id="Trazado_10737" data-name="Trazado 10737" d="M650.784,83.984l18.474,130.629,31.059,17.952,30.925-17.952L749.715,83.984Z" transform="translate(-646.221 -83.984)" opacity="0.561" fill="url(#linear-gradient-4)" style="mix-blend-mode: overlay;isolation: isolate"/>
            <g id="Grupo_40310" data-name="Grupo 40310" transform="translate(23.037 112.678)">
              <path id="Trazado_10738" data-name="Trazado 10738" d="M721.841,157.278,690.917,175.23l-31.059-17.952,31.059-17.952Z" transform="translate(-659.857 -139.327)" fill="#a5ffff"/>
            </g>
            <g id="Grupo_40314" data-name="Grupo 40314" transform="translate(18.347 14.173)">
              <path id="Trazado_10739" data-name="Trazado 10739" d="M728.663,105.569c-.206.124-.413.246-.621.371q-.709.425-1.435.839c-.224.128-.448.257-.674.383-.55.307-1.109.613-1.673.912-.145.077-.285.155-.432.23-.706.373-1.427.737-2.154,1.1-.187.092-.377.179-.566.271q-.831.4-1.678.792l-.743.336q-.825.37-1.661.727c-.224.094-.446.191-.67.285-.774.322-1.553.639-2.343.945l-.257.1q-1.063.409-2.148.794c-.252.092-.509.179-.766.269q-.864.3-1.743.588c-.259.086-.513.169-.772.25-.912.291-1.828.572-2.759.839-.1.029-.191.053-.287.079q-1.27.36-2.559.686c-.252.065-.5.128-.757.191-.908.224-1.822.44-2.743.639-.051.012-.1.024-.151.035-.965.208-1.938.4-2.917.578l-.721.128c-1.116.2-2.235.381-3.367.54l-.263.035q-1.625.223-3.268.391l-.666.069c-.916.088-1.834.167-2.759.23l-.083,0q-1.344.089-2.7.136c-.326.012-.651.02-.977.029-.529.014-1.059.026-1.59.033-.35,0-.7,0-1.051,0q-.785,0-1.57-.016c-.362-.006-.725-.012-1.089-.024-.456-.014-.914-.033-1.37-.053-.381-.018-.759-.035-1.14-.057-.458-.026-.92-.061-1.38-.094-.379-.029-.759-.057-1.14-.09-.458-.039-.916-.086-1.376-.132-.379-.039-.755-.075-1.134-.12-.468-.053-.937-.116-1.407-.177-.368-.049-.737-.1-1.105-.149-.554-.079-1.11-.171-1.663-.263-.307-.049-.613-.1-.918-.149-.707-.124-1.413-.261-2.121-.4-.165-.035-.33-.061-.5-.1a19.682,19.682,0,0,1-3.219-10.6l-.026,8.7a19.684,19.684,0,0,0,3.221,10.6l.067.014c.143.029.287.053.43.081.709.143,1.415.279,2.121.4.306.055.613.1.918.149.554.092,1.11.183,1.663.263.081.012.163.029.244.039.287.041.574.073.863.11.468.061.936.124,1.4.179.379.043.755.079,1.134.118.458.047.918.094,1.376.134.122.01.246.024.369.035.259.022.515.035.772.053.46.035.92.067,1.38.094.381.022.759.041,1.14.057.456.02.914.039,1.37.053.163.006.328.016.493.02.2,0,.4,0,.6.006q.785.015,1.568.014c.352,0,.7,0,1.053,0q.8-.009,1.59-.033c.228-.006.456,0,.682-.012.1,0,.2-.012.3-.016q1.362-.049,2.714-.136l.065,0c.927-.061,1.847-.14,2.765-.23l.267-.022c.132-.012.26-.033.391-.047q1.646-.171,3.272-.391l.263-.035c1.132-.159,2.252-.342,3.368-.54.124-.022.248-.037.373-.059s.232-.047.348-.069q1.469-.269,2.916-.578c.051-.01.1-.022.153-.035.92-.2,1.834-.415,2.742-.639.253-.061.505-.126.757-.189q1.289-.33,2.555-.686c.1-.029.2-.053.293-.081.928-.267,1.845-.548,2.757-.837.1-.033.2-.059.3-.092.159-.051.314-.108.472-.159.586-.191,1.167-.389,1.745-.59l.766-.267q1.081-.388,2.144-.794l.261-.1c.79-.305,1.57-.623,2.343-.945.224-.094.446-.189.67-.285q.837-.357,1.661-.727c.248-.11.5-.222.743-.336.566-.259,1.124-.523,1.678-.792.187-.09.379-.179.564-.271.729-.358,1.448-.721,2.156-1.093.146-.077.289-.157.434-.234q.846-.449,1.672-.91c.226-.126.45-.255.674-.383.485-.275.961-.556,1.435-.837.134-.081.273-.159.405-.238l.216-.134c.668-.407,1.327-.818,1.973-1.236l.024-8.7C729.993,104.75,729.331,105.162,728.663,105.569Z" transform="translate(-657.554 -77.075)" fill="#102465"/>
              <g id="Grupo_40311" data-name="Grupo 40311" transform="translate(0.026)">
                <path id="Trazado_10740" data-name="Trazado 10740" d="M730.623,118.2c-17.412,11.29-43.589,18.688-69.837,13.24-9.5-15.189,3.192-30.375,22.628-40.5L713.34,100.9Z" transform="translate(-657.567 -90.945)" fill="#00edf9"/>
              </g>
              <g id="Grupo_40312" data-name="Grupo 40312" transform="translate(4.279 3.052)">
                <path id="Trazado_10741" data-name="Trazado 10741" d="M723.188,116.3a91.08,91.08,0,0,1-27.832,10.925,85.328,85.328,0,0,1-33.376.709c-3.433-6.251-3.062-12.749,1.114-19.336,3.669-5.782,10.127-11.338,18.772-16.158l26.193,8.718Z" transform="translate(-659.656 -92.444)" fill="#1a6cbe"/>
              </g>
              <g id="Grupo_40313" data-name="Grupo 40313" transform="translate(20.751 17.76)">
                <path id="Trazado_10742" data-name="Trazado 10742" d="M693.874,105.893l.018,3.707H667.8l-.056-9.932h6.4l.038,6.225Z" transform="translate(-667.746 -99.668)" fill="#fdf7fb"/>
              </g>
            </g>
          </g>
          <path id="Trazado_10743" data-name="Trazado 10743" d="M735.311,202.255,752.037,83.984H653.106L669.839,202.3l-21.3,12.309V691.426l54.146,31.3,53.912-31.3V214.613Z" transform="translate(-648.542 -83.984)" fill="url(#linear-gradient-5)"/>
        </g>
        <g id="Grupo_40323" data-name="Grupo 40323" transform="translate(1161.243 -51.795)">
          <g id="Grupo_40319" data-name="Grupo 40319" transform="translate(0 279.936)">
            <g id="Grupo_40318" data-name="Grupo 40318" style="isolation: isolate">
              <g id="Grupo_40317" data-name="Grupo 40317">
                <path id="Trazado_10744" data-name="Trazado 10744" d="M1108.779,285.452l-222.558,129.2L662.693,285.454l223.528-129.2Z" transform="translate(-662.693 -156.258)" fill="url(#linear-gradient)"/>
              </g>
              <path id="Trazado_10745" data-name="Trazado 10745" d="M995.039,219.713V824.927l-222.558,129.2V348.909Z" transform="translate(-548.953 -90.519)" fill="url(#linear-gradient-2)"/>
              <path id="Trazado_10746" data-name="Trazado 10746" d="M886.221,348.907V954.121L662.693,824.928V219.714Z" transform="translate(-662.693 -90.518)" fill="url(#linear-gradient-3)"/>
            </g>
          </g>
          <path id="Trazado_10747" data-name="Trazado 10747" d="M772.481,363.169l222.558-129.2V230.64l-222.558,129.2Z" transform="translate(-548.953 200.737)" fill="#ff65eb"/>
          <path id="Trazado_10748" data-name="Trazado 10748" d="M662.693,233.974,886.221,363.168v-3.334L662.693,230.641Z" transform="translate(-662.693 200.738)" fill="#ff20ce"/>
          <g id="Grupo_40320" data-name="Grupo 40320" transform="translate(48.715 500.039)">
            <path id="Trazado_10749" data-name="Trazado 10749" d="M715.263,280.919,686.62,264.364V579.4l28.643,16.555Z" transform="translate(-686.62 -264.364)" fill="url(#linear-gradient-9)"/>
            <path id="Trazado_10750" data-name="Trazado 10750" d="M686.62,427.519l28.643,16.555v-33.11Z" transform="translate(-686.62 -112.486)" fill="url(#linear-gradient-10)"/>
          </g>
          <g id="Grupo_40321" data-name="Grupo 40321" transform="translate(97.867 528.1)">
            <path id="Trazado_10751" data-name="Trazado 10751" d="M739.4,294.7l-28.643-16.555V593.179L739.4,609.734Z" transform="translate(-710.761 -278.146)" fill="url(#linear-gradient-9)"/>
            <path id="Trazado_10752" data-name="Trazado 10752" d="M710.761,441.3,739.4,457.856v-33.11Z" transform="translate(-710.761 -126.268)" fill="url(#linear-gradient-10)"/>
          </g>
          <path id="Trazado_10753" data-name="Trazado 10753" d="M696.2,18.766l57.82,408.85L851.232,483.8l96.79-56.187,57.82-408.851Z" transform="translate(-627.978 -18.765)" opacity="0.561" fill="url(#linear-gradient-4)" style="mix-blend-mode: overlay;isolation: isolate"/>
          <g id="Grupo_40322" data-name="Grupo 40322" transform="translate(126.042 352.665)">
            <path id="Trazado_10754" data-name="Trazado 10754" d="M918.6,248.166l-96.79,56.187L724.6,248.166l97.212-56.187Z" transform="translate(-724.6 -191.979)" fill="#a5ffff"/>
          </g>
        </g>
        <g id="Grupo_40340" data-name="Grupo 40340" transform="translate(833.333 441.254)">
          <g id="Grupo_40327" data-name="Grupo 40327" transform="translate(0 146.682)">
            <g id="Grupo_40326" data-name="Grupo 40326">
              <g id="Grupo_40325" data-name="Grupo 40325" style="isolation: isolate">
                <g id="Grupo_40324" data-name="Grupo 40324">
                  <path id="Trazado_10755" data-name="Trazado 10755" d="M953.872,465.115l-222.558,129.2L507.786,465.117l223.528-129.2Z" transform="translate(-507.786 -335.921)" fill="url(#linear-gradient)"/>
                </g>
                <path id="Trazado_10756" data-name="Trazado 10756" d="M840.132,399.376V718.89l-222.558,129.2V528.572Z" transform="translate(-394.046 -270.182)" fill="url(#linear-gradient-2)"/>
                <path id="Trazado_10757" data-name="Trazado 10757" d="M731.314,528.571V848.084L507.786,718.891V399.377Z" transform="translate(-507.786 -270.181)" fill="url(#linear-gradient-3)"/>
              </g>
            </g>
            <path id="Trazado_10758" data-name="Trazado 10758" d="M617.574,542.832l222.558-129.2V410.3L617.574,539.5Z" transform="translate(-394.046 -258.862)" fill="#ff65eb"/>
            <path id="Trazado_10759" data-name="Trazado 10759" d="M507.786,413.638,731.314,542.831V539.5L507.786,410.3Z" transform="translate(-507.786 -258.861)" fill="#ff20ce"/>
          </g>
          <g id="Grupo_40332" data-name="Grupo 40332" transform="translate(100.737 196.189)">
            <g id="Grupo_40331" data-name="Grupo 40331" style="isolation: isolate">
              <path id="Trazado_10760" data-name="Trazado 10760" d="M787.835,383.052c-.016.169-.026.34-.059.509-.024.136-.065.273-.1.409-.043.161-.081.322-.139.483-.047.13-.108.259-.163.389-.073.169-.147.338-.236.5-.065.12-.143.238-.216.356-.116.189-.24.377-.379.562-.081.11-.169.216-.259.324a9.11,9.11,0,0,1-.682.733c-.088.088-.169.175-.265.261-.153.138-.324.271-.491.405-.149.12-.291.24-.452.356-.179.132-.377.257-.572.383s-.4.267-.613.4l-135.85,78.946c-6.25,3.632-16.435,3.632-22.726,0l-62.6-36.143c-3.166-1.828-4.746-4.231-4.74-6.629l-.024,8.3c-.006,2.4,1.576,4.8,4.742,6.627l62.6,36.145c6.291,3.632,16.475,3.632,22.726,0l135.85-78.946c.065-.039.132-.077.2-.116.149-.09.277-.187.417-.279.2-.126.393-.252.574-.383.159-.116.3-.238.452-.356.167-.134.336-.267.491-.405.031-.029.067-.055.1-.081.063-.059.106-.122.167-.179a9.427,9.427,0,0,0,.68-.733c.045-.053.106-.1.149-.159s.071-.112.112-.165c.138-.185.261-.373.377-.56.049-.079.114-.157.159-.236.022-.041.037-.083.057-.124.09-.165.163-.332.234-.5.043-.1.1-.193.136-.291.014-.033.018-.067.031-.1.055-.159.1-.32.136-.48.029-.108.071-.214.094-.324.006-.029,0-.057.01-.088.031-.169.043-.338.059-.507.008-.11.032-.218.037-.328,0-.047,0-.1,0-.143l.025-8.3C787.874,382.739,787.849,382.9,787.835,383.052Z" transform="translate(-557.264 -337.085)" fill="#162a56"/>
              <g id="Grupo_40328" data-name="Grupo 40328" transform="translate(0.024)">
                <path id="Trazado_10761" data-name="Trazado 10761" d="M783.121,399.106c6.291,3.632,6.326,9.533.075,13.165l-135.85,78.946c-6.25,3.632-16.435,3.632-22.726,0l-62.6-36.143c-6.291-3.632-6.324-9.533-.073-13.165l135.848-78.948c6.25-3.632,16.437-3.632,22.728,0ZM644.083,489.334l135.85-78.946c4.457-2.59,4.432-6.808-.053-9.4l-5.642-3.256-8.51.232-43.184-24.933.375-4.929-5.642-3.258c-4.485-2.59-11.768-2.59-16.223,0L565.2,443.792c-4.455,2.59-4.43,6.808.053,9.4l62.605,36.145c4.483,2.59,11.766,2.59,16.221,0" transform="translate(-557.276 -360.237)" fill="url(#linear-gradient-17)"/>
              </g>
              <g id="Grupo_40329" data-name="Grupo 40329" transform="translate(4.627 2.667)">
                <path id="Trazado_10762" data-name="Trazado 10762" d="M777.538,399.632c4.485,2.59,4.51,6.808.053,9.4l-135.85,78.946c-4.455,2.59-11.738,2.59-16.221,0l-62.605-36.145c-4.483-2.588-4.508-6.806-.053-9.4l135.85-78.946c4.455-2.59,11.738-2.59,16.223,0l5.642,3.258-.375,4.929,43.184,24.933,8.51-.232Z" transform="translate(-559.537 -361.547)" fill="#165da4"/>
              </g>
              <g id="Grupo_40330" data-name="Grupo 40330" transform="translate(4.627 2.667)">
                <path id="Trazado_10763" data-name="Trazado 10763" d="M777.538,399.632c4.485,2.59,4.51,6.808.053,9.4l-135.85,78.946c-4.455,2.59-11.738,2.59-16.221,0l-62.605-36.145c-4.483-2.588-4.508-6.806-.053-9.4l135.85-78.946c4.455-2.59,11.738-2.59,16.223,0l5.642,3.258-.375,4.929,43.184,24.933,8.51-.232Z" transform="translate(-559.537 -361.547)" fill="#165da4"/>
              </g>
            </g>
          </g>
          <g id="Grupo_40336" data-name="Grupo 40336" transform="translate(118.321 105.55)">
            <g id="Grupo_40333" data-name="Grupo 40333" transform="translate(0 118.423)" opacity="0.3" style="mix-blend-mode: multiply;isolation: isolate">
              <path id="Trazado_10764" data-name="Trazado 10764" d="M600.125,377.3c7.859,4.538,7.9,11.88.092,16.418-7.845,4.559-20.519,4.559-28.38.02s-7.936-11.9-.094-16.459C579.553,372.739,592.264,372.759,600.125,377.3Z" transform="translate(-565.901 -373.883)" fill="#1a9bdb"/>
            </g>
            <g id="Grupo_40335" data-name="Grupo 40335" transform="translate(1.469)">
              <g id="Grupo_40334" data-name="Grupo 40334">
                <path id="Trazado_10765" data-name="Trazado 10765" d="M570.806,377.275s-1.134.141-1.346.578a30.966,30.966,0,0,0-.305,4.693,29.109,29.109,0,0,0,5.776,4.365c2.791,1.433,5.2,2.056,6.281,1.114s.413-2.026-1.885-3.891-4.512-6.863-4.514-6.859Z" transform="translate(-564.001 -251.947)" fill="#103450"/>
                <path id="Trazado_10766" data-name="Trazado 10766" d="M578.014,374.375s-1.132.143-1.344.578a31.2,31.2,0,0,0-.307,4.693,29.109,29.109,0,0,0,5.776,4.365c2.791,1.433,5.2,2.056,6.283,1.116s.411-2.026-1.885-3.893-4.514-6.863-4.514-6.859Z" transform="translate(-556.533 -254.951)" fill="#103450"/>
                <path id="Trazado_10767" data-name="Trazado 10767" d="M581.918,362.9s-.086,1.49-.143,1.773-1.335,2.174-1.362,2.8a1.655,1.655,0,0,0,.651,1.144,8.7,8.7,0,0,0,.161,1.674c.136.281,1.411.1,1.551.173s.957.59,1.5.362a20.2,20.2,0,0,0,2.238-.894,29.142,29.142,0,0,0-.348-8.372c-.228-1.189-1.285-28.673-1.92-28.467C582.989,333.5,581.918,362.9,581.918,362.9Z" transform="translate(-552.335 -297.719)" fill="#ffc6a0"/>
                <path id="Trazado_10768" data-name="Trazado 10768" d="M586.987,342.976c-.564-2.72-1.256-5.874-1.851-8.05-1.252-4.579-2.16-8.134-4.833-8.211l-.912,15.529s.285,2.343.778,5A49.708,49.708,0,0,0,586.987,342.976Z" transform="translate(-553.393 -304.328)" fill="#fff"/>
                <path id="Trazado_10769" data-name="Trazado 10769" d="M569.229,351.174l-.208,58.486a7.184,7.184,0,0,0,6.988-.153s6.619-50.523,6.731-51.725c.1-1.106.935,46.128.935,46.128s4.1,2.352,7.226-.843l3.683-55.955Z" transform="translate(-564.137 -283.196)" fill="#103450"/>
                <path id="Trazado_10770" data-name="Trazado 10770" d="M576.175,328.792a32.47,32.47,0,0,0-8.236,4.781l2.411,38.922s5.035,3.683,15.325.992c8.384-2.195,10.587-5.725,10.587-5.725s.766-19.126-.022-27.215a36.093,36.093,0,0,0-4.072-13.643,23.951,23.951,0,0,0-5.864-.322Z" transform="translate(-565.258 -304.516)" fill="#fff"/>
                <path id="Trazado_10771" data-name="Trazado 10771" d="M583.791,316.273a10.91,10.91,0,0,0-5.249-.43c-3.677.391-6.77,2.176-7.387,6.12-.464,2.968.646,6.006,1.82,8.681,1.557,3.549,2.639,2.26,2.639,2.26l9.013-3.634a10.057,10.057,0,0,0,2.773-1.189c1.1-.965.741-2.616.941-3.909.269-1.729.535-3.192-.417-4.8a7.2,7.2,0,0,0-3.365-2.789C584.3,316.464,584.041,316.363,583.791,316.273Z" transform="translate(-562.038 -315.719)" fill="#103450"/>
                <path id="Trazado_10772" data-name="Trazado 10772" d="M573.78,336.156l-.232-7.794a1.821,1.821,0,0,1-1.625-2.3c.338-2.146,2.346-.735,2.7-.1,0,0,.452-7.393,4.369-8.1s7.714.13,7.814,2.038.226,8.574,0,11.051-2.166,3.492-5.745,3.392l.244,4.009s-1.794,1.317-6.806.094Z" transform="translate(-561.169 -313.762)" fill="#ffc6a0"/>
                <path id="Trazado_10773" data-name="Trazado 10773" d="M581.01,326.232a2.691,2.691,0,0,1,.953.14,4.776,4.776,0,0,1,1.735,3.164,11.293,11.293,0,0,1-.6,3.388L579.845,330l-2.04,3.942a8.317,8.317,0,0,1-3.021-1.566,11.392,11.392,0,0,1-2.8-3.272c.562-1.425.943-2.274.943-2.274.132-.326.751-.478.751-.478s3.455,3.135,6.167,3.288C579.845,329.638,580.812,329.188,581.01,326.232Z" transform="translate(-561.067 -304.827)" fill="#fff"/>
                <path id="Trazado_10774" data-name="Trazado 10774" d="M571.364,365.072s.385,1.442.5,1.706,1.745,1.861,1.9,2.468a1.655,1.655,0,0,1-.407,1.254,8.642,8.642,0,0,1,.179,1.67c-.075.3-1.36.385-1.482.482s-.819.772-1.395.658a19.918,19.918,0,0,1-2.374-.424,29.169,29.169,0,0,1-1.348-8.27c-.016-1.354.45-28.355.45-28.355.375.09,5.888,2.2,5.888,2.2Z" transform="translate(-566.299 -294.437)" fill="#ffc6a0"/>
                <path id="Trazado_10775" data-name="Trazado 10775" d="M573.925,347.2c.073-3.42.21-7.138.167-8.04-.151-3.06-.147-11.672-4.789-8.889-1.873,1.124-2.295,9.469-2.681,15.095C568.725,346.808,572.021,347.2,573.925,347.2Z" transform="translate(-566.622 -301.212)" fill="#fff"/>
              </g>
            </g>
            <path id="Trazado_10776" data-name="Trazado 10776" d="M584.783,322.033a2.76,2.76,0,0,0-.212-2.732,5.216,5.216,0,0,0-2.2-1.8c-2.142-1.036-8.14-2.168-8.307,1.553-.081,1.857,1.521,4.941,3.738,4.557.951-.167,1.513-1.057,2.559-.761.525.149,1.944,1.484,2.008.057A1.952,1.952,0,0,0,584.783,322.033Z" transform="translate(-557.443 -314.916)" fill="#103450"/>
            <path id="Trazado_10777" data-name="Trazado 10777" d="M572.648,324.434a5.7,5.7,0,0,1,2,3.706l.745.018c-.037-.987.037-1.865,0-2.852a6.816,6.816,0,0,0,1.588-5.843c-.181-.839-.682-1.767-1.537-1.843s-1.517.757-1.883,1.543A9.831,9.831,0,0,0,572.648,324.434Z" transform="translate(-558.975 -313.755)" fill="#103450"/>
          </g>
          <path id="Trazado_10778" data-name="Trazado 10778" d="M539.709,263.877c.611,37.847,40.443,285.225,40.443,285.225l.057-.012a6.161,6.161,0,0,0,3.247,3.927l62.605,36.145c4.485,2.59,11.766,2.59,16.221,0l135.85-78.946c2.207-1.285,3.308-2.966,3.319-4.652l0,0S824.5,353.844,835.75,263.877Z" transform="translate(-474.714 -263.877)" opacity="0.561" fill="url(#linear-gradient-18)" style="mix-blend-mode: overlay;isolation: isolate"/>
          <g id="Grupo_40339" data-name="Grupo 40339" transform="translate(197.901 96.224)">
            <g id="Grupo_40338" data-name="Grupo 40338" style="isolation: isolate">
              <g id="Grupo_40337" data-name="Grupo 40337">
                <path id="Trazado_10779" data-name="Trazado 10779" d="M658.707,463.795c-.884.511-1.59.106-1.594-.906a3.474,3.474,0,0,1,1.582-2.742l7.763-4.481c.882-.509,1.59-.106,1.592.908a3.465,3.465,0,0,1-1.582,2.74l-7.761,4.481M619.62,478.67c-.882.509-1.59.106-1.594-.908a3.466,3.466,0,0,1,1.584-2.718l12.937-7.47c.861-.5,1.57-.094,1.572.9a3.46,3.46,0,0,1-1.562,2.728l-12.937,7.47m-.022-7.657c-.882.509-1.59.1-1.592-.908a3.472,3.472,0,0,1,1.582-2.742l31.106-17.96c.863-.5,1.572-.094,1.574.92a3.464,3.464,0,0,1-1.562,2.73L619.6,471.012M656.86,449.5c-.884.509-1.59.106-1.594-.908a3.467,3.467,0,0,1,1.584-2.74l9.563-5.522c.884-.509,1.59-.106,1.594.908a3.473,3.473,0,0,1-1.582,2.74L656.86,449.5m17.526,5.245-.075-26.6,18.739-10.819.075,26.6-18.739,10.819m-54.811,8.588c-.882.509-1.588.106-1.592-.886a3.474,3.474,0,0,1,1.582-2.74l9.567-5.522c.882-.509,1.59-.106,1.592.908a3.467,3.467,0,0,1-1.582,2.718l-9.567,5.522m15.722-9.077c-.884.511-1.59.106-1.594-.884a3.474,3.474,0,0,1,1.582-2.742l31.108-17.96c.882-.509,1.59-.1,1.592.908a3.465,3.465,0,0,1-1.582,2.72L635.3,454.254m-15.765-6.261c-.882.509-1.59.106-1.592-.886a3.465,3.465,0,0,1,1.582-2.74L634.36,435.8c.881-.509,1.59-.106,1.592.908a3.459,3.459,0,0,1-1.582,2.718l-14.838,8.567m-.022-7.659c-.882.511-1.588.106-1.592-.906a3.471,3.471,0,0,1,1.582-2.72l57.981-33.474c.881-.509,1.59-.106,1.592.886a3.47,3.47,0,0,1-1.582,2.74L619.51,440.334m64.136-37.027c-.863.5-1.59.106-1.594-.908a3.5,3.5,0,0,1,1.584-2.718L691.4,395.2c.882-.509,1.59-.106,1.592.886a3.468,3.468,0,0,1-1.582,2.74l-7.761,4.481m-64.156,29.369c-.882.509-1.59.083-1.594-.908a3.47,3.47,0,0,1,1.584-2.74L664.915,402.8c.882-.509,1.59-.106,1.592.908a3.5,3.5,0,0,1-1.582,2.74l-45.435,26.232m52.354-30.226c-.861.5-1.57.071-1.574-.918a3.466,3.466,0,0,1,1.564-2.73l19.542-11.284c.884-.509,1.59-.1,1.594.908a3.508,3.508,0,0,1-1.584,2.743L671.843,402.45M619.467,425c-.881.509-1.59.106-1.592-.908a3.459,3.459,0,0,1,1.582-2.718l71.9-41.51c.882-.509,1.59-.106,1.592.886a3.471,3.471,0,0,1-1.582,2.74L619.467,425m-.973-11.147-.112-39.46,74.424-42.97.112,39.462L618.494,413.85m83.132-102.093-92.145,53.2a9.9,9.9,0,0,0-4.493,7.784l.366,129.056c.008,2.861,2.032,4.015,4.522,2.578l92.145-53.2a9.91,9.91,0,0,0,4.494-7.784l-.367-129.056c-.008-2.861-2.034-4.015-4.522-2.578" transform="translate(-604.987 -311.138)" fill="#00edf9" opacity="0.6"/>
                <path id="Trazado_10780" data-name="Trazado 10780" d="M685.991,321.1l-74.425,42.969.112,39.46L686.1,360.561l-.112-39.46" transform="translate(-598.171 -300.818)" fill="#a5ffff"/>
                <path id="Trazado_10781" data-name="Trazado 10781" d="M684.8,345l-71.9,41.51a3.459,3.459,0,0,0-1.582,2.718c0,1.014.711,1.417,1.592.908l71.9-41.51a3.471,3.471,0,0,0,1.582-2.74c0-.992-.711-1.395-1.592-.886" transform="translate(-598.429 -276.282)" fill="#a5ffff"/>
                <path id="Trazado_10782" data-name="Trazado 10782" d="M658.346,356.269,612.911,382.5a3.47,3.47,0,0,0-1.584,2.74c0,.992.713,1.417,1.594.908l45.435-26.232a3.5,3.5,0,0,0,1.582-2.74c0-1.014-.711-1.417-1.592-.908" transform="translate(-598.419 -264.611)" fill="#a5ffff"/>
                <path id="Trazado_10783" data-name="Trazado 10783" d="M658.156,348.765l-19.542,11.284a3.466,3.466,0,0,0-1.564,2.73c0,.989.713,1.417,1.574.918l19.542-11.281a3.508,3.508,0,0,0,1.584-2.743c0-1.012-.711-1.417-1.594-.908" transform="translate(-571.769 -272.385)" fill="#a5ffff"/>
                <path id="Trazado_10784" data-name="Trazado 10784" d="M670.9,356.484,612.92,389.958a3.471,3.471,0,0,0-1.582,2.72c0,1.012.711,1.417,1.592.906l57.981-33.474a3.47,3.47,0,0,0,1.582-2.74c0-.992-.711-1.395-1.592-.886" transform="translate(-598.407 -264.388)" fill="#a5ffff"/>
                <path id="Trazado_10785" data-name="Trazado 10785" d="M652.183,352.538l-7.761,4.481a3.5,3.5,0,0,0-1.584,2.718c0,1.014.731,1.4,1.594.908l7.761-4.481a3.468,3.468,0,0,0,1.582-2.74c0-.992-.711-1.395-1.592-.886" transform="translate(-565.773 -268.477)" fill="#a5ffff"/>
                <path id="Trazado_10786" data-name="Trazado 10786" d="M627.769,372.479l-14.839,8.568a3.465,3.465,0,0,0-1.582,2.74c0,.992.711,1.395,1.592.886l14.838-8.567a3.459,3.459,0,0,0,1.582-2.718c0-1.014-.711-1.417-1.592-.908" transform="translate(-598.396 -247.817)" fill="#a5ffff"/>
                <path id="Trazado_10787" data-name="Trazado 10787" d="M640.829,374.7l-9.563,5.522a3.467,3.467,0,0,0-1.584,2.74c0,1.014.711,1.417,1.594.908l9.565-5.522a3.473,3.473,0,0,0,1.582-2.74c0-1.014-.711-1.417-1.594-.908" transform="translate(-579.403 -245.513)" fill="#a5ffff"/>
                <path id="Trazado_10788" data-name="Trazado 10788" d="M644.069,379.156l-31.106,17.96a3.472,3.472,0,0,0-1.582,2.742c0,1.012.711,1.417,1.592.908l31.108-17.96a3.464,3.464,0,0,0,1.562-2.73c0-1.014-.71-1.417-1.574-.92" transform="translate(-598.363 -240.892)" fill="#a5ffff"/>
                <path id="Trazado_10789" data-name="Trazado 10789" d="M639.934,382.236l-7.763,4.481a3.474,3.474,0,0,0-1.582,2.742c0,1.012.711,1.417,1.594.906l7.761-4.481a3.465,3.465,0,0,0,1.582-2.74c0-1.014-.711-1.417-1.592-.908" transform="translate(-578.463 -237.709)" fill="#a5ffff"/>
                <path id="Trazado_10790" data-name="Trazado 10790" d="M625.912,388.081l-12.937,7.47a3.466,3.466,0,0,0-1.584,2.718c0,1.014.713,1.417,1.594.908l12.937-7.47a3.46,3.46,0,0,0,1.562-2.728c0-.992-.711-1.395-1.572-.9" transform="translate(-598.353 -231.646)" fill="#a5ffff"/>
                <path id="Trazado_10791" data-name="Trazado 10791" d="M622.519,381.508l-9.567,5.522a3.474,3.474,0,0,0-1.582,2.74c0,.992.711,1.395,1.592.886l9.567-5.522a3.467,3.467,0,0,0,1.582-2.718c0-1.014-.711-1.417-1.592-.908" transform="translate(-598.374 -238.463)" fill="#a5ffff"/>
                <path id="Trazado_10792" data-name="Trazado 10792" d="M651.781,370.941,620.673,388.9a3.474,3.474,0,0,0-1.582,2.742c0,.99.711,1.395,1.594.884l31.106-17.958a3.465,3.465,0,0,0,1.582-2.72c0-1.012-.711-1.417-1.592-.908" transform="translate(-590.375 -249.411)" fill="#a5ffff"/>
                <path id="Trazado_10793" data-name="Trazado 10793" d="M657.775,363.292l-18.739,10.819.075,26.6,18.739-10.819-.075-26.6" transform="translate(-569.712 -257.107)" fill="#a5ffff"/>
              </g>
            </g>
          </g>
        </g>
        <g id="Grupo_40400" data-name="Grupo 40400" transform="translate(-1130.529 196.962)">
          <g id="Grupo_40344" data-name="Grupo 40344" transform="translate(443.464 321.248)">
            <g id="Grupo_40343" data-name="Grupo 40343">
              <g id="Grupo_40342" data-name="Grupo 40342" style="isolation: isolate">
                <g id="Grupo_40341" data-name="Grupo 40341">
                  <path id="Trazado_10794" data-name="Trazado 10794" d="M273.875,174.021,245.9,190.258l-28.093-16.237L245.9,157.784Z" transform="translate(-217.811 -157.784)" fill="url(#linear-gradient)"/>
                </g>
                <path id="Trazado_10795" data-name="Trazado 10795" d="M259.58,165.759V714.1l-27.971,16.237V182Z" transform="translate(-203.516 -149.522)" fill="url(#linear-gradient-2)"/>
                <path id="Trazado_10796" data-name="Trazado 10796" d="M245.9,182V730.333L217.811,714.1V165.759Z" transform="translate(-217.811 -149.522)" fill="url(#linear-gradient-3)"/>
              </g>
            </g>
            <path id="Trazado_10797" data-name="Trazado 10797" d="M245.9,157.784l-28.093,16.237V722.358L245.9,738.6l27.971-16.237V174.021Z" transform="translate(-217.811 -157.784)" fill="url(#linear-gradient-22)"/>
          </g>
          <g id="Grupo_40348" data-name="Grupo 40348" transform="translate(416.299 438.589)">
            <g id="Grupo_40347" data-name="Grupo 40347">
              <g id="Grupo_40346" data-name="Grupo 40346" style="isolation: isolate">
                <g id="Grupo_40345" data-name="Grupo 40345">
                  <path id="Trazado_10798" data-name="Trazado 10798" d="M241.972,226.278,223.261,237.14l-18.792-10.862,18.792-10.861Z" transform="translate(-204.469 -215.417)" fill="url(#linear-gradient)"/>
                </g>
                <path id="Trazado_10799" data-name="Trazado 10799" d="M232.41,220.752v366.8L213.7,598.415v-366.8Z" transform="translate(-194.907 -209.89)" fill="url(#linear-gradient-2)"/>
                <path id="Trazado_10800" data-name="Trazado 10800" d="M223.261,231.613v366.8l-18.792-10.861v-366.8Z" transform="translate(-204.469 -209.89)" fill="url(#linear-gradient-3)"/>
              </g>
            </g>
            <path id="Trazado_10801" data-name="Trazado 10801" d="M223.261,215.417l-18.792,10.861v366.8l18.792,10.862,18.711-10.862v-366.8Z" transform="translate(-204.469 -215.417)" fill="url(#linear-gradient-26)"/>
          </g>
          <g id="Grupo_40352" data-name="Grupo 40352" transform="translate(520.288 421.896)">
            <g id="Grupo_40351" data-name="Grupo 40351">
              <g id="Grupo_40350" data-name="Grupo 40350" style="isolation: isolate">
                <g id="Grupo_40349" data-name="Grupo 40349">
                  <path id="Trazado_10802" data-name="Trazado 10802" d="M290.745,217.413l-17.562,10.195-17.639-10.195,17.639-10.195Z" transform="translate(-255.544 -207.218)" fill="url(#linear-gradient)"/>
                </g>
                <path id="Trazado_10803" data-name="Trazado 10803" d="M281.77,212.225V556.51L264.208,566.7V222.42Z" transform="translate(-246.569 -202.031)" fill="url(#linear-gradient-2)"/>
                <path id="Trazado_10804" data-name="Trazado 10804" d="M273.183,222.42V566.7L255.544,556.51V212.225Z" transform="translate(-255.544 -202.031)" fill="url(#linear-gradient-3)"/>
              </g>
            </g>
            <path id="Trazado_10805" data-name="Trazado 10805" d="M273.183,207.218l-17.638,10.195V561.7l17.638,10.195L290.745,561.7V217.413Z" transform="translate(-255.544 -207.218)" fill="url(#linear-gradient-22)"/>
          </g>
          <g id="Grupo_40383" data-name="Grupo 40383" transform="translate(563.924 84.848)">
            <g id="Grupo_40366" data-name="Grupo 40366" transform="translate(1923.066 -112.32)">
              <g id="Grupo_40365" data-name="Grupo 40365">
                <g id="Grupo_40364" data-name="Grupo 40364" transform="translate(0 3.189)">
                  <path id="Trazado_10827" data-name="Trazado 10827" d="M584.15,279.473c-12.075-6.973-31.6-7-43.6-.032-12.049,7.005-11.934,18.314.142,25.286s31.548,6.97,43.6-.032C596.288,297.721,596.226,286.445,584.15,279.473Z" transform="translate(-531.577 -101.53)" fill="#1a9bdb"/>
                  <g id="Grupo_40363" data-name="Grupo 40363" transform="translate(8.449)">
                    <g id="Grupo_40362" data-name="Grupo 40362">
                      <path id="Trazado_10828" data-name="Trazado 10828" d="M545.678,291.2s-10.925-7.094-11.214-8.819,2.351-3.587,4.189-3.519,9.565.711,9.565.711l2.478,2.808S555.12,292.947,545.678,291.2Z" transform="translate(-534.441 -92.502)" fill="#103450"/>
                      <path id="Trazado_10829" data-name="Trazado 10829" d="M553.78,288.171s-10.925-7.1-11.217-8.819,2.351-3.587,4.188-3.519,9.565.711,9.565.711l2.478,2.808S563.222,289.92,553.78,288.171Z" transform="translate(-518.652 -98.404)" fill="#103450"/>
                      <path id="Trazado_10830" data-name="Trazado 10830" d="M537.245,253.512l-.318,89.846a11.04,11.04,0,0,0,10.733-.233S557.83,265.511,558,263.668c.159-1.7,1.437,70.857,1.437,70.857s6.3,3.616,11.1-1.295l5.657-85.956Z" transform="translate(-529.596 -154.078)" fill="#103450"/>
                      <path id="Trazado_10831" data-name="Trazado 10831" d="M548.4,251.271l.611,15.8s12.4-6.542,12.078-16.122c-.071-2.168-4.171-15.9-5.073-19.382C551.85,233.83,551.6,247.92,548.4,251.271Z" transform="translate(-507.23 -184.703)" fill="#ffc6a0"/>
                      <path id="Trazado_10832" data-name="Trazado 10832" d="M547.041,228.926s-4.6,1.012-10.548,5.878l1.6,61.253s7.734,5.66,23.543,1.522c12.878-3.368,16.264-8.79,16.264-8.79s-.292-28.389-1.5-40.816a95.526,95.526,0,0,0-4.787-21.954c-2.808-.852-9.008-.5-9.008-.5Z" transform="translate(-530.442 -196.623)" fill="#fdf7fb"/>
                      <path id="Trazado_10833" data-name="Trazado 10833" d="M556.056,244.24l.354-11.972a2.8,2.8,0,0,0,2.5-3.528c-.516-3.3-3.6-1.13-4.147-.159,0,0-.693-11.359-6.71-12.45s-8.515-.221-8.669,2.711-.348,13.173,0,16.978-.006,5.784,5.489,5.631l.478,3.985s2.492,2.324,10.194.445Z" transform="translate(-525.196 -215.677)" fill="#ffc6a0"/>
                    </g>
                  </g>
                </g>
                <path id="Trazado_10834" data-name="Trazado 10834" d="M540.069,230.137c.041-2.342.416-3.613,5.852-4.233s9.854-2.074,10.409,0-.546,3.365-5.988,3.829S540.069,230.137,540.069,230.137Z" transform="translate(-515.021 -194.645)" fill="#fff"/>
                <path id="Trazado_10835" data-name="Trazado 10835" d="M549.6,231.19a1.8,1.8,0,0,0-1.041-2.407,2,2,0,0,0-2.038.858,16.244,16.244,0,0,0-1.982,4.079c-.551-.478-1.124-.932-1.7-1.377l.071-1.082a8.693,8.693,0,0,0-.091-2.655c-.445-1.829-2.363-2.115-3.28-3.483-1.23-1.838-.717-4.457.469-6.221a10.113,10.113,0,0,1,5.324-3.746c7.164-2.351,17.9,2.917,15.815,11.639-1.2,5.011-2.95,9.866-4.253,14.848-.171.655-1.661.911-2.307.711a4.709,4.709,0,0,1-1.678-1.1,26.559,26.559,0,0,1-5.754-7.542C547.3,234,549.486,231.574,549.6,231.19Z" transform="translate(-517.442 -214.596)" fill="#103450"/>
              </g>
              <path id="Trazado_10836" data-name="Trazado 10836" d="M537.544,257.593a1.724,1.724,0,0,0,1.463,1.525c.879.018,1.451-.894,1.841-1.684.248-.5.493-1,.74-1.5a2.422,2.422,0,0,0,.357-1.3c-.047-.434-.324-.823-.345-1.259-.036-.849.873-1.433,1.109-2.248.283-.967-.439-1.914-1.109-2.666a7.6,7.6,0,0,0-1.51-1.41c-2.313-1.475-4.395,1.156-3.947,3.413.2,1.015.876,1.923,1.168,2.917C537.735,254.817,537.29,256.171,537.544,257.593Z" transform="translate(-522.795 -152.152)" fill="#ffc6a0"/>
              <path id="Trazado_10837" data-name="Trazado 10837" d="M545.568,284.207s-13.35-20.476-13.721-25.056,11.02-28.6,11.02-28.6l8.79,9.781-9.911,17.827L547.358,278Z" transform="translate(-531.067 -183.489)" fill="#ffc6a0"/>
              <path id="Trazado_10838" data-name="Trazado 10838" d="M546.48,254.962a30.485,30.485,0,0,0,2.153-7.474c1.124-10.111-5.475-18.865-5.475-18.865-2.507,1.13-6.513,9.48-10.085,18.718C537.433,250.077,541.911,252.6,546.48,254.962Z" transform="translate(-528.658 -187.252)" fill="#fdf7fb"/>
              <path id="Trazado_10839" data-name="Trazado 10839" d="M558.557,245.872c-3.386-9.81-7.834-19.446-10.158-20.228l.985,25.561C552.337,249.276,555.5,247.6,558.557,245.872Z" transform="translate(-498.781 -193.057)" fill="#fdf7fb"/>
            </g>
            <g id="Grupo_40372" data-name="Grupo 40372" transform="translate(256.676 -257.188)">
              <g id="Grupo_40371" data-name="Grupo 40371" style="isolation: isolate">
                <g id="Grupo_40370" data-name="Grupo 40370">
                  <path id="Trazado_10859" data-name="Trazado 10859" d="M418.355,136.936l9.844-11.226a7.806,7.806,0,0,1-.059-.841,12.562,12.562,0,0,1,5.691-9.858c3.15-1.818,5.719-.354,5.729,3.266a12.559,12.559,0,0,1-5.691,9.858c-1.6.922-3.046.992-4.084.375l-9.844,11.218a6.82,6.82,0,0,1,.059.839,12.558,12.558,0,0,1-5.693,9.858,5.806,5.806,0,0,1-1.8.706l-13.059,27.8a4.526,4.526,0,0,1,1.047,3.16,12.561,12.561,0,0,1-5.693,9.858c-3.15,1.818-5.717.354-5.729-3.266a10.268,10.268,0,0,1,.652-3.437l-12.12-7.4a10.2,10.2,0,0,1-2.468,2.079,5.349,5.349,0,0,1-2.47.772l-12.033,21.35a5.044,5.044,0,0,1,.67,2.675,12.558,12.558,0,0,1-5.693,9.858c-3.15,1.818-5.719.354-5.729-3.264a12.558,12.558,0,0,1,5.693-9.858,5.211,5.211,0,0,1,2.47-.774l12.033-21.358a4.986,4.986,0,0,1-.668-2.667A12.559,12.559,0,0,1,375.1,166.8c3.15-1.818,5.719-.354,5.729,3.266a10.221,10.221,0,0,1-.651,3.429l12.12,7.411a10.126,10.126,0,0,1,2.468-2.077,6.062,6.062,0,0,1,1.8-.707l13.059-27.793a4.524,4.524,0,0,1-1.047-3.168,12.555,12.555,0,0,1,5.693-9.85c1.6-.922,3.046-1,4.084-.375M448.7,92.72,340.513,155.18a5.862,5.862,0,0,0-2.651,4.6l.214,75.56c.006,1.688,1.2,2.368,2.669,1.521L448.928,174.4a5.867,5.867,0,0,0,2.659-4.6l-.216-75.56c0-1.686-1.207-2.372-2.675-1.525" transform="translate(-337.862 -92.357)" fill="#00edf9" opacity="0.6" style="mix-blend-mode: overlay;isolation: isolate"/>
                  <path id="Trazado_10860" data-name="Trazado 10860" d="M427.715,103.881a12.562,12.562,0,0,0-5.691,9.858,7.806,7.806,0,0,0,.059.841l-9.844,11.227c-1.038-.625-2.488-.548-4.084.375a12.556,12.556,0,0,0-5.693,9.85,4.524,4.524,0,0,0,1.047,3.168l-13.059,27.793a6.062,6.062,0,0,0-1.8.707,10.126,10.126,0,0,0-2.468,2.077l-12.12-7.411a10.221,10.221,0,0,0,.651-3.429c-.01-3.62-2.58-5.084-5.729-3.266a12.559,12.559,0,0,0-5.691,9.858,4.986,4.986,0,0,0,.668,2.667l-12.033,21.358a5.211,5.211,0,0,0-2.47.774,12.558,12.558,0,0,0-5.693,9.858c.01,3.618,2.58,5.082,5.729,3.264a12.558,12.558,0,0,0,5.693-9.858,5.044,5.044,0,0,0-.67-2.675l12.033-21.35a5.349,5.349,0,0,0,2.47-.772,10.2,10.2,0,0,0,2.468-2.079l12.12,7.4a10.268,10.268,0,0,0-.652,3.437c.012,3.62,2.58,5.084,5.729,3.266a12.561,12.561,0,0,0,5.693-9.858,4.526,4.526,0,0,0-1.047-3.16L406.39,140a5.806,5.806,0,0,0,1.8-.706,12.558,12.558,0,0,0,5.693-9.858,6.82,6.82,0,0,0-.059-.839l9.844-11.218c1.038.617,2.488.548,4.084-.375a12.559,12.559,0,0,0,5.691-9.858c-.01-3.62-2.58-5.084-5.729-3.266" transform="translate(-331.746 -81.227)" fill="#a5ffff"/>
                </g>
              </g>
            </g>
            <g id="Grupo_40379" data-name="Grupo 40379" transform="translate(178.669 657.204)">
              <g id="Grupo_40376" data-name="Grupo 40376">
                <path id="Trazado_10871" data-name="Trazado 10871" d="M508.657,523.717V447.651L364.731,364.466v76.066Z" transform="translate(-364.731 -364.466)" fill="url(#linear-gradient-31)"/>
                <path id="Trazado_10872" data-name="Trazado 10872" d="M365.085,364.566l-.354.2v75.657l65.8-38.033Z" transform="translate(-364.731 -364.362)" fill="url(#linear-gradient-32)"/>
              </g>
              <g id="Grupo_40377" data-name="Grupo 40377" transform="translate(0 113.29)">
                <path id="Trazado_10873" data-name="Trazado 10873" d="M508.657,579.361V503.294L364.731,420.109v76.066Z" transform="translate(-364.731 -420.109)" fill="url(#linear-gradient-31)"/>
                <path id="Trazado_10874" data-name="Trazado 10874" d="M365.085,420.209l-.354.2v75.657l65.8-38.033Z" transform="translate(-364.731 -420.005)" fill="url(#linear-gradient-32)"/>
              </g>
              <g id="Grupo_40378" data-name="Grupo 40378" transform="translate(0 226.579)">
                <path id="Trazado_10875" data-name="Trazado 10875" d="M508.657,635V558.938L364.731,475.752v76.066Z" transform="translate(-364.731 -475.752)" fill="url(#linear-gradient-31)"/>
                <path id="Trazado_10876" data-name="Trazado 10876" d="M365.085,475.852l-.354.2v75.657l65.8-38.033Z" transform="translate(-364.731 -475.648)" fill="url(#linear-gradient-32)"/>
              </g>
            </g>
            <g id="Grupo_40382" data-name="Grupo 40382" transform="translate(1302.172 -73.92)">
              <g id="Grupo_40381" data-name="Grupo 40381" style="isolation: isolate">
                <g id="Grupo_40380" data-name="Grupo 40380">
                  <path id="Trazado_10880" data-name="Trazado 10880" d="M521.832,136.217s7.326-28.066,17.819-22.007,12.576,29.931,20.824,34.693,8.7-9.382,13.8-6.44,5.127,18.442,10.451,21.514,9.1-9.612,17.76-4.612c10.7,6.177,16.9,33.175,16.9,33.175l-97.557-56.324m104.744,7.549L514.944,79.315l-.187,66.561,111.63,64.45.189-66.559" transform="translate(-491.807 -182.315)" fill="#a5ffff" opacity="0.561"/>
                  <path id="Trazado_10881" data-name="Trazado 10881" d="M536.051,96.89c-10.494-6.059-17.819,22.007-17.819,22.007l97.557,56.324s-6.2-27-16.9-33.175c-8.659-5-12.446,7.68-17.76,4.612s-5.363-18.576-10.451-21.514-5.55,11.2-13.8,6.44-10.329-28.634-20.824-34.693" transform="translate(-488.207 -164.995)" fill="#b4ffff"/>
                </g>
              </g>
            </g>
          </g>
          <g id="Grupo_40399" data-name="Grupo 40399" transform="translate(350.222 526.369)">
            <path id="Trazado_10887" data-name="Trazado 10887" d="M172.015,258.532V573.565L315.941,656.75l143.3-83.187V258.531Z" transform="translate(-172.015 -258.531)" opacity="0.561" fill="url(#linear-gradient-37)" style="mix-blend-mode: overlay;isolation: isolate"/>
            <g id="Grupo_40387" data-name="Grupo 40387" transform="translate(0 159.864)">
              <g id="Grupo_40386" data-name="Grupo 40386">
                <g id="Grupo_40385" data-name="Grupo 40385" style="isolation: isolate">
                  <g id="Grupo_40384" data-name="Grupo 40384">
                    <path id="Trazado_10888" data-name="Trazado 10888" d="M459.242,420.235l-143.3,83.187L172.015,420.237,315.941,337.05Z" transform="translate(-172.015 -337.05)" fill="url(#linear-gradient)"/>
                  </g>
                  <path id="Trazado_10889" data-name="Trazado 10889" d="M386.007,377.907V692.94l-143.3,83.187V461.094Z" transform="translate(-98.78 -294.721)" fill="url(#linear-gradient-2)"/>
                  <path id="Trazado_10890" data-name="Trazado 10890" d="M315.941,461.093V776.126L172.015,692.94V377.908Z" transform="translate(-172.015 -294.721)" fill="url(#linear-gradient-3)"/>
                </g>
              </g>
              <path id="Trazado_10891" data-name="Trazado 10891" d="M242.705,471.587l143.3-83.187v-3.458l-143.3,83.187Z" transform="translate(-98.78 -287.432)" fill="#ff65eb"/>
              <path id="Trazado_10892" data-name="Trazado 10892" d="M172.015,388.4l143.926,83.186v-3.458L172.015,384.943Z" transform="translate(-172.015 -287.432)" fill="#ff20ce"/>
            </g>
            <g id="Grupo_40397" data-name="Grupo 40397" transform="translate(166.948 211.708)">
              <path id="Trazado_10893" data-name="Trazado 10893" d="M290.824,395.133c-8.335-4.813-21.814-4.833-30.094-.02-8.317,4.833-8.238,12.639.1,17.453s21.777,4.811,30.094-.022C299.2,407.73,299.159,399.946,290.824,395.133Z" transform="translate(-253.473 -332.47)" fill="#1a9bdb" opacity="0.4" style="mix-blend-mode: multiply;isolation: isolate"/>
              <path id="Trazado_10894" data-name="Trazado 10894" d="M273.4,419.28s-1.089.136-1.291.556a29.813,29.813,0,0,0-.3,4.506,28.052,28.052,0,0,0,5.546,4.192c2.679,1.374,5,1.973,6.033,1.069s.395-1.944-1.81-3.736-4.335-6.591-4.335-6.587Z" transform="translate(-235.578 -303.703)" fill="#103450"/>
              <path id="Trazado_10895" data-name="Trazado 10895" d="M276.674,413.893s-1.087-.145-1.391.21a29.92,29.92,0,0,0-1.429,4.282,27.975,27.975,0,0,0,4.3,5.465c2.242,2.012,4.331,3.178,5.562,2.567s.875-1.781-.8-4.074-2.516-7.476-2.518-7.472Z" transform="translate(-233.458 -309.314)" fill="#103450"/>
              <path id="Trazado_10896" data-name="Trazado 10896" d="M257.755,391.8c-.083,5.1.574,13.191,3.2,15,4.007,2.753,20.47,15.4,20.47,15.4l4.481,26.012s2.789,2.765,7.132,0c0,0-2.92-29.249-3.551-31.817s-15.836-19.1-15.836-19.1Z" transform="translate(-250.144 -332.17)" fill="#103450"/>
              <path id="Trazado_10897" data-name="Trazado 10897" d="M265.251,390.488c-1.376,4.907-2.333,10.718-.1,13,2.413,2.472,27.382,9.917,27.382,9.917l-7.395,24.87s2,3.382,6.9,1.812c0,0,13.315-28.416,13.358-31.059s-25.136-14.838-25.136-14.838Z" transform="translate(-243.854 -333.531)" fill="#103450"/>
              <g id="Grupo_40396" data-name="Grupo 40396" transform="translate(18.829 52.245)">
                <g id="Grupo_40394" data-name="Grupo 40394">
                  <g id="Grupo_40393" data-name="Grupo 40393" style="isolation: isolate">
                    <g id="Grupo_40388" data-name="Grupo 40388" transform="translate(18.269 15.083)">
                      <path id="Trazado_10898" data-name="Trazado 10898" d="M296.67,395.841l-24.436,14.2a.283.283,0,0,0,.12-.259l24.436-14.2A.282.282,0,0,1,296.67,395.841Z" transform="translate(-272.234 -395.582)" fill="#011c63"/>
                    </g>
                    <g id="Grupo_40389" data-name="Grupo 40389" transform="translate(18.389 14.555)">
                      <path id="Trazado_10899" data-name="Trazado 10899" d="M272.295,409.523l24.436-14.2v.528l-24.436,14.2Z" transform="translate(-272.293 -395.323)" fill="#011c63"/>
                    </g>
                    <g id="Grupo_40390" data-name="Grupo 40390" transform="translate(0.001 3.741)">
                      <path id="Trazado_10900" data-name="Trazado 10900" d="M263.262,404.212l24.436-14.2,18.237,10.529-24.436,14.2Z" transform="translate(-263.262 -390.012)" fill="#fcfefb"/>
                    </g>
                    <g id="Grupo_40391" data-name="Grupo 40391" transform="translate(10.363 9.414)">
                      <path id="Trazado_10901" data-name="Trazado 10901" d="M295.279,396.966c.369.212.389.564,0,.786l-18.359,10.669a1.518,1.518,0,0,1-1.358,0l-6.947-4.009c-.369-.214-.352-.564.014-.778l18.359-10.669a1.461,1.461,0,0,1,1.34-.01Z" transform="translate(-268.351 -392.798)" fill="#103450"/>
                    </g>
                    <path id="Trazado_10902" data-name="Trazado 10902" d="M272.783,416.593l7.578-13.381,24.436-14.2-7.576,13.381a.194.194,0,0,1-.077.088l-24.436,14.2A.191.191,0,0,0,272.783,416.593Z" transform="translate(-253.474 -387.307)" fill="#fcfefb"/>
                    <g id="Grupo_40392" data-name="Grupo 40392" transform="translate(0 14.201)">
                      <path id="Trazado_10903" data-name="Trazado 10903" d="M289.572,395.149l.206.216a1.472,1.472,0,0,1,.371,1.488l-7.578,13.381c-.285.617-1.11.358-1.33.232l-17.147-9.9a1.839,1.839,0,0,1-.833-1.439l0-.236,18.236,10.53Z" transform="translate(-263.261 -395.149)" fill="#fcfefb"/>
                    </g>
                    <path id="Trazado_10904" data-name="Trazado 10904" d="M276.184,402.375l24.436-14.2.206.216a1.471,1.471,0,0,1,.371,1.488l-24.436,14.2a1.472,1.472,0,0,0-.371-1.488Z" transform="translate(-249.873 -388.174)" fill="#fcfefb"/>
                  </g>
                </g>
                <g id="Grupo_40395" data-name="Grupo 40395" transform="translate(14.262 8.16)">
                  <path id="Trazado_10905" data-name="Trazado 10905" d="M280.084,394.007c.161.094.171.246,0,.344l-6.067,3.524a.664.664,0,0,1-.595,0l-3.04-1.755c-.163-.094-.155-.246.006-.34l6.067-3.524a.635.635,0,0,1,.586,0Z" transform="translate(-270.266 -392.182)" fill="#103450"/>
                </g>
              </g>
              <path id="Trazado_10906" data-name="Trazado 10906" d="M271.426,379.955s2.685,6.823,3.243,8.682,6.882,13.016,7.254,13.576,5.021,4.282,5.021,4.84a1.865,1.865,0,0,1-1.859,1.781c-1.488.171-5.487-2.73-5.487-2.73s-1.02,2.573-1.442-.517.784-2.6-.238-4.186c0,0-6.692-4.485-8.272-10.251a21.454,21.454,0,0,1-.185-10.6Z" transform="translate(-238.598 -344.444)" fill="#ffc6a0"/>
              <path id="Trazado_10907" data-name="Trazado 10907" d="M274.32,387.346c-1.232-5.727-3.82-13.216-6.279-13.513L270.3,390.18A9.755,9.755,0,0,0,274.32,387.346Z" transform="translate(-239.48 -350.786)" fill="#fcfefb"/>
              <path id="Trazado_10908" data-name="Trazado 10908" d="M264.523,375.828a31.152,31.152,0,0,0-7.908,4.589L258.928,413s4.836,3.539,14.716.953c8.05-2.107,10.166-5.5,10.166-5.5s.735-15.966-.02-23.734-3.911-10.7-3.911-10.7a23.013,23.013,0,0,0-5.63-.31Z" transform="translate(-251.317 -350.967)" fill="#fcfefb"/>
              <path id="Trazado_10909" data-name="Trazado 10909" d="M272.547,364.06a19.5,19.5,0,0,0-10.286.627c-5.078,1.9-2.113,9.133-.619,12.542s2.533,2.168,2.533,2.168l11.064-4.461s.328-.344.114-4.962S272.547,364.06,272.547,364.06Z" transform="translate(-248.417 -361.344)" fill="#103450"/>
              <path id="Trazado_10910" data-name="Trazado 10910" d="M262.223,382.9,262,375.416a1.748,1.748,0,0,1-1.56-2.205c.324-2.06,2.254-.707,2.594-.1,0,0,.434-7.1,4.194-7.782s7.407.124,7.5,1.957.218,8.234,0,10.612-2.081,3.353-5.518,3.258l.236,3.85s-1.724,1.264-6.536.09Z" transform="translate(-247.392 -359.845)" fill="#ffc6a0"/>
              <path id="Trazado_10911" data-name="Trazado 10911" d="M269.164,373.37a2.589,2.589,0,0,1,.916.134,4.589,4.589,0,0,1,1.666,3.038,10.852,10.852,0,0,1-.582,3.253l-3.117-2.81-1.959,3.785a7.989,7.989,0,0,1-2.9-1.5,10.919,10.919,0,0,1-2.687-3.142c.537-1.368.9-2.185.9-2.185.128-.313.721-.46.721-.46s3.319,3.011,5.923,3.16C268.046,376.642,268.975,376.208,269.164,373.37Z" transform="translate(-247.294 -351.266)" fill="#103450"/>
              <path id="Trazado_10912" data-name="Trazado 10912" d="M261.2,393.869c1-2.535,3.2-8.651,2.592-11.862a6.443,6.443,0,0,0-4.485-5.029c-1.555,1.773-3.8,7.629-5.3,12.515C256.43,390.917,258.8,392.427,261.2,393.869Z" transform="translate(-254.013 -347.528)" fill="#fcfefb"/>
              <path id="Trazado_10913" data-name="Trazado 10913" d="M278.888,366.892a5.882,5.882,0,0,0-1.049-1.987c-2.523-3.089-6.189-1.281-9.437-1.843a16.114,16.114,0,0,0-2.276-.546,5.3,5.3,0,0,0-5.015,2.887c-.143.334-.289.694-.417,1.067a5.928,5.928,0,0,0-.354,1.757c-.018,1.234.556,2.4.678,3.622a14.606,14.606,0,0,0,2.158,5.324c.291-.09.582-.159.873-.234a4.7,4.7,0,0,1,.507-2.366c.556-1.181,1.073-2.464.387-3.7,1.926,1.006,2.276,1.116,4.54.7,1.407-.261,2.789.438,4.111.985s2.924.937,4.117.147a3.851,3.851,0,0,0,1.441-2.859A7.381,7.381,0,0,0,278.888,366.892Z" transform="translate(-247.458 -362.513)" fill="#103450"/>
              <path id="Trazado_10914" data-name="Trazado 10914" d="M255.523,383.784s-1.688,8.637-.2,10.373,15.632,10.164,16.8,11.373,5.076,4.557,7.7,4.5,3.966,2.419,5.281,2.667,1.114-3.14.725-4.434c-.466-1.547-3.628-1.828-3.628-1.828s3.408-1.674-1.936-.975l-3.085-.511-15.626-14.975.311-2.574Z" transform="translate(-253.291 -340.477)" fill="#ffc6a0"/>
            </g>
            <g id="Grupo_40398" data-name="Grupo 40398" transform="translate(80.707 65.063)" opacity="0.6">
              <path id="Trazado_10915" data-name="Trazado 10915" d="M232.913,442.027l-.041-14.967,10.178-5.876.043,14.967-10.18,5.876m38.751-22.374-.063-22.524,10.178-5.876.063,22.524-10.178,5.876m-38.792,7.407-.026-9.262,10.178-5.876.026,9.262-10.178,5.876m19.423,3.777-.075-26.23,10.166-5.87.075,26.23-10.166,5.87m38.737-22.365-.1-35.492,10.178-5.876.1,35.492-10.178,5.876M271.6,397.129l-.041-13.951,10.178-5.876.041,13.951L271.6,397.129m-19.381,7.478-.045-16.251,10.166-5.87.045,16.251-10.166,5.87m38.713-31.627-.063-21.97,10.178-5.878.063,21.973-10.178,5.876m-65.557,83.048c-.454.263-.82.055-.823-.452l-.2-70.712a1.787,1.787,0,0,1,.816-1.415c.442-.255.806-.047.808.476l.2,69.772,89.044-51.411c.456-.263.82-.055.823.468a1.79,1.79,0,0,1-.816,1.4l-89.851,51.875m17.512-92.457c-.9.517-1.629.1-1.631-.93a3.567,3.567,0,0,1,1.619-2.8l25.985-15c.9-.517,1.629-.1,1.631.928a3.576,3.576,0,0,1-1.619,2.806l-25.985,15m31.483-18.177c-.9.517-1.627.1-1.631-.928a3.569,3.569,0,0,1,1.621-2.806l5.992-3.461c.9-.517,1.627-.1,1.631.93a3.569,3.569,0,0,1-1.621,2.8l-5.992,3.461m-49.226,28.75-.012-4.392,9.748-5.63.012,4.392-9.748,5.63m35.082-29.952a1.181,1.181,0,0,1-1.158.116,1.144,1.144,0,0,1-.47-1.044l.037-.4.077-.389.155-.419.2-.4a3.321,3.321,0,0,1,1.154-1.183,1.222,1.222,0,0,1,1.159-.153l.2.171.145.246.106.283.026.358a3.285,3.285,0,0,1-.464,1.586,3.414,3.414,0,0,1-1.156,1.22M242.861,354.22c-.9.519-1.629.1-1.631-.928a3.57,3.57,0,0,1,1.619-2.806l12.585-7.264c.9-.519,1.627-.1,1.629.928a3.57,3.57,0,0,1-1.619,2.806l-12.582,7.265m22.4-12.931c-.9.517-1.627.1-1.629-.928a3.567,3.567,0,0,1,1.619-2.806l15.079-8.706c.9-.519,1.627-.1,1.631.928a3.576,3.576,0,0,1-1.621,2.806l-15.079,8.706m-40.14,23.5L225.1,360.4l9.748-5.627.012,4.392-9.748,5.628m97.066-73.636-105.656,61a10.748,10.748,0,0,0-4.872,8.439l.318,112.072c.008,3.093,2.2,4.341,4.9,2.781l105.658-61a10.719,10.719,0,0,0,4.872-8.423l-.318-112.072c-.01-3.093-2.2-4.357-4.9-2.8" transform="translate(-211.655 -290.487)" fill="#00edf9"/>
              <path id="Trazado_10916" data-name="Trazado 10916" d="M218.708,336.2a1.787,1.787,0,0,0-.816,1.415l.2,70.712c0,.507.368.715.823.452l89.851-51.875a1.79,1.79,0,0,0,.816-1.4c0-.523-.366-.731-.823-.468l-89.044,51.411-.2-69.772c0-.523-.366-.731-.808-.476" transform="translate(-205.193 -243.239)" fill="#a5ffff"/>
              <path id="Trazado_10917" data-name="Trazado 10917" d="M232.254,354.68l-10.178,5.876.043,14.967,10.178-5.877-.042-14.967" transform="translate(-200.859 -223.984)" fill="#fdf7fb"/>
              <path id="Trazado_10918" data-name="Trazado 10918" d="M241.745,343.655l-10.166,5.869.074,26.229,10.166-5.869-.074-26.229" transform="translate(-191.013 -235.404)" fill="#fdf7fb"/>
              <path id="Trazado_10919" data-name="Trazado 10919" d="M251.276,339.979,241.1,345.855l.064,22.525L251.34,362.5l-.064-22.525" transform="translate(-181.152 -239.214)" fill="#fdf7fb"/>
              <path id="Trazado_10920" data-name="Trazado 10920" d="M260.771,328.118l-10.178,5.876.1,35.491,10.178-5.876-.1-35.49" transform="translate(-171.315 -251.501)" fill="#fdf7fb"/>
              <path id="Trazado_10921" data-name="Trazado 10921" d="M232.241,350.131l-10.178,5.877.026,9.261,10.178-5.876-.026-9.261" transform="translate(-200.873 -228.696)" fill="#a5ffff"/>
              <path id="Trazado_10922" data-name="Trazado 10922" d="M241.722,335.673l-10.166,5.869.046,16.252,10.166-5.869-.046-16.252" transform="translate(-191.037 -243.674)" fill="#a5ffff"/>
              <path id="Trazado_10923" data-name="Trazado 10923" d="M251.257,333.126,241.078,339l.039,13.951,10.178-5.876-.039-13.951" transform="translate(-181.172 -246.312)" fill="#a5ffff"/>
              <path id="Trazado_10924" data-name="Trazado 10924" d="M260.74,317.326,250.562,323.2l.062,21.972L260.8,339.3l-.062-21.972" transform="translate(-171.347 -262.681)" fill="#a5ffff"/>
              <path id="Trazado_10925" data-name="Trazado 10925" d="M228.01,322.062l-9.749,5.629.012,4.391,9.749-5.629-.012-4.392" transform="translate(-204.811 -257.776)" fill="#fdf7fb"/>
              <path id="Trazado_10926" data-name="Trazado 10926" d="M228.023,326.654l-9.749,5.629.013,4.391,9.749-5.629-.013-4.391" transform="translate(-204.798 -253.018)" fill="#fdf7fb"/>
              <path id="Trazado_10927" data-name="Trazado 10927" d="M240.384,316.5,227.8,323.766a3.57,3.57,0,0,0-1.619,2.806c0,1.03.733,1.448,1.631.928l12.582-7.265a3.57,3.57,0,0,0,1.619-2.806c0-1.03-.733-1.448-1.629-.928" transform="translate(-196.606 -263.767)" fill="#a5ffff"/>
              <path id="Trazado_10928" data-name="Trazado 10928" d="M236.33,315.165a3.321,3.321,0,0,0-1.154,1.183l-.2.4-.155.419-.077.389-.037.4a1.144,1.144,0,0,0,.47,1.044,1.181,1.181,0,0,0,1.158-.116,3.414,3.414,0,0,0,1.156-1.22,3.285,3.285,0,0,0,.464-1.586l-.026-.358-.106-.283-.145-.246-.2-.171a1.222,1.222,0,0,0-1.159.153" transform="translate(-187.769 -265.171)" fill="#a5ffff"/>
              <path id="Trazado_10929" data-name="Trazado 10929" d="M253.879,309.443,238.8,318.149a3.567,3.567,0,0,0-1.619,2.806c0,1.03.733,1.445,1.629.928l15.079-8.706a3.576,3.576,0,0,0,1.621-2.806c0-1.03-.733-1.448-1.631-.928" transform="translate(-185.209 -271.08)" fill="#a5ffff"/>
              <path id="Trazado_10930" data-name="Trazado 10930" d="M253.8,317.293l-25.985,15a3.567,3.567,0,0,0-1.619,2.8c0,1.032.733,1.448,1.631.93l25.985-15a3.576,3.576,0,0,0,1.619-2.806c0-1.03-.733-1.445-1.631-.928" transform="translate(-196.593 -262.946)" fill="#a5ffff"/>
              <path id="Trazado_10931" data-name="Trazado 10931" d="M249.27,314.034l-5.992,3.461a3.569,3.569,0,0,0-1.621,2.806c0,1.03.735,1.446,1.631.928l5.992-3.461a3.569,3.569,0,0,0,1.621-2.8c0-1.032-.733-1.448-1.631-.93" transform="translate(-180.573 -266.323)" fill="#a5ffff"/>
            </g>
          </g>
        </g>
        <g id="Grupo_40404" data-name="Grupo 40404" transform="translate(167.804 877.772)">
          <g id="Grupo_40403" data-name="Grupo 40403">
            <g id="Grupo_40402" data-name="Grupo 40402" style="isolation: isolate">
              <g id="Grupo_40401" data-name="Grupo 40401">
                <path id="Trazado_10932" data-name="Trazado 10932" d="M127.238,444.106l-22.361,12.98-22.459-12.98,22.459-12.981Z" transform="translate(-82.418 -431.126)" fill="url(#linear-gradient-41)"/>
              </g>
              <path id="Trazado_10933" data-name="Trazado 10933" d="M115.81,437.5V755.607L93.449,768.588V450.482Z" transform="translate(-70.99 -424.521)" fill="url(#linear-gradient-2)"/>
              <path id="Trazado_10934" data-name="Trazado 10934" d="M104.877,450.482V768.588l-22.459-12.98V437.5Z" transform="translate(-82.418 -424.521)" fill="url(#linear-gradient-3)"/>
            </g>
          </g>
          <path id="Trazado_10935" data-name="Trazado 10935" d="M104.877,431.126,82.418,444.107V762.212l22.458,12.98,22.361-12.981V444.106Z" transform="translate(-82.418 -431.126)" fill="url(#linear-gradient-44)"/>
        </g>
      </g>
    </g>
  </g>
</svg>
