<svg xmlns="http://www.w3.org/2000/svg" width="32" height="32" viewBox="0 0 32 32">
  <path id="Trazado_10400" data-name="Trazado 10400" d="M40.568,33.067a6.142,6.142,0,0,0-4.8,2.266l-9.488-5a5.27,5.27,0,0,0,0-3.854l9.48-4.991a6.139,6.139,0,0,0,4.813,2.277,5.864,5.864,0,0,0,6.024-5.676,6.035,6.035,0,0,0-12.048,0,5.351,5.351,0,0,0,.368,1.934l-9.479,4.991a6.14,6.14,0,0,0-4.817-2.282,5.864,5.864,0,0,0-6.024,5.676,5.864,5.864,0,0,0,6.024,5.676A6.139,6.139,0,0,0,25.435,31.8L34.917,36.8a5.351,5.351,0,0,0-.373,1.947,6.035,6.035,0,1,0,6.024-5.675Zm0-18.983a4.143,4.143,0,0,1,4.256,4.01,4.263,4.263,0,0,1-8.512,0A4.143,4.143,0,0,1,40.568,14.084ZM20.616,32.423a4.017,4.017,0,1,1,0-8.019,4.017,4.017,0,1,1,0,8.019Zm19.952,10.33a4.017,4.017,0,1,1,4.256-4.01A4.143,4.143,0,0,1,40.568,42.752Z" transform="translate(-14.592 -12.418)" fill="#fff"/>
</svg>
