<svg xmlns="http://www.w3.org/2000/svg" width="659.763" height="235.316" viewBox="0 0 659.763 235.316">
  <g id="Grupo_41631" data-name="Grupo 41631" transform="translate(-1.599 -31.24)">
    <path id="Trazado_13170" data-name="Trazado 13170" d="M49.02,1.71c33.44,0,50.92-14.82,50.92-33.82,0-40.85-60.61-25.46-60.61-39.71,0-3.8,4.37-7.22,16.53-7.22a60.343,60.343,0,0,1,29.64,7.6L96.33-95.95c-10.26-5.7-26.22-8.74-40.66-8.74-32.3,0-50.16,14.82-50.16,34.2,0,41.23,60.8,25.46,60.8,39.33,0,4.37-3.99,7.03-16.15,7.03-12.54,0-26.41-3.61-35.91-9.5L3.42-8.93C13.49-2.66,31.54,1.71,49.02,1.71Zm110.39-106.4c-16.15,0-33.63,4.18-45.41,11.97l12.16,24.51c7.03-5.51,18.05-8.93,27.93-8.93,14.25,0,21.28,5.89,21.85,16.34H155.42c-31.92,0-45.79,11.78-45.79,30.78,0,17.86,13.68,31.73,38.38,31.73,15.01,0,25.27-5.13,30.4-15.01V0h33.63V-57.19C212.04-89.87,192.85-104.69,159.41-104.69Zm-1.33,83.6c-8.55,0-13.49-4.37-13.49-10.45,0-6.27,4.18-10.45,15.77-10.45h15.58v8.93C173.09-24.89,166.06-21.09,158.08-21.09Zm143.83-83.6c-12.16,0-22.99,3.8-30.97,11.21v-47.5h-36.1V0h36.1V-49.78c0-17.1,8.93-24.32,20.52-24.32,10.45,0,16.91,6.27,16.91,21.09V0h36.1V-58.9C344.47-90.82,326.04-104.69,301.91-104.69Zm83.22-9.69c13.3,0,22.04-8.36,22.04-19.76,0-10.83-8.74-18.62-22.04-18.62s-22.04,8.36-22.04,19.19S371.83-114.38,385.13-114.38ZM367.08,0h36.1V-102.98h-36.1ZM478.23,1.71c34.01,0,58.14-22.23,58.14-53.39,0-30.97-24.13-53.01-58.14-53.01-33.63,0-58.14,22.04-58.14,53.01C420.09-20.52,444.6,1.71,478.23,1.71Zm0-28.69c-12.16,0-21.66-8.93-21.66-24.7,0-15.58,9.5-24.32,21.66-24.32,12.35,0,21.66,8.74,21.66,24.32C499.89-35.91,490.58-26.98,478.23-26.98ZM590.52,1.71c33.44,0,50.92-14.82,50.92-33.82,0-40.85-60.61-25.46-60.61-39.71,0-3.8,4.37-7.22,16.53-7.22A60.343,60.343,0,0,1,627-71.44l10.83-24.51c-10.26-5.7-26.22-8.74-40.66-8.74-32.3,0-50.16,14.82-50.16,34.2,0,41.23,60.8,25.46,60.8,39.33,0,4.37-3.99,7.03-16.15,7.03-12.54,0-26.41-3.61-35.91-9.5L544.92-8.93C554.99-2.66,573.04,1.71,590.52,1.71Z" transform="translate(2.904 184)" fill="#172843"/>
    <path id="Trazado_13171" data-name="Trazado 13171" d="M12.051.312c7.215,0,10.569-3.588,10.569-7.761,0-10.023-16.536-5.85-16.536-12.519,0-2.379,1.989-4.329,6.63-4.329A14.1,14.1,0,0,1,20.2-22.074l1.287-3.12a16.061,16.061,0,0,0-8.775-2.418c-7.176,0-10.452,3.588-10.452,7.8,0,10.14,16.536,5.928,16.536,12.6C18.8-4.836,16.77-3,12.051-3A14.051,14.051,0,0,1,3.042-6.162L1.6-3.12C3.783-1.092,7.878.312,12.051.312Zm36.387,0c8.307,0,14.469-5.928,14.469-13.962S56.745-27.612,48.438-27.612c-8.385,0-14.547,5.967-14.547,13.962S40.053.312,48.438.312Zm0-3.471A10.269,10.269,0,0,1,37.791-13.65,10.269,10.269,0,0,1,48.438-24.141,10.25,10.25,0,0,1,59.007-13.65,10.25,10.25,0,0,1,48.438-3.159Zm47.5-20.748V-27.3H76.674V0h3.9V-11.037H94.263v-3.354H80.574v-9.516ZM114.855,0h3.861V-23.907h9.36V-27.3H105.495v3.393h9.36Zm59.826-27.3L167.154-4.992,159.627-27.3h-3.588L148.356-5.109,140.985-27.3h-4.017L146.094,0h4.173l7.449-21.8L165.165,0h4.1l9.126-27.3ZM210.483,0h4.1l-12.4-27.3h-3.861L185.952,0h4.017l3-6.825H207.48ZM194.337-9.945l5.889-13.377,5.889,13.377ZM248.937,0l-6.474-9.165a8.615,8.615,0,0,0,6.006-8.619c0-5.928-4.29-9.516-11.388-9.516H226.434V0h3.9V-8.307h6.747c.585,0,1.17-.039,1.716-.078L244.686,0ZM236.964-11.622h-6.63V-23.907h6.63c4.992,0,7.6,2.223,7.6,6.123S241.956-11.622,236.964-11.622Zm29.523,8.229v-8.814h13.689v-3.315H266.487v-8.385h15.366V-27.3H262.587V0H282.4V-3.393Zm70.4,1.326-3.666-3.666a17.957,17.957,0,0,0,2.379-6.24l-3-.975a17.189,17.189,0,0,1-1.677,4.953L324.168-14.7c4.173-2.379,5.811-4.368,5.811-7.137,0-3.549-2.652-5.694-6.786-5.694-4.485,0-7.371,2.457-7.371,6.123,0,2.028.819,3.783,3.276,6.24-4.719,2.691-6.63,5.031-6.63,8.385,0,4.173,4.017,7.1,9.555,7.1a12.757,12.757,0,0,0,9.126-3.51L334.776.429ZM323.193-24.8c2.34,0,3.627,1.209,3.627,3,0,1.716-1.17,2.964-4.758,4.992-2.223-2.262-2.769-3.276-2.769-4.68C319.293-23.439,320.736-24.8,323.193-24.8Zm-.936,22c-3.666,0-6.123-1.755-6.123-4.368,0-2.184,1.209-3.783,5.031-5.928l7.761,7.722A9.274,9.274,0,0,1,322.257-2.808ZM387.231-27.3v11.739H371.553V-27.3h-3.9V0h3.9V-12.168h15.678V0h3.9V-27.3ZM427.518,0h4.1l-12.4-27.3H415.35L402.987,0H407l3-6.825h14.508ZM411.372-9.945l5.889-13.377L423.15-9.945ZM465.972,0,459.5-9.165a8.615,8.615,0,0,0,6.006-8.619c0-5.928-4.29-9.516-11.388-9.516H443.469V0h3.9V-8.307h6.747c.585,0,1.17-.039,1.716-.078L461.721,0ZM454-11.622h-6.63V-23.907H454c4.992,0,7.605,2.223,7.605,6.123S458.991-11.622,454-11.622ZM479.622,0h11.505c8.775,0,14.742-5.538,14.742-13.65S499.9-27.3,491.127-27.3H479.622Zm3.9-3.393V-23.907h7.371c6.747,0,11.076,4.134,11.076,10.257S497.64-3.393,490.893-3.393ZM553.644-27.3,546.117-4.992,538.59-27.3H535L527.319-5.109,519.948-27.3h-4.017L525.057,0h4.173l7.449-21.8L544.128,0h4.095l9.126-27.3ZM589.446,0h4.095l-12.4-27.3h-3.861L564.915,0h4.017l3-6.825h14.508ZM573.3-9.945l5.889-13.377,5.889,13.377ZM627.9,0l-6.474-9.165a8.615,8.615,0,0,0,6.006-8.619c0-5.928-4.29-9.516-11.388-9.516H605.4V0h3.9V-8.307h6.747c.585,0,1.17-.039,1.716-.078L623.649,0ZM615.927-11.622H609.3V-23.907h6.63c4.992,0,7.6,2.223,7.6,6.123S620.919-11.622,615.927-11.622ZM645.45-3.393v-8.814h13.689v-3.315H645.45v-8.385h15.366V-27.3H641.55V0h19.812V-3.393Z" transform="translate(0 266.128)" fill="#172843"/>
  </g>
</svg>
